  0
SECTION
  2
HEADER
  9
$ACADVER
  1
AC1014
  9
$HANDSEED
  5
FFFF
  9
$MEASUREMENT
 70
     1
  0
ENDSEC
  0
SECTION
  2
TABLES
  0
TABLE
  2
VPORT
  5
8
330
0
100
AcDbSymbolTable
 70
     4
  0
VPORT
  5
2E
330
8
100
AcDbSymbolTableRecord
100
AcDbViewportTableRecord
  2
*ACTIVE
 70
     0
 10
0.0
 20
0.0
 11
1.0
 21
1.0
 12
210.0
 22
148.5
 13
0.0
 23
0.0
 14
10.0
 24
10.0
 15
10.0
 25
10.0
 16
0.0
 26
0.0
 36
1.0
 17
0.0
 27
0.0
 37
0.0
 40
341.0
 41
1.24
 42
50.0
 43
0.0
 44
0.0
 50
0.0
 51
0.0
 71
     0
 72
   100
 73
     1
 74
     3
 75
     0
 76
     0
 77
     0
 78
     0
  0
ENDTAB
  0
TABLE
  2
LTYPE
  5
5
330
0
100
AcDbSymbolTable
 70
     1
  0
LTYPE
  5
14
330
5
100
AcDbSymbolTableRecord
100
AcDbLinetypeTableRecord
  2
BYBLOCK
 70
     0
  3

 72
    65
 73
     0
 40
0.0
  0
LTYPE
  5
15
330
5
100
AcDbSymbolTableRecord
100
AcDbLinetypeTableRecord
  2
BYLAYER
 70
     0
  3

 72
    65
 73
     0
 40
0.0
  0
LTYPE
  5
16
330
5
100
AcDbSymbolTableRecord
100
AcDbLinetypeTableRecord
  2
CONTINUOUS
 70
     0
  3
Solid line
 72
    65
 73
     0
 40
0.0
  0
ENDTAB
  0
TABLE
  2
LAYER
  5
2
100
AcDbSymbolTable
 70
2
  0
LAYER
  5
50
100
AcDbSymbolTableRecord
100
AcDbLayerTableRecord
  2
0
 70
0
  6
CONTINUOUS
  0
LAYER
  5
51
100
AcDbSymbolTableRecord
100
AcDbLayerTableRecord
  2
Layer_1
 70
0
  6
CONTINUOUS
  0
ENDTAB
  0
TABLE
  2
STYLE
  5
3
330
0
100
AcDbSymbolTable
 70
     1
  0
STYLE
  5
11
330
3
100
AcDbSymbolTableRecord
100
AcDbTextStyleTableRecord
  2
STANDARD
 70
     0
 40
0.0
 41
1.0
 50
0.0
 71
     0
 42
2.5
  3
txt
  4

  0
ENDTAB
  0
TABLE
  2
VIEW
  5
6
330
0
100
AcDbSymbolTable
 70
     0
  0
ENDTAB
  0
TABLE
  2
UCS
  5
7
330
0
100
AcDbSymbolTable
 70
     0
  0
ENDTAB
  0
TABLE
  2
APPID
  5
9
330
0
100
AcDbSymbolTable
 70
     2
  0
APPID
  5
12
330
9
100
AcDbSymbolTableRecord
100
AcDbRegAppTableRecord
  2
ACAD
 70
     0
  0
ENDTAB
  0
TABLE
  2
DIMSTYLE
  5
A
330
0
100
AcDbSymbolTable
 70
     1
  0
DIMSTYLE
105
27
330
A
100
AcDbSymbolTableRecord
100
AcDbDimStyleTableRecord
  2
ISO-25
 70
     0
  3

  4

  5

  6

  7

 40
1.0
 41
2.5
 42
0.625
 43
3.75
 44
1.25
 45
0.0
 46
0.0
 47
0.0
 48
0.0
140
2.5
141
2.5
142
0.0
143
0.03937007874016
144
1.0
145
0.0
146
1.0
147
0.625
 71
     0
 72
     0
 73
     0
 74
     0
 75
     0
 76
     0
 77
     1
 78
     8
170
     0
171
     3
172
     1
173
     0
174
     0
175
     0
176
     0
177
     0
178
     0
270
     2
271
     2
272
     2
273
     2
274
     3
340
11
275
     0
280
     0
281
     0
282
     0
283
     0
284
     8
285
     0
286
     0
287
     3
288
     0
  0
ENDTAB
  0
TABLE
  2
BLOCK_RECORD
  5
1
330
0
100
AcDbSymbolTable
 70
     1
  0
BLOCK_RECORD
  5
1F
330
1
100
AcDbSymbolTableRecord
100
AcDbBlockTableRecord
  2
*MODEL_SPACE
  0
BLOCK_RECORD
  5
1B
330
1
100
AcDbSymbolTableRecord
100
AcDbBlockTableRecord
  2
*PAPER_SPACE
  0
ENDTAB
  0
ENDSEC
  0
SECTION
  2
BLOCKS
  0
BLOCK
  5
20
330
1F
100
AcDbEntity
  8
0
100
AcDbBlockBegin
  2
*MODEL_SPACE
 70
     0
 10
0.0
 20
0.0
 30
0.0
  3
*MODEL_SPACE
  1

  0
ENDBLK
  5
21
330
1F
100
AcDbEntity
  8
0
100
AcDbBlockEnd
  0
BLOCK
  5
1C
330
1B
100
AcDbEntity
 67
     1
  8
0
100
AcDbBlockBegin
  2
*PAPER_SPACE
  1

  0
ENDBLK
  5
1D
330
1B
100
AcDbEntity
 67
     1
  8
0
100
AcDbBlockEnd
  0
ENDSEC
  0
SECTION
  2
ENTITIES
  0
SPLINE
  5
100
100
AcDbEntity
  8
Layer_1
 62
7
100
AcDbSpline
 70
8
 71
3
 72
8
 73
4
 74
0
 40
0
 40
0
 40
0
 40
0
 40
1
 40
1
 40
1
 40
1
 10
111.012737
 20
60.379643
 30
0.0
 10
116.468597
 20
60.379643
 30
0.0
 10
120.886737
 20
55.956021
 30
0.0
 10
120.880334
 20
50.500156
 30
0.0
  0
SPLINE
  5
101
100
AcDbEntity
  8
Layer_1
 62
7
100
AcDbSpline
 70
8
 71
3
 72
8
 73
4
 74
0
 40
0
 40
0
 40
0
 40
0
 40
1
 40
1
 40
1
 40
1
 10
120.880334
 20
50.500156
 30
0.0
 10
120.886684
 20
45.044290
 30
0.0
 10
116.468597
 20
40.620669
 30
0.0
 10
111.012737
 20
40.620669
 30
0.0
  0
SPLINE
  5
102
100
AcDbEntity
  8
Layer_1
 62
7
100
AcDbSpline
 70
8
 71
3
 72
8
 73
4
 74
0
 40
0
 40
0
 40
0
 40
0
 40
1
 40
1
 40
1
 40
1
 10
111.012737
 20
40.620669
 30
0.0
 10
105.556851
 20
40.620669
 30
0.0
 10
101.138738
 20
45.044290
 30
0.0
 10
101.145114
 20
50.500156
 30
0.0
  0
SPLINE
  5
103
100
AcDbEntity
  8
Layer_1
 62
7
100
AcDbSpline
 70
8
 71
3
 72
8
 73
4
 74
0
 40
0
 40
0
 40
0
 40
0
 40
1
 40
1
 40
1
 40
1
 10
101.145114
 20
50.500156
 30
0.0
 10
101.138764
 20
55.956021
 30
0.0
 10
105.556851
 20
60.379643
 30
0.0
 10
111.012737
 20
60.379643
 30
0.0
  0
LWPOLYLINE
  5
104
100
AcDbEntity
  8
Layer_1
 62
7
100
AcDbPolyline
 90
4
 70
1
 10
93.146135
 20
38.368094
 30
0.0
 10
95.879304
 20
38.368094
 30
0.0
 10
95.879304
 20
18.632890
 30
0.0
 10
93.146135
 20
18.632890
 30
0.0
  0
LWPOLYLINE
  5
105
100
AcDbEntity
  8
Layer_1
 62
7
100
AcDbPolyline
 90
1
 70
1
 10
111.012737
 20
60.379643
 30
0.0
  0
LWPOLYLINE
  5
106
100
AcDbEntity
  8
Layer_1
 62
7
100
AcDbPolyline
 90
4
 70
1
 10
93.146135
 20
78.367670
 30
0.0
 10
95.879304
 20
78.367670
 30
0.0
 10
95.879304
 20
58.632466
 30
0.0
 10
93.146135
 20
58.632466
 30
0.0
  0
SPLINE
  5
107
100
AcDbEntity
  8
Layer_1
 62
7
100
AcDbSpline
 70
8
 71
3
 72
8
 73
4
 74
0
 40
0
 40
0
 40
0
 40
0
 40
1
 40
1
 40
1
 40
1
 10
111.012737
 20
140.379311
 30
0.0
 10
116.468597
 20
140.379311
 30
0.0
 10
120.886737
 20
135.956205
 30
0.0
 10
120.880334
 20
130.500340
 30
0.0
  0
LWPOLYLINE
  5
108
100
AcDbEntity
  8
Layer_1
 62
7
100
AcDbPolyline
 90
4
 70
1
 10
93.146135
 20
118.367762
 30
0.0
 10
95.879304
 20
118.367762
 30
0.0
 10
95.879304
 20
98.632558
 30
0.0
 10
93.146135
 20
98.632558
 30
0.0
  0
SPLINE
  5
109
100
AcDbEntity
  8
Layer_1
 62
7
100
AcDbSpline
 70
8
 71
3
 72
8
 73
4
 74
0
 40
0
 40
0
 40
0
 40
0
 40
1
 40
1
 40
1
 40
1
 10
120.880334
 20
130.499810
 30
0.0
 10
120.886684
 20
125.043945
 30
0.0
 10
116.468597
 20
120.620840
 30
0.0
 10
111.012737
 20
120.620840
 30
0.0
  0
SPLINE
  5
10a
100
AcDbEntity
  8
Layer_1
 62
7
100
AcDbSpline
 70
8
 71
3
 72
8
 73
4
 74
0
 40
0
 40
0
 40
0
 40
0
 40
1
 40
1
 40
1
 40
1
 10
111.012737
 20
120.620840
 30
0.0
 10
105.556851
 20
120.620840
 30
0.0
 10
101.138738
 20
125.043945
 30
0.0
 10
101.145114
 20
130.499810
 30
0.0
  0
LWPOLYLINE
  5
10b
100
AcDbEntity
  8
Layer_1
 62
7
100
AcDbPolyline
 90
2
 70
0
 10
120.880334
 20
130.500340
 30
0.0
 10
120.880334
 20
130.499810
 30
0.0
  0
SPLINE
  5
10c
100
AcDbEntity
  8
Layer_1
 62
7
100
AcDbSpline
 70
8
 71
3
 72
8
 73
4
 74
0
 40
0
 40
0
 40
0
 40
0
 40
1
 40
1
 40
1
 40
1
 10
101.145114
 20
130.500340
 30
0.0
 10
101.138764
 20
135.956205
 30
0.0
 10
105.556851
 20
140.379311
 30
0.0
 10
111.012737
 20
140.379311
 30
0.0
  0
LWPOLYLINE
  5
10d
100
AcDbEntity
  8
Layer_1
 62
7
100
AcDbPolyline
 90
2
 70
0
 10
101.145114
 20
130.499810
 30
0.0
 10
101.145114
 20
130.500340
 30
0.0
  0
LWPOLYLINE
  5
10e
100
AcDbEntity
  8
Layer_1
 62
7
100
AcDbPolyline
 90
1
 70
1
 10
111.012737
 20
140.379311
 30
0.0
  0
LWPOLYLINE
  5
10f
100
AcDbEntity
  8
Layer_1
 62
7
100
AcDbPolyline
 90
4
 70
1
 10
93.146135
 20
158.367854
 30
0.0
 10
95.879304
 20
158.367854
 30
0.0
 10
95.879304
 20
138.632650
 30
0.0
 10
93.146135
 20
138.632650
 30
0.0
  0
SPLINE
  5
110
100
AcDbEntity
  8
Layer_1
 62
7
100
AcDbSpline
 70
8
 71
3
 72
8
 73
4
 74
0
 40
0
 40
0
 40
0
 40
0
 40
1
 40
1
 40
1
 40
1
 10
111.012737
 20
220.379495
 30
0.0
 10
116.468597
 20
220.379495
 30
0.0
 10
120.886737
 20
215.955873
 30
0.0
 10
120.880334
 20
210.500007
 30
0.0
  0
SPLINE
  5
111
100
AcDbEntity
  8
Layer_1
 62
7
100
AcDbSpline
 70
8
 71
3
 72
8
 73
4
 74
0
 40
0
 40
0
 40
0
 40
0
 40
1
 40
1
 40
1
 40
1
 10
120.880334
 20
210.500007
 30
0.0
 10
120.886684
 20
205.044142
 30
0.0
 10
116.468597
 20
200.620521
 30
0.0
 10
111.012737
 20
200.620521
 30
0.0
  0
SPLINE
  5
112
100
AcDbEntity
  8
Layer_1
 62
7
100
AcDbSpline
 70
8
 71
3
 72
8
 73
4
 74
0
 40
0
 40
0
 40
0
 40
0
 40
1
 40
1
 40
1
 40
1
 10
111.012737
 20
200.620521
 30
0.0
 10
105.556851
 20
200.620521
 30
0.0
 10
101.138738
 20
205.044142
 30
0.0
 10
101.145114
 20
210.500007
 30
0.0
  0
SPLINE
  5
113
100
AcDbEntity
  8
Layer_1
 62
7
100
AcDbSpline
 70
8
 71
3
 72
8
 73
4
 74
0
 40
0
 40
0
 40
0
 40
0
 40
1
 40
1
 40
1
 40
1
 10
101.145114
 20
210.500007
 30
0.0
 10
101.138764
 20
215.955873
 30
0.0
 10
105.556851
 20
220.379495
 30
0.0
 10
111.012737
 20
220.379495
 30
0.0
  0
LWPOLYLINE
  5
114
100
AcDbEntity
  8
Layer_1
 62
7
100
AcDbPolyline
 90
4
 70
1
 10
93.146135
 20
198.367430
 30
0.0
 10
95.879304
 20
198.367430
 30
0.0
 10
95.879304
 20
178.632226
 30
0.0
 10
93.146135
 20
178.632226
 30
0.0
  0
LWPOLYLINE
  5
115
100
AcDbEntity
  8
Layer_1
 62
7
100
AcDbPolyline
 90
1
 70
1
 10
111.012737
 20
220.379495
 30
0.0
  0
LWPOLYLINE
  5
116
100
AcDbEntity
  8
Layer_1
 62
7
100
AcDbPolyline
 90
4
 70
1
 10
93.146135
 20
238.367522
 30
0.0
 10
95.879304
 20
238.367522
 30
0.0
 10
95.879304
 20
218.632317
 30
0.0
 10
93.146135
 20
218.632317
 30
0.0
  0
LWPOLYLINE
  5
117
100
AcDbEntity
  8
Layer_1
 62
7
100
AcDbPolyline
 90
4
 70
1
 10
93.146135
 20
278.367613
 30
0.0
 10
95.879304
 20
278.367613
 30
0.0
 10
95.879304
 20
258.632409
 30
0.0
 10
93.146135
 20
258.632409
 30
0.0
  0
LWPOLYLINE
  5
118
100
AcDbEntity
  8
Layer_1
 62
7
100
AcDbPolyline
 90
164
 70
1
 10
85.145092
 20
298.367400
 30
0.0
 10
92.881552
 20
298.367400
 30
0.0
 10
92.881552
 20
295.499878
 30
0.0
 10
93.013844
 20
295.499878
 30
0.0
 10
93.013844
 20
295.367587
 30
0.0
 10
101.012320
 20
295.367587
 30
0.0
 10
101.012320
 20
295.499878
 30
0.0
 10
101.144612
 20
295.499878
 30
0.0
 10
101.144612
 20
298.367400
 30
0.0
 10
108.881071
 20
298.367400
 30
0.0
 10
108.881071
 20
295.499878
 30
0.0
 10
109.013363
 20
295.499878
 30
0.0
 10
109.013363
 20
295.367587
 30
0.0
 10
117.011310
 20
295.367587
 30
0.0
 10
117.011310
 20
295.499878
 30
0.0
 10
117.143602
 20
295.499878
 30
0.0
 10
117.143602
 20
298.367400
 30
0.0
 10
124.880088
 20
298.367400
 30
0.0
 10
124.880088
 20
295.499878
 30
0.0
 10
125.012379
 20
295.499878
 30
0.0
 10
125.012379
 20
295.367587
 30
0.0
 10
129.880812
 20
295.367587
 30
0.0
 10
129.880812
 20
278.632196
 30
0.0
 10
127.012759
 20
278.632196
 30
0.0
 10
127.012759
 20
278.499905
 30
0.0
 10
126.880468
 20
278.499905
 30
0.0
 10
126.880468
 20
258.500117
 30
0.0
 10
127.012759
 20
258.500117
 30
0.0
 10
127.012759
 20
258.367826
 30
0.0
 10
129.880812
 20
258.367826
 30
0.0
 10
129.880812
 20
238.632105
 30
0.0
 10
127.012759
 20
238.632105
 30
0.0
 10
127.012759
 20
238.499813
 30
0.0
 10
126.880468
 20
238.499813
 30
0.0
 10
126.880468
 20
218.500026
 30
0.0
 10
127.012759
 20
218.500026
 30
0.0
 10
127.012759
 20
218.367734
 30
0.0
 10
129.880812
 20
218.367734
 30
0.0
 10
129.880812
 20
198.632013
 30
0.0
 10
127.012759
 20
198.632013
 30
0.0
 10
127.012759
 20
198.499721
 30
0.0
 10
126.880468
 20
198.499721
 30
0.0
 10
126.880468
 20
178.499934
 30
0.0
 10
127.012759
 20
178.499934
 30
0.0
 10
127.012759
 20
178.367643
 30
0.0
 10
129.880812
 20
178.367643
 30
0.0
 10
129.880812
 20
158.632437
 30
0.0
 10
127.012759
 20
158.632437
 30
0.0
 10
127.012759
 20
158.500145
 30
0.0
 10
126.880468
 20
158.500145
 30
0.0
 10
126.880468
 20
138.500359
 30
0.0
 10
127.012759
 20
138.500359
 30
0.0
 10
127.012759
 20
138.368067
 30
0.0
 10
129.880812
 20
138.368067
 30
0.0
 10
129.880812
 20
118.632345
 30
0.0
 10
127.012759
 20
118.632345
 30
0.0
 10
127.012759
 20
118.500053
 30
0.0
 10
126.880468
 20
118.500053
 30
0.0
 10
126.880468
 20
98.500267
 30
0.0
 10
127.012759
 20
98.500267
 30
0.0
 10
127.012759
 20
98.367975
 30
0.0
 10
129.880812
 20
98.367975
 30
0.0
 10
129.880812
 20
78.632253
 30
0.0
 10
127.012759
 20
78.632253
 30
0.0
 10
127.012759
 20
78.499961
 30
0.0
 10
126.880468
 20
78.499961
 30
0.0
 10
126.880468
 20
58.500175
 30
0.0
 10
127.012759
 20
58.500175
 30
0.0
 10
127.012759
 20
58.367883
 30
0.0
 10
129.880812
 20
58.367883
 30
0.0
 10
129.880812
 20
38.632677
 30
0.0
 10
127.012759
 20
38.632677
 30
0.0
 10
127.012759
 20
38.500386
 30
0.0
 10
126.880468
 20
38.500386
 30
0.0
 10
126.880468
 20
18.500599
 30
0.0
 10
127.012759
 20
18.500599
 30
0.0
 10
127.012759
 20
18.368307
 30
0.0
 10
129.880812
 20
18.368307
 30
0.0
 10
129.880812
 20
1.632917
 30
0.0
 10
125.012379
 20
1.632917
 30
0.0
 10
125.012379
 20
1.500625
 30
0.0
 10
124.880088
 20
1.500625
 30
0.0
 10
124.880088
 20
-1.367415
 30
0.0
 10
117.143602
 20
-1.367415
 30
0.0
 10
117.143602
 20
1.500625
 30
0.0
 10
117.011310
 20
1.500625
 30
0.0
 10
117.011310
 20
1.632917
 30
0.0
 10
109.013363
 20
1.632917
 30
0.0
 10
109.013363
 20
1.500625
 30
0.0
 10
108.881071
 20
1.500625
 30
0.0
 10
108.881071
 20
-1.367415
 30
0.0
 10
101.144612
 20
-1.367415
 30
0.0
 10
101.144612
 20
1.500625
 30
0.0
 10
101.012320
 20
1.500625
 30
0.0
 10
101.012320
 20
1.632917
 30
0.0
 10
93.013844
 20
1.632917
 30
0.0
 10
93.013844
 20
1.500625
 30
0.0
 10
92.881552
 20
1.500625
 30
0.0
 10
92.881552
 20
-1.367415
 30
0.0
 10
85.145092
 20
-1.367415
 30
0.0
 10
85.145092
 20
1.500625
 30
0.0
 10
85.012801
 20
1.500625
 30
0.0
 10
85.012801
 20
1.632917
 30
0.0
 10
80.144368
 20
1.632917
 30
0.0
 10
80.144368
 20
18.368307
 30
0.0
 10
83.012395
 20
18.368307
 30
0.0
 10
83.012395
 20
18.500599
 30
0.0
 10
83.144686
 20
18.500599
 30
0.0
 10
83.144686
 20
38.500386
 30
0.0
 10
83.012395
 20
38.500386
 30
0.0
 10
83.012395
 20
38.632677
 30
0.0
 10
80.144368
 20
38.632677
 30
0.0
 10
80.144368
 20
58.367883
 30
0.0
 10
83.012395
 20
58.367883
 30
0.0
 10
83.012395
 20
58.500175
 30
0.0
 10
83.144686
 20
58.500175
 30
0.0
 10
83.144686
 20
78.499961
 30
0.0
 10
83.012395
 20
78.499961
 30
0.0
 10
83.012395
 20
78.632253
 30
0.0
 10
80.144368
 20
78.632253
 30
0.0
 10
80.144368
 20
98.367975
 30
0.0
 10
83.012395
 20
98.367975
 30
0.0
 10
83.012395
 20
98.500267
 30
0.0
 10
83.144686
 20
98.500267
 30
0.0
 10
83.144686
 20
118.500053
 30
0.0
 10
83.012395
 20
118.500053
 30
0.0
 10
83.012395
 20
118.632345
 30
0.0
 10
80.144368
 20
118.632345
 30
0.0
 10
80.144368
 20
138.368067
 30
0.0
 10
83.012395
 20
138.368067
 30
0.0
 10
83.012395
 20
138.500359
 30
0.0
 10
83.144686
 20
138.500359
 30
0.0
 10
83.144686
 20
158.500145
 30
0.0
 10
83.012395
 20
158.500145
 30
0.0
 10
83.012395
 20
158.632437
 30
0.0
 10
80.144368
 20
158.632437
 30
0.0
 10
80.144368
 20
178.367643
 30
0.0
 10
83.012395
 20
178.367643
 30
0.0
 10
83.012395
 20
178.499934
 30
0.0
 10
83.144686
 20
178.499934
 30
0.0
 10
83.144686
 20
198.499721
 30
0.0
 10
83.012395
 20
198.499721
 30
0.0
 10
83.012395
 20
198.632013
 30
0.0
 10
80.144368
 20
198.632013
 30
0.0
 10
80.144368
 20
218.367734
 30
0.0
 10
83.012395
 20
218.367734
 30
0.0
 10
83.012395
 20
218.500026
 30
0.0
 10
83.144686
 20
218.500026
 30
0.0
 10
83.144686
 20
238.499813
 30
0.0
 10
83.012395
 20
238.499813
 30
0.0
 10
83.012395
 20
238.632105
 30
0.0
 10
80.144368
 20
238.632105
 30
0.0
 10
80.144368
 20
258.367826
 30
0.0
 10
83.012395
 20
258.367826
 30
0.0
 10
83.012395
 20
258.500117
 30
0.0
 10
83.144686
 20
258.500117
 30
0.0
 10
83.144686
 20
278.499905
 30
0.0
 10
83.012395
 20
278.499905
 30
0.0
 10
83.012395
 20
278.632196
 30
0.0
 10
80.144368
 20
278.632196
 30
0.0
 10
80.144368
 20
295.367587
 30
0.0
 10
85.012801
 20
295.367587
 30
0.0
 10
85.012801
 20
295.499878
 30
0.0
 10
85.145092
 20
295.499878
 30
0.0
  0
ENDSEC
  0
SECTION
  2
OBJECTS
  0
DICTIONARY
  5
C
330
0
100
AcDbDictionary
  3
ACAD_GROUP
350
D
  3
ACAD_MLINESTYLE
350
17
  0
DICTIONARY
  5
D
330
C
100
AcDbDictionary
  0
DICTIONARY
  5
1A
330
C
100
AcDbDictionary
  0
DICTIONARY
  5
17
330
C
100
AcDbDictionary
  3
STANDARD
350
18
  0
DICTIONARY
  5
19
330
C
100
AcDbDictionary
  0
ENDSEC
  0
EOF
