  0
SECTION
  2
HEADER
  9
$ACADVER
  1
AC1014
  9
$HANDSEED
  5
FFFF
  9
$MEASUREMENT
 70
     1
  0
ENDSEC
  0
SECTION
  2
TABLES
  0
TABLE
  2
VPORT
  5
8
330
0
100
AcDbSymbolTable
 70
     4
  0
VPORT
  5
2E
330
8
100
AcDbSymbolTableRecord
100
AcDbViewportTableRecord
  2
*ACTIVE
 70
     0
 10
0.0
 20
0.0
 11
1.0
 21
1.0
 12
210.0
 22
148.5
 13
0.0
 23
0.0
 14
10.0
 24
10.0
 15
10.0
 25
10.0
 16
0.0
 26
0.0
 36
1.0
 17
0.0
 27
0.0
 37
0.0
 40
341.0
 41
1.24
 42
50.0
 43
0.0
 44
0.0
 50
0.0
 51
0.0
 71
     0
 72
   100
 73
     1
 74
     3
 75
     0
 76
     0
 77
     0
 78
     0
  0
ENDTAB
  0
TABLE
  2
LTYPE
  5
5
330
0
100
AcDbSymbolTable
 70
     1
  0
LTYPE
  5
14
330
5
100
AcDbSymbolTableRecord
100
AcDbLinetypeTableRecord
  2
BYBLOCK
 70
     0
  3

 72
    65
 73
     0
 40
0.0
  0
LTYPE
  5
15
330
5
100
AcDbSymbolTableRecord
100
AcDbLinetypeTableRecord
  2
BYLAYER
 70
     0
  3

 72
    65
 73
     0
 40
0.0
  0
LTYPE
  5
16
330
5
100
AcDbSymbolTableRecord
100
AcDbLinetypeTableRecord
  2
CONTINUOUS
 70
     0
  3
Solid line
 72
    65
 73
     0
 40
0.0
  0
ENDTAB
  0
TABLE
  2
LAYER
  5
2
100
AcDbSymbolTable
 70
2
  0
LAYER
  5
50
100
AcDbSymbolTableRecord
100
AcDbLayerTableRecord
  2
0
 70
0
  6
CONTINUOUS
  0
LAYER
  5
51
100
AcDbSymbolTableRecord
100
AcDbLayerTableRecord
  2
View
 70
0
  6
CONTINUOUS
  0
ENDTAB
  0
TABLE
  2
STYLE
  5
3
330
0
100
AcDbSymbolTable
 70
     1
  0
STYLE
  5
11
330
3
100
AcDbSymbolTableRecord
100
AcDbTextStyleTableRecord
  2
STANDARD
 70
     0
 40
0.0
 41
1.0
 50
0.0
 71
     0
 42
2.5
  3
txt
  4

  0
ENDTAB
  0
TABLE
  2
VIEW
  5
6
330
0
100
AcDbSymbolTable
 70
     0
  0
ENDTAB
  0
TABLE
  2
UCS
  5
7
330
0
100
AcDbSymbolTable
 70
     0
  0
ENDTAB
  0
TABLE
  2
APPID
  5
9
330
0
100
AcDbSymbolTable
 70
     2
  0
APPID
  5
12
330
9
100
AcDbSymbolTableRecord
100
AcDbRegAppTableRecord
  2
ACAD
 70
     0
  0
ENDTAB
  0
TABLE
  2
DIMSTYLE
  5
A
330
0
100
AcDbSymbolTable
 70
     1
  0
DIMSTYLE
105
27
330
A
100
AcDbSymbolTableRecord
100
AcDbDimStyleTableRecord
  2
ISO-25
 70
     0
  3

  4

  5

  6

  7

 40
1.0
 41
2.5
 42
0.625
 43
3.75
 44
1.25
 45
0.0
 46
0.0
 47
0.0
 48
0.0
140
2.5
141
2.5
142
0.0
143
0.03937007874016
144
1.0
145
0.0
146
1.0
147
0.625
 71
     0
 72
     0
 73
     0
 74
     0
 75
     0
 76
     0
 77
     1
 78
     8
170
     0
171
     3
172
     1
173
     0
174
     0
175
     0
176
     0
177
     0
178
     0
270
     2
271
     2
272
     2
273
     2
274
     3
340
11
275
     0
280
     0
281
     0
282
     0
283
     0
284
     8
285
     0
286
     0
287
     3
288
     0
  0
ENDTAB
  0
TABLE
  2
BLOCK_RECORD
  5
1
330
0
100
AcDbSymbolTable
 70
     1
  0
BLOCK_RECORD
  5
1F
330
1
100
AcDbSymbolTableRecord
100
AcDbBlockTableRecord
  2
*MODEL_SPACE
  0
BLOCK_RECORD
  5
1B
330
1
100
AcDbSymbolTableRecord
100
AcDbBlockTableRecord
  2
*PAPER_SPACE
  0
ENDTAB
  0
ENDSEC
  0
SECTION
  2
BLOCKS
  0
BLOCK
  5
20
330
1F
100
AcDbEntity
  8
0
100
AcDbBlockBegin
  2
*MODEL_SPACE
 70
     0
 10
0.0
 20
0.0
 30
0.0
  3
*MODEL_SPACE
  1

  0
ENDBLK
  5
21
330
1F
100
AcDbEntity
  8
0
100
AcDbBlockEnd
  0
BLOCK
  5
1C
330
1B
100
AcDbEntity
 67
     1
  8
0
100
AcDbBlockBegin
  2
*PAPER_SPACE
  1

  0
ENDBLK
  5
1D
330
1B
100
AcDbEntity
 67
     1
  8
0
100
AcDbBlockEnd
  0
ENDSEC
  0
SECTION
  2
ENTITIES
  0
SPLINE
  5
100
100
AcDbEntity
  8
View
 62
7
100
AcDbSpline
 70
8
 71
3
 72
8
 73
4
 74
0
 40
0
 40
0
 40
0
 40
0
 40
1
 40
1
 40
1
 40
1
 10
195.767842
 20
108.972564
 30
0.0
 10
195.988443
 20
108.972564
 30
0.0
 10
196.207579
 20
108.898462
 30
0.0
 10
196.367803
 20
108.756040
 30
0.0
  0
SPLINE
  5
101
100
AcDbEntity
  8
View
 62
7
100
AcDbSpline
 70
8
 71
3
 72
8
 73
4
 74
0
 40
0
 40
0
 40
0
 40
0
 40
1
 40
1
 40
1
 40
1
 10
196.367803
 20
108.756040
 30
0.0
 10
196.528026
 20
108.613620
 30
0.0
 10
196.635487
 20
108.405179
 30
0.0
 10
196.635487
 20
108.104919
 30
0.0
  0
SPLINE
  5
102
100
AcDbEntity
  8
View
 62
7
100
AcDbSpline
 70
8
 71
3
 72
8
 73
4
 74
0
 40
0
 40
0
 40
0
 40
0
 40
1
 40
1
 40
1
 40
1
 10
196.635487
 20
108.104919
 30
0.0
 10
196.635487
 20
107.804657
 30
0.0
 10
196.528026
 20
107.596215
 30
0.0
 10
196.367803
 20
107.453795
 30
0.0
  0
SPLINE
  5
103
100
AcDbEntity
  8
View
 62
7
100
AcDbSpline
 70
8
 71
3
 72
8
 73
4
 74
0
 40
0
 40
0
 40
0
 40
0
 40
1
 40
1
 40
1
 40
1
 10
196.367803
 20
107.453795
 30
0.0
 10
196.207579
 20
107.311373
 30
0.0
 10
195.988443
 20
107.237271
 30
0.0
 10
195.767842
 20
107.237271
 30
0.0
  0
SPLINE
  5
104
100
AcDbEntity
  8
View
 62
7
100
AcDbSpline
 70
8
 71
3
 72
8
 73
4
 74
0
 40
0
 40
0
 40
0
 40
0
 40
1
 40
1
 40
1
 40
1
 10
195.767842
 20
107.237271
 30
0.0
 10
195.547240
 20
107.237271
 30
0.0
 10
195.328617
 20
107.311373
 30
0.0
 10
195.168394
 20
107.453795
 30
0.0
  0
SPLINE
  5
105
100
AcDbEntity
  8
View
 62
7
100
AcDbSpline
 70
8
 71
3
 72
8
 73
4
 74
0
 40
0
 40
0
 40
0
 40
0
 40
1
 40
1
 40
1
 40
1
 10
195.168394
 20
107.453795
 30
0.0
 10
195.008170
 20
107.596215
 30
0.0
 10
194.900194
 20
107.804657
 30
0.0
 10
194.900194
 20
108.104919
 30
0.0
  0
SPLINE
  5
106
100
AcDbEntity
  8
View
 62
7
100
AcDbSpline
 70
8
 71
3
 72
8
 73
4
 74
0
 40
0
 40
0
 40
0
 40
0
 40
1
 40
1
 40
1
 40
1
 10
194.900194
 20
108.104919
 30
0.0
 10
194.900194
 20
108.405179
 30
0.0
 10
195.008170
 20
108.613620
 30
0.0
 10
195.168394
 20
108.756040
 30
0.0
  0
SPLINE
  5
107
100
AcDbEntity
  8
View
 62
7
100
AcDbSpline
 70
8
 71
3
 72
8
 73
4
 74
0
 40
0
 40
0
 40
0
 40
0
 40
1
 40
1
 40
1
 40
1
 10
195.168394
 20
108.756040
 30
0.0
 10
195.328617
 20
108.898462
 30
0.0
 10
195.547240
 20
108.972564
 30
0.0
 10
195.767842
 20
108.972564
 30
0.0
  0
SPLINE
  5
108
100
AcDbEntity
  8
View
 62
7
100
AcDbSpline
 70
8
 71
3
 72
8
 73
4
 74
0
 40
0
 40
0
 40
0
 40
0
 40
1
 40
1
 40
1
 40
1
 10
208.267850
 20
108.973623
 30
0.0
 10
208.488647
 20
108.973623
 30
0.0
 10
208.707553
 20
108.899690
 30
0.0
 10
208.867811
 20
108.757098
 30
0.0
  0
SPLINE
  5
109
100
AcDbEntity
  8
View
 62
7
100
AcDbSpline
 70
8
 71
3
 72
8
 73
4
 74
0
 40
0
 40
0
 40
0
 40
0
 40
1
 40
1
 40
1
 40
1
 10
208.867811
 20
108.757098
 30
0.0
 10
209.028072
 20
108.614506
 30
0.0
 10
209.135876
 20
108.405607
 30
0.0
 10
209.135495
 20
108.104943
 30
0.0
  0
SPLINE
  5
10a
100
AcDbEntity
  8
View
 62
7
100
AcDbSpline
 70
8
 71
3
 72
8
 73
4
 74
0
 40
0
 40
0
 40
0
 40
0
 40
1
 40
1
 40
1
 40
1
 10
209.135495
 20
108.104943
 30
0.0
 10
209.135760
 20
107.804276
 30
0.0
 10
209.028072
 20
107.595379
 30
0.0
 10
208.867811
 20
107.452785
 30
0.0
  0
SPLINE
  5
10b
100
AcDbEntity
  8
View
 62
7
100
AcDbSpline
 70
8
 71
3
 72
8
 73
4
 74
0
 40
0
 40
0
 40
0
 40
0
 40
1
 40
1
 40
1
 40
1
 10
208.867811
 20
107.452785
 30
0.0
 10
208.707553
 20
107.310193
 30
0.0
 10
208.488647
 20
107.235744
 30
0.0
 10
208.267850
 20
107.235744
 30
0.0
  0
SPLINE
  5
10c
100
AcDbEntity
  8
View
 62
7
100
AcDbSpline
 70
8
 71
3
 72
8
 73
4
 74
0
 40
0
 40
0
 40
0
 40
0
 40
1
 40
1
 40
1
 40
1
 10
208.267850
 20
107.235744
 30
0.0
 10
208.047050
 20
107.235744
 30
0.0
 10
207.828147
 20
107.310193
 30
0.0
 10
207.667886
 20
107.452785
 30
0.0
  0
SPLINE
  5
10d
100
AcDbEntity
  8
View
 62
7
100
AcDbSpline
 70
8
 71
3
 72
8
 73
4
 74
0
 40
0
 40
0
 40
0
 40
0
 40
1
 40
1
 40
1
 40
1
 10
207.667886
 20
107.452785
 30
0.0
 10
207.507626
 20
107.595379
 30
0.0
 10
207.399824
 20
107.804276
 30
0.0
 10
207.400202
 20
108.104943
 30
0.0
  0
SPLINE
  5
10e
100
AcDbEntity
  8
View
 62
7
100
AcDbSpline
 70
8
 71
3
 72
8
 73
4
 74
0
 40
0
 40
0
 40
0
 40
0
 40
1
 40
1
 40
1
 40
1
 10
207.400202
 20
108.104943
 30
0.0
 10
207.399938
 20
108.405607
 30
0.0
 10
207.507626
 20
108.614506
 30
0.0
 10
207.667886
 20
108.757098
 30
0.0
  0
SPLINE
  5
10f
100
AcDbEntity
  8
View
 62
7
100
AcDbSpline
 70
8
 71
3
 72
8
 73
4
 74
0
 40
0
 40
0
 40
0
 40
0
 40
1
 40
1
 40
1
 40
1
 10
207.667886
 20
108.757098
 30
0.0
 10
207.828147
 20
108.899690
 30
0.0
 10
208.047050
 20
108.973623
 30
0.0
 10
208.267850
 20
108.973623
 30
0.0
  0
LWPOLYLINE
  5
110
100
AcDbEntity
  8
View
 62
7
100
AcDbPolyline
 90
1
 70
1
 10
195.767842
 20
108.972564
 30
0.0
  0
SPLINE
  5
111
100
AcDbEntity
  8
View
 62
7
100
AcDbSpline
 70
8
 71
3
 72
8
 73
4
 74
0
 40
0
 40
0
 40
0
 40
0
 40
1
 40
1
 40
1
 40
1
 10
195.767842
 20
122.072584
 30
0.0
 10
197.684567
 20
122.072584
 30
0.0
 10
199.235845
 20
120.521825
 30
0.0
 10
199.235845
 20
118.605096
 30
0.0
  0
SPLINE
  5
112
100
AcDbEntity
  8
View
 62
7
100
AcDbSpline
 70
8
 71
3
 72
8
 73
4
 74
0
 40
0
 40
0
 40
0
 40
0
 40
1
 40
1
 40
1
 40
1
 10
199.235845
 20
118.605096
 30
0.0
 10
199.235845
 20
116.688368
 30
0.0
 10
197.684567
 20
115.137092
 30
0.0
 10
195.767842
 20
115.137092
 30
0.0
  0
SPLINE
  5
113
100
AcDbEntity
  8
View
 62
7
100
AcDbSpline
 70
8
 71
3
 72
8
 73
4
 74
0
 40
0
 40
0
 40
0
 40
0
 40
1
 40
1
 40
1
 40
1
 10
195.767842
 20
115.137092
 30
0.0
 10
193.851113
 20
115.137092
 30
0.0
 10
192.300354
 20
116.688368
 30
0.0
 10
192.300354
 20
118.605096
 30
0.0
  0
SPLINE
  5
114
100
AcDbEntity
  8
View
 62
7
100
AcDbSpline
 70
8
 71
3
 72
8
 73
4
 74
0
 40
0
 40
0
 40
0
 40
0
 40
1
 40
1
 40
1
 40
1
 10
192.300354
 20
118.605096
 30
0.0
 10
192.300354
 20
120.521825
 30
0.0
 10
193.851113
 20
122.072584
 30
0.0
 10
195.767842
 20
122.072584
 30
0.0
  0
LWPOLYLINE
  5
115
100
AcDbEntity
  8
View
 62
7
100
AcDbPolyline
 90
1
 70
1
 10
208.267850
 20
108.973623
 30
0.0
  0
SPLINE
  5
116
100
AcDbEntity
  8
View
 62
7
100
AcDbSpline
 70
8
 71
3
 72
8
 73
4
 74
0
 40
0
 40
0
 40
0
 40
0
 40
1
 40
1
 40
1
 40
1
 10
195.767842
 20
129.972358
 30
0.0
 10
195.988443
 20
129.972358
 30
0.0
 10
196.207579
 20
129.898256
 30
0.0
 10
196.367803
 20
129.755833
 30
0.0
  0
SPLINE
  5
117
100
AcDbEntity
  8
View
 62
7
100
AcDbSpline
 70
8
 71
3
 72
8
 73
4
 74
0
 40
0
 40
0
 40
0
 40
0
 40
1
 40
1
 40
1
 40
1
 10
196.367803
 20
129.755833
 30
0.0
 10
196.528026
 20
129.613413
 30
0.0
 10
196.635487
 20
129.404972
 30
0.0
 10
196.635487
 20
129.104712
 30
0.0
  0
SPLINE
  5
118
100
AcDbEntity
  8
View
 62
7
100
AcDbSpline
 70
8
 71
3
 72
8
 73
4
 74
0
 40
0
 40
0
 40
0
 40
0
 40
1
 40
1
 40
1
 40
1
 10
196.635487
 20
129.104712
 30
0.0
 10
196.635487
 20
128.804453
 30
0.0
 10
196.528026
 20
128.596009
 30
0.0
 10
196.367803
 20
128.453589
 30
0.0
  0
SPLINE
  5
119
100
AcDbEntity
  8
View
 62
7
100
AcDbSpline
 70
8
 71
3
 72
8
 73
4
 74
0
 40
0
 40
0
 40
0
 40
0
 40
1
 40
1
 40
1
 40
1
 10
196.367803
 20
128.453589
 30
0.0
 10
196.207579
 20
128.311166
 30
0.0
 10
195.988443
 20
128.237064
 30
0.0
 10
195.767842
 20
128.237064
 30
0.0
  0
SPLINE
  5
11a
100
AcDbEntity
  8
View
 62
7
100
AcDbSpline
 70
8
 71
3
 72
8
 73
4
 74
0
 40
0
 40
0
 40
0
 40
0
 40
1
 40
1
 40
1
 40
1
 10
195.767842
 20
128.237064
 30
0.0
 10
195.547240
 20
128.237064
 30
0.0
 10
195.328617
 20
128.311166
 30
0.0
 10
195.168394
 20
128.453589
 30
0.0
  0
SPLINE
  5
11b
100
AcDbEntity
  8
View
 62
7
100
AcDbSpline
 70
8
 71
3
 72
8
 73
4
 74
0
 40
0
 40
0
 40
0
 40
0
 40
1
 40
1
 40
1
 40
1
 10
195.168394
 20
128.453589
 30
0.0
 10
195.008170
 20
128.596009
 30
0.0
 10
194.900194
 20
128.804453
 30
0.0
 10
194.900194
 20
129.104712
 30
0.0
  0
SPLINE
  5
11c
100
AcDbEntity
  8
View
 62
7
100
AcDbSpline
 70
8
 71
3
 72
8
 73
4
 74
0
 40
0
 40
0
 40
0
 40
0
 40
1
 40
1
 40
1
 40
1
 10
194.900194
 20
129.104712
 30
0.0
 10
194.900194
 20
129.404972
 30
0.0
 10
195.008170
 20
129.613413
 30
0.0
 10
195.168394
 20
129.755833
 30
0.0
  0
SPLINE
  5
11d
100
AcDbEntity
  8
View
 62
7
100
AcDbSpline
 70
8
 71
3
 72
8
 73
4
 74
0
 40
0
 40
0
 40
0
 40
0
 40
1
 40
1
 40
1
 40
1
 10
195.168394
 20
129.755833
 30
0.0
 10
195.328617
 20
129.898256
 30
0.0
 10
195.547240
 20
129.972358
 30
0.0
 10
195.767842
 20
129.972358
 30
0.0
  0
LWPOLYLINE
  5
11e
100
AcDbEntity
  8
View
 62
7
100
AcDbPolyline
 90
1
 70
1
 10
195.767842
 20
122.072584
 30
0.0
  0
SPLINE
  5
11f
100
AcDbEntity
  8
View
 62
7
100
AcDbSpline
 70
8
 71
3
 72
8
 73
4
 74
0
 40
0
 40
0
 40
0
 40
0
 40
1
 40
1
 40
1
 40
1
 10
208.267850
 20
129.973945
 30
0.0
 10
208.488647
 20
129.973945
 30
0.0
 10
208.707553
 20
129.899499
 30
0.0
 10
208.867811
 20
129.756905
 30
0.0
  0
SPLINE
  5
120
100
AcDbEntity
  8
View
 62
7
100
AcDbSpline
 70
8
 71
3
 72
8
 73
4
 74
0
 40
0
 40
0
 40
0
 40
0
 40
1
 40
1
 40
1
 40
1
 10
208.867811
 20
129.756905
 30
0.0
 10
209.028072
 20
129.614313
 30
0.0
 10
209.135876
 20
129.405932
 30
0.0
 10
209.135495
 20
129.105265
 30
0.0
  0
LWPOLYLINE
  5
121
100
AcDbEntity
  8
View
 62
7
100
AcDbPolyline
 90
1
 70
1
 10
195.767842
 20
129.972358
 30
0.0
  0
SPLINE
  5
122
100
AcDbEntity
  8
View
 62
7
100
AcDbSpline
 70
8
 71
3
 72
8
 73
4
 74
0
 40
0
 40
0
 40
0
 40
0
 40
1
 40
1
 40
1
 40
1
 10
209.135495
 20
129.104736
 30
0.0
 10
209.135760
 20
128.804069
 30
0.0
 10
209.028072
 20
128.595173
 30
0.0
 10
208.867811
 20
128.452578
 30
0.0
  0
SPLINE
  5
123
100
AcDbEntity
  8
View
 62
7
100
AcDbSpline
 70
8
 71
3
 72
8
 73
4
 74
0
 40
0
 40
0
 40
0
 40
0
 40
1
 40
1
 40
1
 40
1
 10
208.867811
 20
128.452578
 30
0.0
 10
208.707553
 20
128.309986
 30
0.0
 10
208.488647
 20
128.236054
 30
0.0
 10
208.267850
 20
128.236054
 30
0.0
  0
SPLINE
  5
124
100
AcDbEntity
  8
View
 62
7
100
AcDbSpline
 70
8
 71
3
 72
8
 73
4
 74
0
 40
0
 40
0
 40
0
 40
0
 40
1
 40
1
 40
1
 40
1
 10
208.267850
 20
128.236054
 30
0.0
 10
208.047050
 20
128.236054
 30
0.0
 10
207.828147
 20
128.309986
 30
0.0
 10
207.667886
 20
128.452578
 30
0.0
  0
SPLINE
  5
125
100
AcDbEntity
  8
View
 62
7
100
AcDbSpline
 70
8
 71
3
 72
8
 73
4
 74
0
 40
0
 40
0
 40
0
 40
0
 40
1
 40
1
 40
1
 40
1
 10
207.667886
 20
128.452578
 30
0.0
 10
207.507626
 20
128.595173
 30
0.0
 10
207.399824
 20
128.804069
 30
0.0
 10
207.400202
 20
129.104736
 30
0.0
  0
LWPOLYLINE
  5
126
100
AcDbEntity
  8
View
 62
7
100
AcDbPolyline
 90
2
 70
0
 10
209.135495
 20
129.105265
 30
0.0
 10
209.135495
 20
129.104736
 30
0.0
  0
SPLINE
  5
127
100
AcDbEntity
  8
View
 62
7
100
AcDbSpline
 70
8
 71
3
 72
8
 73
4
 74
0
 40
0
 40
0
 40
0
 40
0
 40
1
 40
1
 40
1
 40
1
 10
207.400202
 20
129.105265
 30
0.0
 10
207.399938
 20
129.405932
 30
0.0
 10
207.507626
 20
129.614313
 30
0.0
 10
207.667886
 20
129.756905
 30
0.0
  0
SPLINE
  5
128
100
AcDbEntity
  8
View
 62
7
100
AcDbSpline
 70
8
 71
3
 72
8
 73
4
 74
0
 40
0
 40
0
 40
0
 40
0
 40
1
 40
1
 40
1
 40
1
 10
207.667886
 20
129.756905
 30
0.0
 10
207.828147
 20
129.899499
 30
0.0
 10
208.047050
 20
129.973945
 30
0.0
 10
208.267850
 20
129.973945
 30
0.0
  0
LWPOLYLINE
  5
129
100
AcDbEntity
  8
View
 62
7
100
AcDbPolyline
 90
2
 70
0
 10
207.400202
 20
129.104736
 30
0.0
 10
207.400202
 20
129.105265
 30
0.0
  0
SPLINE
  5
12a
100
AcDbEntity
  8
View
 62
7
100
AcDbSpline
 70
8
 71
3
 72
8
 73
4
 74
0
 40
0
 40
0
 40
0
 40
0
 40
1
 40
1
 40
1
 40
1
 10
134.267736
 20
142.473409
 30
0.0
 10
134.488536
 20
142.473409
 30
0.0
 10
134.707955
 20
142.398963
 30
0.0
 10
134.868215
 20
142.256368
 30
0.0
  0
SPLINE
  5
12b
100
AcDbEntity
  8
View
 62
7
100
AcDbSpline
 70
8
 71
3
 72
8
 73
4
 74
0
 40
0
 40
0
 40
0
 40
0
 40
1
 40
1
 40
1
 40
1
 10
134.868215
 20
142.256368
 30
0.0
 10
135.028476
 20
142.113776
 30
0.0
 10
135.136278
 20
141.905396
 30
0.0
 10
135.135900
 20
141.604729
 30
0.0
  0
LWPOLYLINE
  5
12c
100
AcDbEntity
  8
View
 62
7
100
AcDbPolyline
 90
1
 70
1
 10
208.267850
 20
129.973945
 30
0.0
  0
SPLINE
  5
12d
100
AcDbEntity
  8
View
 62
7
100
AcDbSpline
 70
8
 71
3
 72
8
 73
4
 74
0
 40
0
 40
0
 40
0
 40
0
 40
1
 40
1
 40
1
 40
1
 10
135.135900
 20
141.604200
 30
0.0
 10
135.136164
 20
141.303532
 30
0.0
 10
135.028476
 20
141.094636
 30
0.0
 10
134.868215
 20
140.952042
 30
0.0
  0
SPLINE
  5
12e
100
AcDbEntity
  8
View
 62
7
100
AcDbSpline
 70
8
 71
3
 72
8
 73
4
 74
0
 40
0
 40
0
 40
0
 40
0
 40
1
 40
1
 40
1
 40
1
 10
134.868215
 20
140.952042
 30
0.0
 10
134.707955
 20
140.809450
 30
0.0
 10
134.488536
 20
140.735517
 30
0.0
 10
134.267736
 20
140.735517
 30
0.0
  0
SPLINE
  5
12f
100
AcDbEntity
  8
View
 62
7
100
AcDbSpline
 70
8
 71
3
 72
8
 73
4
 74
0
 40
0
 40
0
 40
0
 40
0
 40
1
 40
1
 40
1
 40
1
 10
134.267736
 20
140.735517
 30
0.0
 10
134.046936
 20
140.735517
 30
0.0
 10
133.828033
 20
140.809450
 30
0.0
 10
133.667772
 20
140.952042
 30
0.0
  0
SPLINE
  5
130
100
AcDbEntity
  8
View
 62
7
100
AcDbSpline
 70
8
 71
3
 72
8
 73
4
 74
0
 40
0
 40
0
 40
0
 40
0
 40
1
 40
1
 40
1
 40
1
 10
133.667772
 20
140.952042
 30
0.0
 10
133.507511
 20
141.094636
 30
0.0
 10
133.399710
 20
141.303532
 30
0.0
 10
133.400088
 20
141.604200
 30
0.0
  0
LWPOLYLINE
  5
131
100
AcDbEntity
  8
View
 62
7
100
AcDbPolyline
 90
2
 70
0
 10
135.135900
 20
141.604729
 30
0.0
 10
135.135900
 20
141.604200
 30
0.0
  0
SPLINE
  5
132
100
AcDbEntity
  8
View
 62
7
100
AcDbSpline
 70
8
 71
3
 72
8
 73
4
 74
0
 40
0
 40
0
 40
0
 40
0
 40
1
 40
1
 40
1
 40
1
 10
133.400088
 20
141.604729
 30
0.0
 10
133.399823
 20
141.905396
 30
0.0
 10
133.507511
 20
142.113776
 30
0.0
 10
133.667772
 20
142.256368
 30
0.0
  0
SPLINE
  5
133
100
AcDbEntity
  8
View
 62
7
100
AcDbSpline
 70
8
 71
3
 72
8
 73
4
 74
0
 40
0
 40
0
 40
0
 40
0
 40
1
 40
1
 40
1
 40
1
 10
133.667772
 20
142.256368
 30
0.0
 10
133.828033
 20
142.398963
 30
0.0
 10
134.046936
 20
142.473409
 30
0.0
 10
134.267736
 20
142.473409
 30
0.0
  0
LWPOLYLINE
  5
134
100
AcDbEntity
  8
View
 62
7
100
AcDbPolyline
 90
2
 70
0
 10
133.400088
 20
141.604200
 30
0.0
 10
133.400088
 20
141.604729
 30
0.0
  0
SPLINE
  5
135
100
AcDbEntity
  8
View
 62
7
100
AcDbSpline
 70
8
 71
3
 72
8
 73
4
 74
0
 40
0
 40
0
 40
0
 40
0
 40
1
 40
1
 40
1
 40
1
 10
268.267793
 20
142.476054
 30
0.0
 10
268.488984
 20
142.476054
 30
0.0
 10
268.708456
 20
142.401445
 30
0.0
 10
268.868794
 20
142.258495
 30
0.0
  0
SPLINE
  5
136
100
AcDbEntity
  8
View
 62
7
100
AcDbSpline
 70
8
 71
3
 72
8
 73
4
 74
0
 40
0
 40
0
 40
0
 40
0
 40
1
 40
1
 40
1
 40
1
 10
268.868794
 20
142.258495
 30
0.0
 10
269.029131
 20
142.115549
 30
0.0
 10
269.136605
 20
141.906290
 30
0.0
 10
269.135441
 20
141.604790
 30
0.0
  0
LWPOLYLINE
  5
137
100
AcDbEntity
  8
View
 62
7
100
AcDbPolyline
 90
1
 70
1
 10
134.267736
 20
142.473409
 30
0.0
  0
SPLINE
  5
138
100
AcDbEntity
  8
View
 62
7
100
AcDbSpline
 70
8
 71
3
 72
8
 73
4
 74
0
 40
0
 40
0
 40
0
 40
0
 40
1
 40
1
 40
1
 40
1
 10
269.135441
 20
141.603731
 30
0.0
 10
269.135441
 20
141.302231
 30
0.0
 10
269.029131
 20
141.092972
 30
0.0
 10
268.868794
 20
140.950025
 30
0.0
  0
SPLINE
  5
139
100
AcDbEntity
  8
View
 62
7
100
AcDbSpline
 70
8
 71
3
 72
8
 73
4
 74
0
 40
0
 40
0
 40
0
 40
0
 40
1
 40
1
 40
1
 40
1
 10
268.868794
 20
140.950025
 30
0.0
 10
268.708456
 20
140.807079
 30
0.0
 10
268.488984
 20
140.732985
 30
0.0
 10
268.267793
 20
140.732985
 30
0.0
  0
SPLINE
  5
13a
100
AcDbEntity
  8
View
 62
7
100
AcDbSpline
 70
8
 71
3
 72
8
 73
4
 74
0
 40
0
 40
0
 40
0
 40
0
 40
1
 40
1
 40
1
 40
1
 10
268.267793
 20
140.732985
 30
0.0
 10
268.046575
 20
140.732985
 30
0.0
 10
267.827129
 20
140.807079
 30
0.0
 10
267.666792
 20
140.950025
 30
0.0
  0
SPLINE
  5
13b
100
AcDbEntity
  8
View
 62
7
100
AcDbSpline
 70
8
 71
3
 72
8
 73
4
 74
0
 40
0
 40
0
 40
0
 40
0
 40
1
 40
1
 40
1
 40
1
 10
267.666792
 20
140.950025
 30
0.0
 10
267.506454
 20
141.092972
 30
0.0
 10
267.398981
 20
141.302231
 30
0.0
 10
267.400145
 20
141.603731
 30
0.0
  0
LWPOLYLINE
  5
13c
100
AcDbEntity
  8
View
 62
7
100
AcDbPolyline
 90
3
 70
0
 10
269.135441
 20
141.604790
 30
0.0
 10
269.135441
 20
141.604260
 30
0.0
 10
269.135441
 20
141.603731
 30
0.0
  0
SPLINE
  5
13d
100
AcDbEntity
  8
View
 62
7
100
AcDbSpline
 70
8
 71
3
 72
8
 73
4
 74
0
 40
0
 40
0
 40
0
 40
0
 40
1
 40
1
 40
1
 40
1
 10
267.400145
 20
141.604790
 30
0.0
 10
267.400145
 20
141.906290
 30
0.0
 10
267.506454
 20
142.115549
 30
0.0
 10
267.666792
 20
142.258495
 30
0.0
  0
SPLINE
  5
13e
100
AcDbEntity
  8
View
 62
7
100
AcDbSpline
 70
8
 71
3
 72
8
 73
4
 74
0
 40
0
 40
0
 40
0
 40
0
 40
1
 40
1
 40
1
 40
1
 10
267.666792
 20
142.258495
 30
0.0
 10
267.827129
 20
142.401445
 30
0.0
 10
268.046575
 20
142.476054
 30
0.0
 10
268.267793
 20
142.476054
 30
0.0
  0
LWPOLYLINE
  5
13f
100
AcDbEntity
  8
View
 62
7
100
AcDbPolyline
 90
3
 70
0
 10
267.400145
 20
141.603731
 30
0.0
 10
267.400145
 20
141.604260
 30
0.0
 10
267.400145
 20
141.604790
 30
0.0
  0
SPLINE
  5
140
100
AcDbEntity
  8
View
 62
7
100
AcDbSpline
 70
8
 71
3
 72
8
 73
4
 74
0
 40
0
 40
0
 40
0
 40
0
 40
1
 40
1
 40
1
 40
1
 10
275.768093
 20
149.972296
 30
0.0
 10
275.988703
 20
149.972296
 30
0.0
 10
276.207328
 20
149.898194
 30
0.0
 10
276.367559
 20
149.755772
 30
0.0
  0
SPLINE
  5
141
100
AcDbEntity
  8
View
 62
7
100
AcDbSpline
 70
8
 71
3
 72
8
 73
4
 74
0
 40
0
 40
0
 40
0
 40
0
 40
1
 40
1
 40
1
 40
1
 10
276.367559
 20
149.755772
 30
0.0
 10
276.527764
 20
149.613349
 30
0.0
 10
276.635741
 20
149.404910
 30
0.0
 10
276.635741
 20
149.104648
 30
0.0
  0
SPLINE
  5
142
100
AcDbEntity
  8
View
 62
7
100
AcDbSpline
 70
8
 71
3
 72
8
 73
4
 74
0
 40
0
 40
0
 40
0
 40
0
 40
1
 40
1
 40
1
 40
1
 10
276.635741
 20
149.104648
 30
0.0
 10
276.635741
 20
148.804388
 30
0.0
 10
276.527764
 20
148.595947
 30
0.0
 10
276.367559
 20
148.453527
 30
0.0
  0
SPLINE
  5
143
100
AcDbEntity
  8
View
 62
7
100
AcDbSpline
 70
8
 71
3
 72
8
 73
4
 74
0
 40
0
 40
0
 40
0
 40
0
 40
1
 40
1
 40
1
 40
1
 10
276.367559
 20
148.453527
 30
0.0
 10
276.207328
 20
148.311105
 30
0.0
 10
275.988703
 20
148.237003
 30
0.0
 10
275.768093
 20
148.237003
 30
0.0
  0
SPLINE
  5
144
100
AcDbEntity
  8
View
 62
7
100
AcDbSpline
 70
8
 71
3
 72
8
 73
4
 74
0
 40
0
 40
0
 40
0
 40
0
 40
1
 40
1
 40
1
 40
1
 10
275.768093
 20
148.237003
 30
0.0
 10
275.547510
 20
148.237003
 30
0.0
 10
275.328356
 20
148.311105
 30
0.0
 10
275.168151
 20
148.453527
 30
0.0
  0
SPLINE
  5
145
100
AcDbEntity
  8
View
 62
7
100
AcDbSpline
 70
8
 71
3
 72
8
 73
4
 74
0
 40
0
 40
0
 40
0
 40
0
 40
1
 40
1
 40
1
 40
1
 10
275.168151
 20
148.453527
 30
0.0
 10
275.007919
 20
148.595947
 30
0.0
 10
274.900445
 20
148.804388
 30
0.0
 10
274.900445
 20
149.104648
 30
0.0
  0
SPLINE
  5
146
100
AcDbEntity
  8
View
 62
7
100
AcDbSpline
 70
8
 71
3
 72
8
 73
4
 74
0
 40
0
 40
0
 40
0
 40
0
 40
1
 40
1
 40
1
 40
1
 10
274.900445
 20
149.104648
 30
0.0
 10
274.900445
 20
149.404910
 30
0.0
 10
275.007919
 20
149.613349
 30
0.0
 10
275.168151
 20
149.755772
 30
0.0
  0
SPLINE
  5
147
100
AcDbEntity
  8
View
 62
7
100
AcDbSpline
 70
8
 71
3
 72
8
 73
4
 74
0
 40
0
 40
0
 40
0
 40
0
 40
1
 40
1
 40
1
 40
1
 10
275.168151
 20
149.755772
 30
0.0
 10
275.328356
 20
149.898194
 30
0.0
 10
275.547510
 20
149.972296
 30
0.0
 10
275.768093
 20
149.972296
 30
0.0
  0
LWPOLYLINE
  5
148
100
AcDbEntity
  8
View
 62
7
100
AcDbPolyline
 90
1
 70
1
 10
268.267793
 20
142.476054
 30
0.0
  0
SPLINE
  5
149
100
AcDbEntity
  8
View
 62
7
100
AcDbSpline
 70
8
 71
3
 72
8
 73
4
 74
0
 40
0
 40
0
 40
0
 40
0
 40
1
 40
1
 40
1
 40
1
 10
126.767938
 20
149.972296
 30
0.0
 10
126.988540
 20
149.972296
 30
0.0
 10
127.207160
 20
149.898194
 30
0.0
 10
127.367383
 20
149.755772
 30
0.0
  0
SPLINE
  5
14a
100
AcDbEntity
  8
View
 62
7
100
AcDbSpline
 70
8
 71
3
 72
8
 73
4
 74
0
 40
0
 40
0
 40
0
 40
0
 40
1
 40
1
 40
1
 40
1
 10
127.367383
 20
149.755772
 30
0.0
 10
127.527607
 20
149.613352
 30
0.0
 10
127.635583
 20
149.404910
 30
0.0
 10
127.635583
 20
149.104648
 30
0.0
  0
SPLINE
  5
14b
100
AcDbEntity
  8
View
 62
7
100
AcDbSpline
 70
8
 71
3
 72
8
 73
4
 74
0
 40
0
 40
0
 40
0
 40
0
 40
1
 40
1
 40
1
 40
1
 10
127.635583
 20
149.104648
 30
0.0
 10
127.635583
 20
148.804388
 30
0.0
 10
127.527607
 20
148.595947
 30
0.0
 10
127.367383
 20
148.453527
 30
0.0
  0
SPLINE
  5
14c
100
AcDbEntity
  8
View
 62
7
100
AcDbSpline
 70
8
 71
3
 72
8
 73
4
 74
0
 40
0
 40
0
 40
0
 40
0
 40
1
 40
1
 40
1
 40
1
 10
127.367383
 20
148.453527
 30
0.0
 10
127.207160
 20
148.311105
 30
0.0
 10
126.988540
 20
148.237003
 30
0.0
 10
126.767938
 20
148.237003
 30
0.0
  0
SPLINE
  5
14d
100
AcDbEntity
  8
View
 62
7
100
AcDbSpline
 70
8
 71
3
 72
8
 73
4
 74
0
 40
0
 40
0
 40
0
 40
0
 40
1
 40
1
 40
1
 40
1
 10
126.767938
 20
148.237003
 30
0.0
 10
126.547336
 20
148.237003
 30
0.0
 10
126.328714
 20
148.311105
 30
0.0
 10
126.168490
 20
148.453527
 30
0.0
  0
SPLINE
  5
14e
100
AcDbEntity
  8
View
 62
7
100
AcDbSpline
 70
8
 71
3
 72
8
 73
4
 74
0
 40
0
 40
0
 40
0
 40
0
 40
1
 40
1
 40
1
 40
1
 10
126.168490
 20
148.453527
 30
0.0
 10
126.008267
 20
148.595947
 30
0.0
 10
125.900290
 20
148.804388
 30
0.0
 10
125.900290
 20
149.104648
 30
0.0
  0
SPLINE
  5
14f
100
AcDbEntity
  8
View
 62
7
100
AcDbSpline
 70
8
 71
3
 72
8
 73
4
 74
0
 40
0
 40
0
 40
0
 40
0
 40
1
 40
1
 40
1
 40
1
 10
125.900290
 20
149.104648
 30
0.0
 10
125.900290
 20
149.404910
 30
0.0
 10
126.008267
 20
149.613352
 30
0.0
 10
126.168490
 20
149.755772
 30
0.0
  0
SPLINE
  5
150
100
AcDbEntity
  8
View
 62
7
100
AcDbSpline
 70
8
 71
3
 72
8
 73
4
 74
0
 40
0
 40
0
 40
0
 40
0
 40
1
 40
1
 40
1
 40
1
 10
126.168490
 20
149.755772
 30
0.0
 10
126.328714
 20
149.898194
 30
0.0
 10
126.547336
 20
149.972296
 30
0.0
 10
126.767938
 20
149.972296
 30
0.0
  0
LWPOLYLINE
  5
151
100
AcDbEntity
  8
View
 62
7
100
AcDbPolyline
 90
1
 70
1
 10
275.768093
 20
149.972296
 30
0.0
  0
SPLINE
  5
152
100
AcDbEntity
  8
View
 62
7
100
AcDbSpline
 70
8
 71
3
 72
8
 73
4
 74
0
 40
0
 40
0
 40
0
 40
0
 40
1
 40
1
 40
1
 40
1
 10
102.018034
 20
199.972330
 30
0.0
 10
102.238636
 20
199.972330
 30
0.0
 10
102.457256
 20
199.898228
 30
0.0
 10
102.617479
 20
199.755806
 30
0.0
  0
SPLINE
  5
153
100
AcDbEntity
  8
View
 62
7
100
AcDbSpline
 70
8
 71
3
 72
8
 73
4
 74
0
 40
0
 40
0
 40
0
 40
0
 40
1
 40
1
 40
1
 40
1
 10
102.617479
 20
199.755806
 30
0.0
 10
102.777703
 20
199.613386
 30
0.0
 10
102.885682
 20
199.404945
 30
0.0
 10
102.885679
 20
199.104685
 30
0.0
  0
SPLINE
  5
154
100
AcDbEntity
  8
View
 62
7
100
AcDbSpline
 70
8
 71
3
 72
8
 73
4
 74
0
 40
0
 40
0
 40
0
 40
0
 40
1
 40
1
 40
1
 40
1
 10
102.885679
 20
199.104685
 30
0.0
 10
102.885682
 20
198.804423
 30
0.0
 10
102.777703
 20
198.595981
 30
0.0
 10
102.617479
 20
198.453561
 30
0.0
  0
SPLINE
  5
155
100
AcDbEntity
  8
View
 62
7
100
AcDbSpline
 70
8
 71
3
 72
8
 73
4
 74
0
 40
0
 40
0
 40
0
 40
0
 40
1
 40
1
 40
1
 40
1
 10
102.617479
 20
198.453561
 30
0.0
 10
102.457256
 20
198.311139
 30
0.0
 10
102.238636
 20
198.236521
 30
0.0
 10
102.018034
 20
198.236521
 30
0.0
  0
SPLINE
  5
156
100
AcDbEntity
  8
View
 62
7
100
AcDbSpline
 70
8
 71
3
 72
8
 73
4
 74
0
 40
0
 40
0
 40
0
 40
0
 40
1
 40
1
 40
1
 40
1
 10
102.018034
 20
198.236521
 30
0.0
 10
101.797433
 20
198.236521
 30
0.0
 10
101.578810
 20
198.311139
 30
0.0
 10
101.418586
 20
198.453561
 30
0.0
  0
SPLINE
  5
157
100
AcDbEntity
  8
View
 62
7
100
AcDbSpline
 70
8
 71
3
 72
8
 73
4
 74
0
 40
0
 40
0
 40
0
 40
0
 40
1
 40
1
 40
1
 40
1
 10
101.418586
 20
198.453561
 30
0.0
 10
101.258363
 20
198.595981
 30
0.0
 10
101.150386
 20
198.804423
 30
0.0
 10
101.150386
 20
199.104685
 30
0.0
  0
SPLINE
  5
158
100
AcDbEntity
  8
View
 62
7
100
AcDbSpline
 70
8
 71
3
 72
8
 73
4
 74
0
 40
0
 40
0
 40
0
 40
0
 40
1
 40
1
 40
1
 40
1
 10
101.150386
 20
199.104685
 30
0.0
 10
101.150386
 20
199.404945
 30
0.0
 10
101.258363
 20
199.613386
 30
0.0
 10
101.418586
 20
199.755806
 30
0.0
  0
SPLINE
  5
159
100
AcDbEntity
  8
View
 62
7
100
AcDbSpline
 70
8
 71
3
 72
8
 73
4
 74
0
 40
0
 40
0
 40
0
 40
0
 40
1
 40
1
 40
1
 40
1
 10
101.418586
 20
199.755806
 30
0.0
 10
101.578810
 20
199.898228
 30
0.0
 10
101.797433
 20
199.972330
 30
0.0
 10
102.018034
 20
199.972330
 30
0.0
  0
LWPOLYLINE
  5
15a
100
AcDbEntity
  8
View
 62
7
100
AcDbPolyline
 90
1
 70
1
 10
126.767938
 20
149.972296
 30
0.0
  0
SPLINE
  5
15b
100
AcDbEntity
  8
View
 62
7
100
AcDbSpline
 70
8
 71
3
 72
8
 73
4
 74
0
 40
0
 40
0
 40
0
 40
0
 40
1
 40
1
 40
1
 40
1
 10
119.517735
 20
199.973389
 30
0.0
 10
119.738535
 20
199.973389
 30
0.0
 10
119.957957
 20
199.899456
 30
0.0
 10
120.118215
 20
199.756864
 30
0.0
  0
SPLINE
  5
15c
100
AcDbEntity
  8
View
 62
7
100
AcDbSpline
 70
8
 71
3
 72
8
 73
4
 74
0
 40
0
 40
0
 40
0
 40
0
 40
1
 40
1
 40
1
 40
1
 10
120.118215
 20
199.756864
 30
0.0
 10
120.278475
 20
199.614272
 30
0.0
 10
120.386277
 20
199.405373
 30
0.0
 10
120.385899
 20
199.104709
 30
0.0
  0
LWPOLYLINE
  5
15d
100
AcDbEntity
  8
View
 62
7
100
AcDbPolyline
 90
1
 70
1
 10
102.018034
 20
199.972330
 30
0.0
  0
SPLINE
  5
15e
100
AcDbEntity
  8
View
 62
7
100
AcDbSpline
 70
8
 71
3
 72
8
 73
4
 74
0
 40
0
 40
0
 40
0
 40
0
 40
1
 40
1
 40
1
 40
1
 10
120.385899
 20
199.104180
 30
0.0
 10
120.386163
 20
198.803515
 30
0.0
 10
120.278475
 20
198.595135
 30
0.0
 10
120.118215
 20
198.452540
 30
0.0
  0
SPLINE
  5
15f
100
AcDbEntity
  8
View
 62
7
100
AcDbSpline
 70
8
 71
3
 72
8
 73
4
 74
0
 40
0
 40
0
 40
0
 40
0
 40
1
 40
1
 40
1
 40
1
 10
120.118215
 20
198.452540
 30
0.0
 10
119.957957
 20
198.309948
 30
0.0
 10
119.738535
 20
198.235500
 30
0.0
 10
119.517735
 20
198.235500
 30
0.0
  0
SPLINE
  5
160
100
AcDbEntity
  8
View
 62
7
100
AcDbSpline
 70
8
 71
3
 72
8
 73
4
 74
0
 40
0
 40
0
 40
0
 40
0
 40
1
 40
1
 40
1
 40
1
 10
119.517735
 20
198.235500
 30
0.0
 10
119.296938
 20
198.235500
 30
0.0
 10
119.078032
 20
198.309948
 30
0.0
 10
118.917771
 20
198.452540
 30
0.0
  0
SPLINE
  5
161
100
AcDbEntity
  8
View
 62
7
100
AcDbSpline
 70
8
 71
3
 72
8
 73
4
 74
0
 40
0
 40
0
 40
0
 40
0
 40
1
 40
1
 40
1
 40
1
 10
118.917771
 20
198.452540
 30
0.0
 10
118.757513
 20
198.595135
 30
0.0
 10
118.649709
 20
198.803515
 30
0.0
 10
118.650090
 20
199.104180
 30
0.0
  0
LWPOLYLINE
  5
162
100
AcDbEntity
  8
View
 62
7
100
AcDbPolyline
 90
2
 70
0
 10
120.385899
 20
199.104709
 30
0.0
 10
120.385899
 20
199.104180
 30
0.0
  0
SPLINE
  5
163
100
AcDbEntity
  8
View
 62
7
100
AcDbSpline
 70
8
 71
3
 72
8
 73
4
 74
0
 40
0
 40
0
 40
0
 40
0
 40
1
 40
1
 40
1
 40
1
 10
118.650090
 20
199.104709
 30
0.0
 10
118.649825
 20
199.405373
 30
0.0
 10
118.757513
 20
199.614272
 30
0.0
 10
118.917771
 20
199.756864
 30
0.0
  0
SPLINE
  5
164
100
AcDbEntity
  8
View
 62
7
100
AcDbSpline
 70
8
 71
3
 72
8
 73
4
 74
0
 40
0
 40
0
 40
0
 40
0
 40
1
 40
1
 40
1
 40
1
 10
118.917771
 20
199.756864
 30
0.0
 10
119.078032
 20
199.899456
 30
0.0
 10
119.296938
 20
199.973389
 30
0.0
 10
119.517735
 20
199.973389
 30
0.0
  0
LWPOLYLINE
  5
165
100
AcDbEntity
  8
View
 62
7
100
AcDbPolyline
 90
2
 70
0
 10
118.650090
 20
199.104180
 30
0.0
 10
118.650090
 20
199.104709
 30
0.0
  0
SPLINE
  5
166
100
AcDbEntity
  8
View
 62
7
100
AcDbSpline
 70
8
 71
3
 72
8
 73
4
 74
0
 40
0
 40
0
 40
0
 40
0
 40
1
 40
1
 40
1
 40
1
 10
297.017965
 20
199.976034
 30
0.0
 10
297.239157
 20
199.976034
 30
0.0
 10
297.458629
 20
199.901422
 30
0.0
 10
297.618966
 20
199.758475
 30
0.0
  0
SPLINE
  5
167
100
AcDbEntity
  8
View
 62
7
100
AcDbSpline
 70
8
 71
3
 72
8
 73
4
 74
0
 40
0
 40
0
 40
0
 40
0
 40
1
 40
1
 40
1
 40
1
 10
297.618966
 20
199.758475
 30
0.0
 10
297.779304
 20
199.615529
 30
0.0
 10
297.886777
 20
199.406786
 30
0.0
 10
297.885613
 20
199.105286
 30
0.0
  0
LWPOLYLINE
  5
168
100
AcDbEntity
  8
View
 62
7
100
AcDbPolyline
 90
1
 70
1
 10
119.517735
 20
199.973389
 30
0.0
  0
SPLINE
  5
169
100
AcDbEntity
  8
View
 62
7
100
AcDbSpline
 70
8
 71
3
 72
8
 73
4
 74
0
 40
0
 40
0
 40
0
 40
0
 40
1
 40
1
 40
1
 40
1
 10
297.885613
 20
199.104227
 30
0.0
 10
297.885613
 20
198.802727
 30
0.0
 10
297.779304
 20
198.593468
 30
0.0
 10
297.618966
 20
198.450521
 30
0.0
  0
SPLINE
  5
16a
100
AcDbEntity
  8
View
 62
7
100
AcDbSpline
 70
8
 71
3
 72
8
 73
4
 74
0
 40
0
 40
0
 40
0
 40
0
 40
1
 40
1
 40
1
 40
1
 10
297.618966
 20
198.450521
 30
0.0
 10
297.458629
 20
198.307575
 30
0.0
 10
297.239157
 20
198.232962
 30
0.0
 10
297.017965
 20
198.232962
 30
0.0
  0
SPLINE
  5
16b
100
AcDbEntity
  8
View
 62
7
100
AcDbSpline
 70
8
 71
3
 72
8
 73
4
 74
0
 40
0
 40
0
 40
0
 40
0
 40
1
 40
1
 40
1
 40
1
 10
297.017965
 20
198.232962
 30
0.0
 10
296.796747
 20
198.232962
 30
0.0
 10
296.577302
 20
198.307575
 30
0.0
 10
296.416964
 20
198.450521
 30
0.0
  0
SPLINE
  5
16c
100
AcDbEntity
  8
View
 62
7
100
AcDbSpline
 70
8
 71
3
 72
8
 73
4
 74
0
 40
0
 40
0
 40
0
 40
0
 40
1
 40
1
 40
1
 40
1
 10
296.416964
 20
198.450521
 30
0.0
 10
296.256627
 20
198.593468
 30
0.0
 10
296.149153
 20
198.802727
 30
0.0
 10
296.150317
 20
199.104227
 30
0.0
  0
LWPOLYLINE
  5
16d
100
AcDbEntity
  8
View
 62
7
100
AcDbPolyline
 90
3
 70
0
 10
297.885613
 20
199.105286
 30
0.0
 10
297.885613
 20
199.104756
 30
0.0
 10
297.885613
 20
199.104227
 30
0.0
  0
SPLINE
  5
16e
100
AcDbEntity
  8
View
 62
7
100
AcDbSpline
 70
8
 71
3
 72
8
 73
4
 74
0
 40
0
 40
0
 40
0
 40
0
 40
1
 40
1
 40
1
 40
1
 10
296.150317
 20
199.105286
 30
0.0
 10
296.150317
 20
199.406786
 30
0.0
 10
296.256627
 20
199.615529
 30
0.0
 10
296.416964
 20
199.758475
 30
0.0
  0
SPLINE
  5
16f
100
AcDbEntity
  8
View
 62
7
100
AcDbSpline
 70
8
 71
3
 72
8
 73
4
 74
0
 40
0
 40
0
 40
0
 40
0
 40
1
 40
1
 40
1
 40
1
 10
296.416964
 20
199.758475
 30
0.0
 10
296.577302
 20
199.901422
 30
0.0
 10
296.796747
 20
199.976032
 30
0.0
 10
297.017965
 20
199.976034
 30
0.0
  0
LWPOLYLINE
  5
170
100
AcDbEntity
  8
View
 62
7
100
AcDbPolyline
 90
3
 70
0
 10
296.150317
 20
199.104227
 30
0.0
 10
296.150317
 20
199.104756
 30
0.0
 10
296.150317
 20
199.105286
 30
0.0
  0
SPLINE
  5
171
100
AcDbEntity
  8
View
 62
7
100
AcDbSpline
 70
8
 71
3
 72
8
 73
4
 74
0
 40
0
 40
0
 40
0
 40
0
 40
1
 40
1
 40
1
 40
1
 10
279.517741
 20
199.976034
 30
0.0
 10
279.738959
 20
199.976032
 30
0.0
 10
279.958404
 20
199.901422
 30
0.0
 10
280.118741
 20
199.758475
 30
0.0
  0
SPLINE
  5
172
100
AcDbEntity
  8
View
 62
7
100
AcDbSpline
 70
8
 71
3
 72
8
 73
4
 74
0
 40
0
 40
0
 40
0
 40
0
 40
1
 40
1
 40
1
 40
1
 10
280.118741
 20
199.758475
 30
0.0
 10
280.279079
 20
199.615529
 30
0.0
 10
280.386553
 20
199.406786
 30
0.0
 10
280.385388
 20
199.105286
 30
0.0
  0
LWPOLYLINE
  5
173
100
AcDbEntity
  8
View
 62
7
100
AcDbPolyline
 90
1
 70
1
 10
297.017965
 20
199.976034
 30
0.0
  0
SPLINE
  5
174
100
AcDbEntity
  8
View
 62
7
100
AcDbSpline
 70
8
 71
3
 72
8
 73
4
 74
0
 40
0
 40
0
 40
0
 40
0
 40
1
 40
1
 40
1
 40
1
 10
280.385388
 20
199.104227
 30
0.0
 10
280.385388
 20
198.802727
 30
0.0
 10
280.279079
 20
198.593468
 30
0.0
 10
280.118741
 20
198.450521
 30
0.0
  0
SPLINE
  5
175
100
AcDbEntity
  8
View
 62
7
100
AcDbSpline
 70
8
 71
3
 72
8
 73
4
 74
0
 40
0
 40
0
 40
0
 40
0
 40
1
 40
1
 40
1
 40
1
 10
280.118741
 20
198.450521
 30
0.0
 10
279.958404
 20
198.307575
 30
0.0
 10
279.738959
 20
198.232962
 30
0.0
 10
279.517741
 20
198.232962
 30
0.0
  0
SPLINE
  5
176
100
AcDbEntity
  8
View
 62
7
100
AcDbSpline
 70
8
 71
3
 72
8
 73
4
 74
0
 40
0
 40
0
 40
0
 40
0
 40
1
 40
1
 40
1
 40
1
 10
279.517741
 20
198.232962
 30
0.0
 10
279.296549
 20
198.232962
 30
0.0
 10
279.077606
 20
198.307575
 30
0.0
 10
278.917269
 20
198.450521
 30
0.0
  0
SPLINE
  5
177
100
AcDbEntity
  8
View
 62
7
100
AcDbSpline
 70
8
 71
3
 72
8
 73
4
 74
0
 40
0
 40
0
 40
0
 40
0
 40
1
 40
1
 40
1
 40
1
 10
278.917269
 20
198.450521
 30
0.0
 10
278.756931
 20
198.593468
 30
0.0
 10
278.648928
 20
198.802727
 30
0.0
 10
278.650093
 20
199.104227
 30
0.0
  0
LWPOLYLINE
  5
178
100
AcDbEntity
  8
View
 62
7
100
AcDbPolyline
 90
3
 70
0
 10
280.385388
 20
199.105286
 30
0.0
 10
280.385388
 20
199.104756
 30
0.0
 10
280.385388
 20
199.104227
 30
0.0
  0
SPLINE
  5
179
100
AcDbEntity
  8
View
 62
7
100
AcDbSpline
 70
8
 71
3
 72
8
 73
4
 74
0
 40
0
 40
0
 40
0
 40
0
 40
1
 40
1
 40
1
 40
1
 10
278.650093
 20
199.105286
 30
0.0
 10
278.650093
 20
199.406786
 30
0.0
 10
278.756931
 20
199.615529
 30
0.0
 10
278.917269
 20
199.758475
 30
0.0
  0
SPLINE
  5
17a
100
AcDbEntity
  8
View
 62
7
100
AcDbSpline
 70
8
 71
3
 72
8
 73
4
 74
0
 40
0
 40
0
 40
0
 40
0
 40
1
 40
1
 40
1
 40
1
 10
278.917269
 20
199.758475
 30
0.0
 10
279.077606
 20
199.901422
 30
0.0
 10
279.296549
 20
199.976034
 30
0.0
 10
279.517741
 20
199.976034
 30
0.0
  0
LWPOLYLINE
  5
17b
100
AcDbEntity
  8
View
 62
7
100
AcDbPolyline
 90
3
 70
0
 10
278.650093
 20
199.104227
 30
0.0
 10
278.650093
 20
199.104756
 30
0.0
 10
278.650093
 20
199.105286
 30
0.0
  0
SPLINE
  5
17c
100
AcDbEntity
  8
View
 62
7
100
AcDbSpline
 70
8
 71
3
 72
8
 73
4
 74
0
 40
0
 40
0
 40
0
 40
0
 40
1
 40
1
 40
1
 40
1
 10
110.767885
 20
215.372589
 30
0.0
 10
115.059433
 20
215.372589
 30
0.0
 10
118.535885
 20
211.896143
 30
0.0
 10
118.535885
 20
207.604591
 30
0.0
  0
SPLINE
  5
17d
100
AcDbEntity
  8
View
 62
7
100
AcDbSpline
 70
8
 71
3
 72
8
 73
4
 74
0
 40
0
 40
0
 40
0
 40
0
 40
1
 40
1
 40
1
 40
1
 10
118.535885
 20
207.604591
 30
0.0
 10
118.535885
 20
203.313038
 30
0.0
 10
115.059433
 20
199.837107
 30
0.0
 10
110.767885
 20
199.837107
 30
0.0
  0
SPLINE
  5
17e
100
AcDbEntity
  8
View
 62
7
100
AcDbSpline
 70
8
 71
3
 72
8
 73
4
 74
0
 40
0
 40
0
 40
0
 40
0
 40
1
 40
1
 40
1
 40
1
 10
110.767885
 20
199.837107
 30
0.0
 10
106.476336
 20
199.837107
 30
0.0
 10
103.000403
 20
203.313038
 30
0.0
 10
103.000403
 20
207.604591
 30
0.0
  0
SPLINE
  5
17f
100
AcDbEntity
  8
View
 62
7
100
AcDbSpline
 70
8
 71
3
 72
8
 73
4
 74
0
 40
0
 40
0
 40
0
 40
0
 40
1
 40
1
 40
1
 40
1
 10
103.000403
 20
207.604591
 30
0.0
 10
103.000403
 20
211.896143
 30
0.0
 10
106.476336
 20
215.372589
 30
0.0
 10
110.767885
 20
215.372589
 30
0.0
  0
LWPOLYLINE
  5
180
100
AcDbEntity
  8
View
 62
7
100
AcDbPolyline
 90
1
 70
1
 10
279.517741
 20
199.976034
 30
0.0
  0
SPLINE
  5
181
100
AcDbEntity
  8
View
 62
7
100
AcDbSpline
 70
8
 71
3
 72
8
 73
4
 74
0
 40
0
 40
0
 40
0
 40
0
 40
1
 40
1
 40
1
 40
1
 10
288.268117
 20
215.380844
 30
0.0
 10
292.562992
 20
215.380844
 30
0.0
 10
296.040304
 20
211.899463
 30
0.0
 10
296.035594
 20
207.604578
 30
0.0
  0
SPLINE
  5
182
100
AcDbEntity
  8
View
 62
7
100
AcDbSpline
 70
8
 71
3
 72
8
 73
4
 74
0
 40
0
 40
0
 40
0
 40
0
 40
1
 40
1
 40
1
 40
1
 10
296.035594
 20
207.604578
 30
0.0
 10
296.040357
 20
203.309691
 30
0.0
 10
292.562992
 20
199.828310
 30
0.0
 10
288.268117
 20
199.828310
 30
0.0
  0
SPLINE
  5
183
100
AcDbEntity
  8
View
 62
7
100
AcDbSpline
 70
8
 71
3
 72
8
 73
4
 74
0
 40
0
 40
0
 40
0
 40
0
 40
1
 40
1
 40
1
 40
1
 10
288.268117
 20
199.828310
 30
0.0
 10
283.973217
 20
199.828310
 30
0.0
 10
280.495402
 20
203.309691
 30
0.0
 10
280.500112
 20
207.604578
 30
0.0
  0
SPLINE
  5
184
100
AcDbEntity
  8
View
 62
7
100
AcDbSpline
 70
8
 71
3
 72
8
 73
4
 74
0
 40
0
 40
0
 40
0
 40
0
 40
1
 40
1
 40
1
 40
1
 10
280.500112
 20
207.604578
 30
0.0
 10
280.495349
 20
211.899463
 30
0.0
 10
283.973217
 20
215.380844
 30
0.0
 10
288.268117
 20
215.380844
 30
0.0
  0
LWPOLYLINE
  5
185
100
AcDbEntity
  8
View
 62
7
100
AcDbPolyline
 90
1
 70
1
 10
110.767885
 20
215.372589
 30
0.0
  0
LWPOLYLINE
  5
186
100
AcDbEntity
  8
View
 62
7
100
AcDbPolyline
 90
1
 70
1
 10
288.268117
 20
215.380844
 30
0.0
  0
LWPOLYLINE
  5
187
100
AcDbEntity
  8
View
 62
7
100
AcDbPolyline
 90
4
 70
1
 10
293.549967
 20
225.222606
 30
0.0
 10
296.886176
 20
225.222606
 30
0.0
 10
296.886176
 20
215.486768
 30
0.0
 10
293.549967
 20
215.486768
 30
0.0
  0
SPLINE
  5
188
100
AcDbEntity
  8
View
 62
7
100
AcDbSpline
 70
8
 71
3
 72
8
 73
4
 74
0
 40
0
 40
0
 40
0
 40
0
 40
1
 40
1
 40
1
 40
1
 10
110.767885
 20
240.872290
 30
0.0
 10
115.059433
 20
240.872290
 30
0.0
 10
118.535885
 20
237.396360
 30
0.0
 10
118.535885
 20
233.104808
 30
0.0
  0
SPLINE
  5
189
100
AcDbEntity
  8
View
 62
7
100
AcDbSpline
 70
8
 71
3
 72
8
 73
4
 74
0
 40
0
 40
0
 40
0
 40
0
 40
1
 40
1
 40
1
 40
1
 10
118.535885
 20
233.104808
 30
0.0
 10
118.535885
 20
228.813257
 30
0.0
 10
115.059433
 20
225.336811
 30
0.0
 10
110.767885
 20
225.336811
 30
0.0
  0
SPLINE
  5
18a
100
AcDbEntity
  8
View
 62
7
100
AcDbSpline
 70
8
 71
3
 72
8
 73
4
 74
0
 40
0
 40
0
 40
0
 40
0
 40
1
 40
1
 40
1
 40
1
 10
110.767885
 20
225.336811
 30
0.0
 10
106.476336
 20
225.336811
 30
0.0
 10
103.000403
 20
228.813257
 30
0.0
 10
103.000403
 20
233.104808
 30
0.0
  0
SPLINE
  5
18b
100
AcDbEntity
  8
View
 62
7
100
AcDbSpline
 70
8
 71
3
 72
8
 73
4
 74
0
 40
0
 40
0
 40
0
 40
0
 40
1
 40
1
 40
1
 40
1
 10
103.000403
 20
233.104808
 30
0.0
 10
103.000403
 20
237.396360
 30
0.0
 10
106.476336
 20
240.872290
 30
0.0
 10
110.767885
 20
240.872290
 30
0.0
  0
LWPOLYLINE
  5
18c
100
AcDbEntity
  8
View
 62
7
100
AcDbPolyline
 90
4
 70
1
 10
101.750350
 20
225.222606
 30
0.0
 10
105.085546
 20
225.222606
 30
0.0
 10
105.085546
 20
215.486768
 30
0.0
 10
101.750350
 20
215.486768
 30
0.0
  0
SPLINE
  5
18d
100
AcDbEntity
  8
View
 62
7
100
AcDbSpline
 70
8
 71
3
 72
8
 73
4
 74
0
 40
0
 40
0
 40
0
 40
0
 40
1
 40
1
 40
1
 40
1
 10
288.268117
 20
240.881075
 30
0.0
 10
292.562992
 20
240.881075
 30
0.0
 10
296.040304
 20
237.399691
 30
0.0
 10
296.035594
 20
233.104806
 30
0.0
  0
LWPOLYLINE
  5
18e
100
AcDbEntity
  8
View
 62
7
100
AcDbPolyline
 90
1
 70
1
 10
110.767885
 20
240.872290
 30
0.0
  0
SPLINE
  5
18f
100
AcDbEntity
  8
View
 62
7
100
AcDbSpline
 70
8
 71
3
 72
8
 73
4
 74
0
 40
0
 40
0
 40
0
 40
0
 40
1
 40
1
 40
1
 40
1
 10
296.035594
 20
233.104277
 30
0.0
 10
296.040357
 20
228.809392
 30
0.0
 10
292.562992
 20
225.328008
 30
0.0
 10
288.268117
 20
225.328008
 30
0.0
  0
SPLINE
  5
190
100
AcDbEntity
  8
View
 62
7
100
AcDbSpline
 70
8
 71
3
 72
8
 73
4
 74
0
 40
0
 40
0
 40
0
 40
0
 40
1
 40
1
 40
1
 40
1
 10
288.268117
 20
225.328008
 30
0.0
 10
283.973217
 20
225.328008
 30
0.0
 10
280.495402
 20
228.809392
 30
0.0
 10
280.500112
 20
233.104277
 30
0.0
  0
LWPOLYLINE
  5
191
100
AcDbEntity
  8
View
 62
7
100
AcDbPolyline
 90
2
 70
0
 10
296.035594
 20
233.104806
 30
0.0
 10
296.035594
 20
233.104277
 30
0.0
  0
SPLINE
  5
192
100
AcDbEntity
  8
View
 62
7
100
AcDbSpline
 70
8
 71
3
 72
8
 73
4
 74
0
 40
0
 40
0
 40
0
 40
0
 40
1
 40
1
 40
1
 40
1
 10
280.500112
 20
233.104806
 30
0.0
 10
280.495349
 20
237.399691
 30
0.0
 10
283.973217
 20
240.881075
 30
0.0
 10
288.268117
 20
240.881075
 30
0.0
  0
LWPOLYLINE
  5
193
100
AcDbEntity
  8
View
 62
7
100
AcDbPolyline
 90
2
 70
0
 10
280.500112
 20
233.104277
 30
0.0
 10
280.500112
 20
233.104806
 30
0.0
  0
SPLINE
  5
194
100
AcDbEntity
  8
View
 62
7
100
AcDbSpline
 70
8
 71
3
 72
8
 73
4
 74
0
 40
0
 40
0
 40
0
 40
0
 40
1
 40
1
 40
1
 40
1
 10
102.018034
 20
242.472188
 30
0.0
 10
102.238636
 20
242.472188
 30
0.0
 10
102.457256
 20
242.398084
 30
0.0
 10
102.617479
 20
242.255664
 30
0.0
  0
SPLINE
  5
195
100
AcDbEntity
  8
View
 62
7
100
AcDbSpline
 70
8
 71
3
 72
8
 73
4
 74
0
 40
0
 40
0
 40
0
 40
0
 40
1
 40
1
 40
1
 40
1
 10
102.617479
 20
242.255664
 30
0.0
 10
102.777703
 20
242.113244
 30
0.0
 10
102.885679
 20
241.904800
 30
0.0
 10
102.885679
 20
241.604540
 30
0.0
  0
SPLINE
  5
196
100
AcDbEntity
  8
View
 62
7
100
AcDbSpline
 70
8
 71
3
 72
8
 73
4
 74
0
 40
0
 40
0
 40
0
 40
0
 40
1
 40
1
 40
1
 40
1
 10
102.885679
 20
241.604540
 30
0.0
 10
102.885679
 20
241.304281
 30
0.0
 10
102.777703
 20
241.095839
 30
0.0
 10
102.617479
 20
240.953420
 30
0.0
  0
SPLINE
  5
197
100
AcDbEntity
  8
View
 62
7
100
AcDbSpline
 70
8
 71
3
 72
8
 73
4
 74
0
 40
0
 40
0
 40
0
 40
0
 40
1
 40
1
 40
1
 40
1
 10
102.617479
 20
240.953420
 30
0.0
 10
102.457256
 20
240.810997
 30
0.0
 10
102.238636
 20
240.736895
 30
0.0
 10
102.018034
 20
240.736895
 30
0.0
  0
SPLINE
  5
198
100
AcDbEntity
  8
View
 62
7
100
AcDbSpline
 70
8
 71
3
 72
8
 73
4
 74
0
 40
0
 40
0
 40
0
 40
0
 40
1
 40
1
 40
1
 40
1
 10
102.018034
 20
240.736895
 30
0.0
 10
101.797433
 20
240.736895
 30
0.0
 10
101.578810
 20
240.810997
 30
0.0
 10
101.418586
 20
240.953420
 30
0.0
  0
SPLINE
  5
199
100
AcDbEntity
  8
View
 62
7
100
AcDbSpline
 70
8
 71
3
 72
8
 73
4
 74
0
 40
0
 40
0
 40
0
 40
0
 40
1
 40
1
 40
1
 40
1
 10
101.418586
 20
240.953420
 30
0.0
 10
101.258363
 20
241.095839
 30
0.0
 10
101.150386
 20
241.304281
 30
0.0
 10
101.150386
 20
241.604540
 30
0.0
  0
SPLINE
  5
19a
100
AcDbEntity
  8
View
 62
7
100
AcDbSpline
 70
8
 71
3
 72
8
 73
4
 74
0
 40
0
 40
0
 40
0
 40
0
 40
1
 40
1
 40
1
 40
1
 10
101.150386
 20
241.604540
 30
0.0
 10
101.150386
 20
241.904800
 30
0.0
 10
101.258363
 20
242.113244
 30
0.0
 10
101.418586
 20
242.255664
 30
0.0
  0
SPLINE
  5
19b
100
AcDbEntity
  8
View
 62
7
100
AcDbSpline
 70
8
 71
3
 72
8
 73
4
 74
0
 40
0
 40
0
 40
0
 40
0
 40
1
 40
1
 40
1
 40
1
 10
101.418586
 20
242.255664
 30
0.0
 10
101.578810
 20
242.398084
 30
0.0
 10
101.797433
 20
242.472188
 30
0.0
 10
102.018034
 20
242.472188
 30
0.0
  0
LWPOLYLINE
  5
19c
100
AcDbEntity
  8
View
 62
7
100
AcDbPolyline
 90
1
 70
1
 10
288.268117
 20
240.881075
 30
0.0
  0
SPLINE
  5
19d
100
AcDbEntity
  8
View
 62
7
100
AcDbSpline
 70
8
 71
3
 72
8
 73
4
 74
0
 40
0
 40
0
 40
0
 40
0
 40
1
 40
1
 40
1
 40
1
 10
119.517735
 20
242.473776
 30
0.0
 10
119.738535
 20
242.473776
 30
0.0
 10
119.957957
 20
242.399327
 30
0.0
 10
120.118215
 20
242.256735
 30
0.0
  0
SPLINE
  5
19e
100
AcDbEntity
  8
View
 62
7
100
AcDbSpline
 70
8
 71
3
 72
8
 73
4
 74
0
 40
0
 40
0
 40
0
 40
0
 40
1
 40
1
 40
1
 40
1
 10
120.118215
 20
242.256735
 30
0.0
 10
120.278475
 20
242.114141
 30
0.0
 10
120.386277
 20
241.905245
 30
0.0
 10
120.385899
 20
241.604577
 30
0.0
  0
SPLINE
  5
19f
100
AcDbEntity
  8
View
 62
7
100
AcDbSpline
 70
8
 71
3
 72
8
 73
4
 74
0
 40
0
 40
0
 40
0
 40
0
 40
1
 40
1
 40
1
 40
1
 10
120.385899
 20
241.604577
 30
0.0
 10
120.386163
 20
241.303913
 30
0.0
 10
120.278475
 20
241.095014
 30
0.0
 10
120.118215
 20
240.952422
 30
0.0
  0
SPLINE
  5
1a0
100
AcDbEntity
  8
View
 62
7
100
AcDbSpline
 70
8
 71
3
 72
8
 73
4
 74
0
 40
0
 40
0
 40
0
 40
0
 40
1
 40
1
 40
1
 40
1
 10
120.118215
 20
240.952422
 30
0.0
 10
119.957957
 20
240.809828
 30
0.0
 10
119.738535
 20
240.735898
 30
0.0
 10
119.517735
 20
240.735898
 30
0.0
  0
SPLINE
  5
1a1
100
AcDbEntity
  8
View
 62
7
100
AcDbSpline
 70
8
 71
3
 72
8
 73
4
 74
0
 40
0
 40
0
 40
0
 40
0
 40
1
 40
1
 40
1
 40
1
 10
119.517735
 20
240.735898
 30
0.0
 10
119.296938
 20
240.735898
 30
0.0
 10
119.078032
 20
240.809828
 30
0.0
 10
118.917771
 20
240.952422
 30
0.0
  0
SPLINE
  5
1a2
100
AcDbEntity
  8
View
 62
7
100
AcDbSpline
 70
8
 71
3
 72
8
 73
4
 74
0
 40
0
 40
0
 40
0
 40
0
 40
1
 40
1
 40
1
 40
1
 10
118.917771
 20
240.952422
 30
0.0
 10
118.757513
 20
241.095014
 30
0.0
 10
118.649709
 20
241.303913
 30
0.0
 10
118.650090
 20
241.604577
 30
0.0
  0
SPLINE
  5
1a3
100
AcDbEntity
  8
View
 62
7
100
AcDbSpline
 70
8
 71
3
 72
8
 73
4
 74
0
 40
0
 40
0
 40
0
 40
0
 40
1
 40
1
 40
1
 40
1
 10
118.650090
 20
241.604577
 30
0.0
 10
118.649825
 20
241.905245
 30
0.0
 10
118.757513
 20
242.114141
 30
0.0
 10
118.917771
 20
242.256735
 30
0.0
  0
SPLINE
  5
1a4
100
AcDbEntity
  8
View
 62
7
100
AcDbSpline
 70
8
 71
3
 72
8
 73
4
 74
0
 40
0
 40
0
 40
0
 40
0
 40
1
 40
1
 40
1
 40
1
 10
118.917771
 20
242.256735
 30
0.0
 10
119.078032
 20
242.399327
 30
0.0
 10
119.296938
 20
242.473776
 30
0.0
 10
119.517735
 20
242.473776
 30
0.0
  0
LWPOLYLINE
  5
1a5
100
AcDbEntity
  8
View
 62
7
100
AcDbPolyline
 90
1
 70
1
 10
102.018034
 20
242.472188
 30
0.0
  0
SPLINE
  5
1a6
100
AcDbEntity
  8
View
 62
7
100
AcDbSpline
 70
8
 71
3
 72
8
 73
4
 74
0
 40
0
 40
0
 40
0
 40
0
 40
1
 40
1
 40
1
 40
1
 10
297.017965
 20
242.476422
 30
0.0
 10
297.239157
 20
242.476422
 30
0.0
 10
297.458629
 20
242.401812
 30
0.0
 10
297.618966
 20
242.258865
 30
0.0
  0
SPLINE
  5
1a7
100
AcDbEntity
  8
View
 62
7
100
AcDbSpline
 70
8
 71
3
 72
8
 73
4
 74
0
 40
0
 40
0
 40
0
 40
0
 40
1
 40
1
 40
1
 40
1
 10
297.618966
 20
242.258865
 30
0.0
 10
297.779304
 20
242.115919
 30
0.0
 10
297.886777
 20
241.906660
 30
0.0
 10
297.885613
 20
241.605160
 30
0.0
  0
LWPOLYLINE
  5
1a8
100
AcDbEntity
  8
View
 62
7
100
AcDbPolyline
 90
1
 70
1
 10
119.517735
 20
242.473776
 30
0.0
  0
SPLINE
  5
1a9
100
AcDbEntity
  8
View
 62
7
100
AcDbSpline
 70
8
 71
3
 72
8
 73
4
 74
0
 40
0
 40
0
 40
0
 40
0
 40
1
 40
1
 40
1
 40
1
 10
297.885613
 20
241.604101
 30
0.0
 10
297.885613
 20
241.302601
 30
0.0
 10
297.779304
 20
241.093342
 30
0.0
 10
297.618966
 20
240.950395
 30
0.0
  0
SPLINE
  5
1aa
100
AcDbEntity
  8
View
 62
7
100
AcDbSpline
 70
8
 71
3
 72
8
 73
4
 74
0
 40
0
 40
0
 40
0
 40
0
 40
1
 40
1
 40
1
 40
1
 10
297.618966
 20
240.950395
 30
0.0
 10
297.458629
 20
240.807446
 30
0.0
 10
297.239157
 20
240.733352
 30
0.0
 10
297.017965
 20
240.733352
 30
0.0
  0
SPLINE
  5
1ab
100
AcDbEntity
  8
View
 62
7
100
AcDbSpline
 70
8
 71
3
 72
8
 73
4
 74
0
 40
0
 40
0
 40
0
 40
0
 40
1
 40
1
 40
1
 40
1
 10
297.017965
 20
240.733352
 30
0.0
 10
296.796747
 20
240.733352
 30
0.0
 10
296.577302
 20
240.807446
 30
0.0
 10
296.416964
 20
240.950395
 30
0.0
  0
SPLINE
  5
1ac
100
AcDbEntity
  8
View
 62
7
100
AcDbSpline
 70
8
 71
3
 72
8
 73
4
 74
0
 40
0
 40
0
 40
0
 40
0
 40
1
 40
1
 40
1
 40
1
 10
296.416964
 20
240.950395
 30
0.0
 10
296.256627
 20
241.093342
 30
0.0
 10
296.149153
 20
241.302601
 30
0.0
 10
296.150317
 20
241.604101
 30
0.0
  0
LWPOLYLINE
  5
1ad
100
AcDbEntity
  8
View
 62
7
100
AcDbPolyline
 90
3
 70
0
 10
297.885613
 20
241.605160
 30
0.0
 10
297.885613
 20
241.604630
 30
0.0
 10
297.885613
 20
241.604101
 30
0.0
  0
SPLINE
  5
1ae
100
AcDbEntity
  8
View
 62
7
100
AcDbSpline
 70
8
 71
3
 72
8
 73
4
 74
0
 40
0
 40
0
 40
0
 40
0
 40
1
 40
1
 40
1
 40
1
 10
296.150317
 20
241.605160
 30
0.0
 10
296.150317
 20
241.906660
 30
0.0
 10
296.256627
 20
242.115919
 30
0.0
 10
296.416964
 20
242.258865
 30
0.0
  0
SPLINE
  5
1af
100
AcDbEntity
  8
View
 62
7
100
AcDbSpline
 70
8
 71
3
 72
8
 73
4
 74
0
 40
0
 40
0
 40
0
 40
0
 40
1
 40
1
 40
1
 40
1
 10
296.416964
 20
242.258865
 30
0.0
 10
296.577302
 20
242.401812
 30
0.0
 10
296.796747
 20
242.476422
 30
0.0
 10
297.017965
 20
242.476422
 30
0.0
  0
LWPOLYLINE
  5
1b0
100
AcDbEntity
  8
View
 62
7
100
AcDbPolyline
 90
3
 70
0
 10
296.150317
 20
241.604101
 30
0.0
 10
296.150317
 20
241.604630
 30
0.0
 10
296.150317
 20
241.605160
 30
0.0
  0
SPLINE
  5
1b1
100
AcDbEntity
  8
View
 62
7
100
AcDbSpline
 70
8
 71
3
 72
8
 73
4
 74
0
 40
0
 40
0
 40
0
 40
0
 40
1
 40
1
 40
1
 40
1
 10
279.517741
 20
242.476422
 30
0.0
 10
279.738959
 20
242.476422
 30
0.0
 10
279.958404
 20
242.401812
 30
0.0
 10
280.118741
 20
242.258865
 30
0.0
  0
SPLINE
  5
1b2
100
AcDbEntity
  8
View
 62
7
100
AcDbSpline
 70
8
 71
3
 72
8
 73
4
 74
0
 40
0
 40
0
 40
0
 40
0
 40
1
 40
1
 40
1
 40
1
 10
280.118741
 20
242.258865
 30
0.0
 10
280.279079
 20
242.115919
 30
0.0
 10
280.386553
 20
241.906660
 30
0.0
 10
280.385388
 20
241.605160
 30
0.0
  0
LWPOLYLINE
  5
1b3
100
AcDbEntity
  8
View
 62
7
100
AcDbPolyline
 90
1
 70
1
 10
297.017965
 20
242.476422
 30
0.0
  0
SPLINE
  5
1b4
100
AcDbEntity
  8
View
 62
7
100
AcDbSpline
 70
8
 71
3
 72
8
 73
4
 74
0
 40
0
 40
0
 40
0
 40
0
 40
1
 40
1
 40
1
 40
1
 10
280.385388
 20
241.604101
 30
0.0
 10
280.385388
 20
241.302601
 30
0.0
 10
280.279079
 20
241.093342
 30
0.0
 10
280.118741
 20
240.950395
 30
0.0
  0
SPLINE
  5
1b5
100
AcDbEntity
  8
View
 62
7
100
AcDbSpline
 70
8
 71
3
 72
8
 73
4
 74
0
 40
0
 40
0
 40
0
 40
0
 40
1
 40
1
 40
1
 40
1
 10
280.118741
 20
240.950395
 30
0.0
 10
279.958404
 20
240.807446
 30
0.0
 10
279.738959
 20
240.733352
 30
0.0
 10
279.517741
 20
240.733352
 30
0.0
  0
SPLINE
  5
1b6
100
AcDbEntity
  8
View
 62
7
100
AcDbSpline
 70
8
 71
3
 72
8
 73
4
 74
0
 40
0
 40
0
 40
0
 40
0
 40
1
 40
1
 40
1
 40
1
 10
279.517741
 20
240.733352
 30
0.0
 10
279.296549
 20
240.733352
 30
0.0
 10
279.077606
 20
240.807446
 30
0.0
 10
278.917269
 20
240.950395
 30
0.0
  0
SPLINE
  5
1b7
100
AcDbEntity
  8
View
 62
7
100
AcDbSpline
 70
8
 71
3
 72
8
 73
4
 74
0
 40
0
 40
0
 40
0
 40
0
 40
1
 40
1
 40
1
 40
1
 10
278.917269
 20
240.950395
 30
0.0
 10
278.756931
 20
241.093342
 30
0.0
 10
278.648928
 20
241.302601
 30
0.0
 10
278.650093
 20
241.604101
 30
0.0
  0
LWPOLYLINE
  5
1b8
100
AcDbEntity
  8
View
 62
7
100
AcDbPolyline
 90
3
 70
0
 10
280.385388
 20
241.605160
 30
0.0
 10
280.385388
 20
241.604630
 30
0.0
 10
280.385388
 20
241.604101
 30
0.0
  0
SPLINE
  5
1b9
100
AcDbEntity
  8
View
 62
7
100
AcDbSpline
 70
8
 71
3
 72
8
 73
4
 74
0
 40
0
 40
0
 40
0
 40
0
 40
1
 40
1
 40
1
 40
1
 10
278.650093
 20
241.605160
 30
0.0
 10
278.650093
 20
241.906660
 30
0.0
 10
278.756931
 20
242.115919
 30
0.0
 10
278.917269
 20
242.258865
 30
0.0
  0
SPLINE
  5
1ba
100
AcDbEntity
  8
View
 62
7
100
AcDbSpline
 70
8
 71
3
 72
8
 73
4
 74
0
 40
0
 40
0
 40
0
 40
0
 40
1
 40
1
 40
1
 40
1
 10
278.917269
 20
242.258865
 30
0.0
 10
279.077606
 20
242.401812
 30
0.0
 10
279.296549
 20
242.476422
 30
0.0
 10
279.517741
 20
242.476422
 30
0.0
  0
LWPOLYLINE
  5
1bb
100
AcDbEntity
  8
View
 62
7
100
AcDbPolyline
 90
3
 70
0
 10
278.650093
 20
241.604101
 30
0.0
 10
278.650093
 20
241.604630
 30
0.0
 10
278.650093
 20
241.605160
 30
0.0
  0
SPLINE
  5
1bc
100
AcDbEntity
  8
View
 62
7
100
AcDbSpline
 70
8
 71
3
 72
8
 73
4
 74
0
 40
0
 40
0
 40
0
 40
0
 40
1
 40
1
 40
1
 40
1
 10
275.768093
 20
376.972670
 30
0.0
 10
275.988703
 20
376.972670
 30
0.0
 10
276.207328
 20
376.898566
 30
0.0
 10
276.367559
 20
376.756146
 30
0.0
  0
SPLINE
  5
1bd
100
AcDbEntity
  8
View
 62
7
100
AcDbSpline
 70
8
 71
3
 72
8
 73
4
 74
0
 40
0
 40
0
 40
0
 40
0
 40
1
 40
1
 40
1
 40
1
 10
276.367559
 20
376.756146
 30
0.0
 10
276.527764
 20
376.613723
 30
0.0
 10
276.635741
 20
376.405284
 30
0.0
 10
276.635741
 20
376.105022
 30
0.0
  0
SPLINE
  5
1be
100
AcDbEntity
  8
View
 62
7
100
AcDbSpline
 70
8
 71
3
 72
8
 73
4
 74
0
 40
0
 40
0
 40
0
 40
0
 40
1
 40
1
 40
1
 40
1
 10
276.635741
 20
376.105022
 30
0.0
 10
276.635741
 20
375.804760
 30
0.0
 10
276.527764
 20
375.596321
 30
0.0
 10
276.367559
 20
375.453899
 30
0.0
  0
SPLINE
  5
1bf
100
AcDbEntity
  8
View
 62
7
100
AcDbSpline
 70
8
 71
3
 72
8
 73
4
 74
0
 40
0
 40
0
 40
0
 40
0
 40
1
 40
1
 40
1
 40
1
 10
276.367559
 20
375.453899
 30
0.0
 10
276.207328
 20
375.311476
 30
0.0
 10
275.988703
 20
375.236858
 30
0.0
 10
275.768093
 20
375.236858
 30
0.0
  0
SPLINE
  5
1c0
100
AcDbEntity
  8
View
 62
7
100
AcDbSpline
 70
8
 71
3
 72
8
 73
4
 74
0
 40
0
 40
0
 40
0
 40
0
 40
1
 40
1
 40
1
 40
1
 10
275.768093
 20
375.236858
 30
0.0
 10
275.547510
 20
375.236858
 30
0.0
 10
275.328356
 20
375.311476
 30
0.0
 10
275.168151
 20
375.453899
 30
0.0
  0
SPLINE
  5
1c1
100
AcDbEntity
  8
View
 62
7
100
AcDbSpline
 70
8
 71
3
 72
8
 73
4
 74
0
 40
0
 40
0
 40
0
 40
0
 40
1
 40
1
 40
1
 40
1
 10
275.168151
 20
375.453899
 30
0.0
 10
275.007919
 20
375.596321
 30
0.0
 10
274.900445
 20
375.804760
 30
0.0
 10
274.900445
 20
376.105022
 30
0.0
  0
SPLINE
  5
1c2
100
AcDbEntity
  8
View
 62
7
100
AcDbSpline
 70
8
 71
3
 72
8
 73
4
 74
0
 40
0
 40
0
 40
0
 40
0
 40
1
 40
1
 40
1
 40
1
 10
274.900445
 20
376.105022
 30
0.0
 10
274.900445
 20
376.405284
 30
0.0
 10
275.007919
 20
376.613723
 30
0.0
 10
275.168151
 20
376.756146
 30
0.0
  0
SPLINE
  5
1c3
100
AcDbEntity
  8
View
 62
7
100
AcDbSpline
 70
8
 71
3
 72
8
 73
4
 74
0
 40
0
 40
0
 40
0
 40
0
 40
1
 40
1
 40
1
 40
1
 10
275.168151
 20
376.756146
 30
0.0
 10
275.328356
 20
376.898566
 30
0.0
 10
275.547510
 20
376.972670
 30
0.0
 10
275.768093
 20
376.972670
 30
0.0
  0
LWPOLYLINE
  5
1c4
100
AcDbEntity
  8
View
 62
7
100
AcDbPolyline
 90
1
 70
1
 10
279.517741
 20
242.476422
 30
0.0
  0
SPLINE
  5
1c5
100
AcDbEntity
  8
View
 62
7
100
AcDbSpline
 70
8
 71
3
 72
8
 73
4
 74
0
 40
0
 40
0
 40
0
 40
0
 40
1
 40
1
 40
1
 40
1
 10
126.767938
 20
376.972670
 30
0.0
 10
126.988540
 20
376.972670
 30
0.0
 10
127.207160
 20
376.898566
 30
0.0
 10
127.367383
 20
376.756146
 30
0.0
  0
SPLINE
  5
1c6
100
AcDbEntity
  8
View
 62
7
100
AcDbSpline
 70
8
 71
3
 72
8
 73
4
 74
0
 40
0
 40
0
 40
0
 40
0
 40
1
 40
1
 40
1
 40
1
 10
127.367383
 20
376.756146
 30
0.0
 10
127.527607
 20
376.613723
 30
0.0
 10
127.635583
 20
376.405282
 30
0.0
 10
127.635583
 20
376.105022
 30
0.0
  0
SPLINE
  5
1c7
100
AcDbEntity
  8
View
 62
7
100
AcDbSpline
 70
8
 71
3
 72
8
 73
4
 74
0
 40
0
 40
0
 40
0
 40
0
 40
1
 40
1
 40
1
 40
1
 10
127.635583
 20
376.105022
 30
0.0
 10
127.635583
 20
375.804762
 30
0.0
 10
127.527607
 20
375.596321
 30
0.0
 10
127.367383
 20
375.453899
 30
0.0
  0
SPLINE
  5
1c8
100
AcDbEntity
  8
View
 62
7
100
AcDbSpline
 70
8
 71
3
 72
8
 73
4
 74
0
 40
0
 40
0
 40
0
 40
0
 40
1
 40
1
 40
1
 40
1
 10
127.367383
 20
375.453899
 30
0.0
 10
127.207160
 20
375.311479
 30
0.0
 10
126.988540
 20
375.236858
 30
0.0
 10
126.767938
 20
375.236858
 30
0.0
  0
SPLINE
  5
1c9
100
AcDbEntity
  8
View
 62
7
100
AcDbSpline
 70
8
 71
3
 72
8
 73
4
 74
0
 40
0
 40
0
 40
0
 40
0
 40
1
 40
1
 40
1
 40
1
 10
126.767938
 20
375.236858
 30
0.0
 10
126.547336
 20
375.236858
 30
0.0
 10
126.328714
 20
375.311479
 30
0.0
 10
126.168490
 20
375.453899
 30
0.0
  0
SPLINE
  5
1ca
100
AcDbEntity
  8
View
 62
7
100
AcDbSpline
 70
8
 71
3
 72
8
 73
4
 74
0
 40
0
 40
0
 40
0
 40
0
 40
1
 40
1
 40
1
 40
1
 10
126.168490
 20
375.453899
 30
0.0
 10
126.008267
 20
375.596321
 30
0.0
 10
125.900290
 20
375.804762
 30
0.0
 10
125.900290
 20
376.105022
 30
0.0
  0
SPLINE
  5
1cb
100
AcDbEntity
  8
View
 62
7
100
AcDbSpline
 70
8
 71
3
 72
8
 73
4
 74
0
 40
0
 40
0
 40
0
 40
0
 40
1
 40
1
 40
1
 40
1
 10
125.900290
 20
376.105022
 30
0.0
 10
125.900290
 20
376.405282
 30
0.0
 10
126.008267
 20
376.613723
 30
0.0
 10
126.168490
 20
376.756146
 30
0.0
  0
SPLINE
  5
1cc
100
AcDbEntity
  8
View
 62
7
100
AcDbSpline
 70
8
 71
3
 72
8
 73
4
 74
0
 40
0
 40
0
 40
0
 40
0
 40
1
 40
1
 40
1
 40
1
 10
126.168490
 20
376.756146
 30
0.0
 10
126.328714
 20
376.898566
 30
0.0
 10
126.547336
 20
376.972670
 30
0.0
 10
126.767938
 20
376.972670
 30
0.0
  0
LWPOLYLINE
  5
1cd
100
AcDbEntity
  8
View
 62
7
100
AcDbPolyline
 90
1
 70
1
 10
275.768093
 20
376.972670
 30
0.0
  0
LWPOLYLINE
  5
1ce
100
AcDbEntity
  8
View
 62
7
100
AcDbPolyline
 90
1
 70
1
 10
126.767938
 20
376.972670
 30
0.0
  0
LWPOLYLINE
  5
1cf
100
AcDbEntity
  8
View
 62
7
100
AcDbPolyline
 90
4
 70
1
 10
133.900317
 20
377.972607
 30
0.0
 10
262.635574
 20
377.972607
 30
0.0
 10
262.635574
 20
149.237400
 30
0.0
 10
133.900317
 20
149.237400
 30
0.0
  0
SPLINE
  5
1d0
100
AcDbEntity
  8
View
 62
7
100
AcDbSpline
 70
8
 71
3
 72
8
 73
4
 74
0
 40
0
 40
0
 40
0
 40
0
 40
1
 40
1
 40
1
 40
1
 10
134.267736
 20
384.473500
 30
0.0
 10
134.488536
 20
384.473502
 30
0.0
 10
134.707955
 20
384.399570
 30
0.0
 10
134.868215
 20
384.256978
 30
0.0
  0
SPLINE
  5
1d1
100
AcDbEntity
  8
View
 62
7
100
AcDbSpline
 70
8
 71
3
 72
8
 73
4
 74
0
 40
0
 40
0
 40
0
 40
0
 40
1
 40
1
 40
1
 40
1
 10
134.868215
 20
384.256978
 30
0.0
 10
135.028476
 20
384.114383
 30
0.0
 10
135.136278
 20
383.905487
 30
0.0
 10
135.135900
 20
383.604820
 30
0.0
  0
SPLINE
  5
1d2
100
AcDbEntity
  8
View
 62
7
100
AcDbSpline
 70
8
 71
3
 72
8
 73
4
 74
0
 40
0
 40
0
 40
0
 40
0
 40
1
 40
1
 40
1
 40
1
 10
135.135900
 20
383.604820
 30
0.0
 10
135.136164
 20
383.304155
 30
0.0
 10
135.028476
 20
383.095256
 30
0.0
 10
134.868215
 20
382.952664
 30
0.0
  0
SPLINE
  5
1d3
100
AcDbEntity
  8
View
 62
7
100
AcDbSpline
 70
8
 71
3
 72
8
 73
4
 74
0
 40
0
 40
0
 40
0
 40
0
 40
1
 40
1
 40
1
 40
1
 10
134.868215
 20
382.952664
 30
0.0
 10
134.707955
 20
382.810070
 30
0.0
 10
134.488536
 20
382.735624
 30
0.0
 10
134.267736
 20
382.735624
 30
0.0
  0
SPLINE
  5
1d4
100
AcDbEntity
  8
View
 62
7
100
AcDbSpline
 70
8
 71
3
 72
8
 73
4
 74
0
 40
0
 40
0
 40
0
 40
0
 40
1
 40
1
 40
1
 40
1
 10
134.267736
 20
382.735624
 30
0.0
 10
134.046936
 20
382.735624
 30
0.0
 10
133.828033
 20
382.810070
 30
0.0
 10
133.667772
 20
382.952664
 30
0.0
  0
SPLINE
  5
1d5
100
AcDbEntity
  8
View
 62
7
100
AcDbSpline
 70
8
 71
3
 72
8
 73
4
 74
0
 40
0
 40
0
 40
0
 40
0
 40
1
 40
1
 40
1
 40
1
 10
133.667772
 20
382.952664
 30
0.0
 10
133.507511
 20
383.095256
 30
0.0
 10
133.399710
 20
383.304155
 30
0.0
 10
133.400088
 20
383.604820
 30
0.0
  0
SPLINE
  5
1d6
100
AcDbEntity
  8
View
 62
7
100
AcDbSpline
 70
8
 71
3
 72
8
 73
4
 74
0
 40
0
 40
0
 40
0
 40
0
 40
1
 40
1
 40
1
 40
1
 10
133.400088
 20
383.604820
 30
0.0
 10
133.399823
 20
383.905487
 30
0.0
 10
133.507511
 20
384.114383
 30
0.0
 10
133.667772
 20
384.256978
 30
0.0
  0
SPLINE
  5
1d7
100
AcDbEntity
  8
View
 62
7
100
AcDbSpline
 70
8
 71
3
 72
8
 73
4
 74
0
 40
0
 40
0
 40
0
 40
0
 40
1
 40
1
 40
1
 40
1
 10
133.667772
 20
384.256978
 30
0.0
 10
133.828033
 20
384.399570
 30
0.0
 10
134.046936
 20
384.473500
 30
0.0
 10
134.267736
 20
384.473500
 30
0.0
  0
LWPOLYLINE
  5
1d8
100
AcDbEntity
  8
View
 62
7
100
AcDbPolyline
 90
4
 70
1
 10
129.900562
 20
380.972423
 30
0.0
 10
272.634448
 20
380.972423
 30
0.0
 10
272.634448
 20
144.237192
 30
0.0
 10
129.900562
 20
144.237192
 30
0.0
  0
SPLINE
  5
1d9
100
AcDbEntity
  8
View
 62
7
100
AcDbSpline
 70
8
 71
3
 72
8
 73
4
 74
0
 40
0
 40
0
 40
0
 40
0
 40
1
 40
1
 40
1
 40
1
 10
268.267793
 20
384.476145
 30
0.0
 10
268.488984
 20
384.476145
 30
0.0
 10
268.708456
 20
384.402051
 30
0.0
 10
268.868794
 20
384.259105
 30
0.0
  0
SPLINE
  5
1da
100
AcDbEntity
  8
View
 62
7
100
AcDbSpline
 70
8
 71
3
 72
8
 73
4
 74
0
 40
0
 40
0
 40
0
 40
0
 40
1
 40
1
 40
1
 40
1
 10
268.868794
 20
384.259105
 30
0.0
 10
269.029131
 20
384.116159
 30
0.0
 10
269.136605
 20
383.906900
 30
0.0
 10
269.135441
 20
383.605397
 30
0.0
  0
LWPOLYLINE
  5
1db
100
AcDbEntity
  8
View
 62
7
100
AcDbPolyline
 90
1
 70
1
 10
134.267736
 20
384.473500
 30
0.0
  0
SPLINE
  5
1dc
100
AcDbEntity
  8
View
 62
7
100
AcDbSpline
 70
8
 71
3
 72
8
 73
4
 74
0
 40
0
 40
0
 40
0
 40
0
 40
1
 40
1
 40
1
 40
1
 10
269.135441
 20
383.604338
 30
0.0
 10
269.135441
 20
383.302838
 30
0.0
 10
269.029131
 20
383.093579
 30
0.0
 10
268.868794
 20
382.950632
 30
0.0
  0
SPLINE
  5
1dd
100
AcDbEntity
  8
View
 62
7
100
AcDbSpline
 70
8
 71
3
 72
8
 73
4
 74
0
 40
0
 40
0
 40
0
 40
0
 40
1
 40
1
 40
1
 40
1
 10
268.868794
 20
382.950632
 30
0.0
 10
268.708456
 20
382.807683
 30
0.0
 10
268.488984
 20
382.733074
 30
0.0
 10
268.267793
 20
382.733074
 30
0.0
  0
SPLINE
  5
1de
100
AcDbEntity
  8
View
 62
7
100
AcDbSpline
 70
8
 71
3
 72
8
 73
4
 74
0
 40
0
 40
0
 40
0
 40
0
 40
1
 40
1
 40
1
 40
1
 10
268.267793
 20
382.733074
 30
0.0
 10
268.046575
 20
382.733074
 30
0.0
 10
267.827129
 20
382.807683
 30
0.0
 10
267.666792
 20
382.950632
 30
0.0
  0
SPLINE
  5
1df
100
AcDbEntity
  8
View
 62
7
100
AcDbSpline
 70
8
 71
3
 72
8
 73
4
 74
0
 40
0
 40
0
 40
0
 40
0
 40
1
 40
1
 40
1
 40
1
 10
267.666792
 20
382.950632
 30
0.0
 10
267.506454
 20
383.093579
 30
0.0
 10
267.398981
 20
383.302838
 30
0.0
 10
267.400145
 20
383.604338
 30
0.0
  0
LWPOLYLINE
  5
1e0
100
AcDbEntity
  8
View
 62
7
100
AcDbPolyline
 90
3
 70
0
 10
269.135441
 20
383.605397
 30
0.0
 10
269.135441
 20
383.604867
 30
0.0
 10
269.135441
 20
383.604338
 30
0.0
  0
SPLINE
  5
1e1
100
AcDbEntity
  8
View
 62
7
100
AcDbSpline
 70
8
 71
3
 72
8
 73
4
 74
0
 40
0
 40
0
 40
0
 40
0
 40
1
 40
1
 40
1
 40
1
 10
267.400145
 20
383.605397
 30
0.0
 10
267.400145
 20
383.906900
 30
0.0
 10
267.506454
 20
384.116159
 30
0.0
 10
267.666792
 20
384.259105
 30
0.0
  0
SPLINE
  5
1e2
100
AcDbEntity
  8
View
 62
7
100
AcDbSpline
 70
8
 71
3
 72
8
 73
4
 74
0
 40
0
 40
0
 40
0
 40
0
 40
1
 40
1
 40
1
 40
1
 10
267.666792
 20
384.259105
 30
0.0
 10
267.827129
 20
384.402051
 30
0.0
 10
268.046575
 20
384.476145
 30
0.0
 10
268.267793
 20
384.476145
 30
0.0
  0
LWPOLYLINE
  5
1e3
100
AcDbEntity
  8
View
 62
7
100
AcDbPolyline
 90
3
 70
0
 10
267.400145
 20
383.604338
 30
0.0
 10
267.400145
 20
383.604867
 30
0.0
 10
267.400145
 20
383.605397
 30
0.0
  0
LWPOLYLINE
  5
1e4
100
AcDbEntity
  8
View
 62
7
100
AcDbPolyline
 90
1
 70
1
 10
268.267793
 20
384.476145
 30
0.0
  0
LWPOLYLINE
  5
1e5
100
AcDbEntity
  8
View
 62
7
100
AcDbPolyline
 90
196
 70
1
 10
108.400071
 20
392.972327
 30
0.0
 10
128.135812
 20
392.972327
 30
0.0
 10
128.135812
 20
390.104802
 30
0.0
 10
128.268104
 20
390.104802
 30
0.0
 10
128.268104
 20
389.972511
 30
0.0
 10
148.267910
 20
389.972511
 30
0.0
 10
148.267910
 20
390.104802
 30
0.0
 10
148.400202
 20
390.104802
 30
0.0
 10
148.400202
 20
392.972327
 30
0.0
 10
168.135943
 20
392.972327
 30
0.0
 10
168.135943
 20
390.104802
 30
0.0
 10
168.268235
 20
390.104802
 30
0.0
 10
168.268235
 20
389.972511
 30
0.0
 10
188.268041
 20
389.972511
 30
0.0
 10
188.268041
 20
390.104802
 30
0.0
 10
188.400333
 20
390.104802
 30
0.0
 10
188.400333
 20
392.972327
 30
0.0
 10
208.135558
 20
392.972327
 30
0.0
 10
208.135558
 20
390.104802
 30
0.0
 10
208.267850
 20
390.104802
 30
0.0
 10
208.267850
 20
389.972511
 30
0.0
 10
228.267656
 20
389.972511
 30
0.0
 10
228.267656
 20
390.104802
 30
0.0
 10
228.399948
 20
390.104802
 30
0.0
 10
228.399948
 20
392.972327
 30
0.0
 10
248.135690
 20
392.972327
 30
0.0
 10
248.135690
 20
390.104802
 30
0.0
 10
248.267981
 20
390.104802
 30
0.0
 10
248.267981
 20
389.972511
 30
0.0
 10
268.268825
 20
389.972511
 30
0.0
 10
268.268825
 20
390.104802
 30
0.0
 10
268.401116
 20
390.104802
 30
0.0
 10
268.401116
 20
392.972327
 30
0.0
 10
288.136329
 20
392.972327
 30
0.0
 10
288.136329
 20
390.104802
 30
0.0
 10
288.268620
 20
390.104802
 30
0.0
 10
288.268620
 20
389.972511
 30
0.0
 10
305.135803
 20
389.972511
 30
0.0
 10
305.135803
 20
373.094993
 30
0.0
 10
305.268095
 20
373.094993
 30
0.0
 10
305.268095
 20
372.962702
 30
0.0
 10
308.136151
 20
372.962702
 30
0.0
 10
308.136151
 20
353.237295
 30
0.0
 10
305.268095
 20
353.237295
 30
0.0
 10
305.268095
 20
353.105003
 30
0.0
 10
305.135803
 20
353.105003
 30
0.0
 10
305.135803
 20
333.105197
 30
0.0
 10
305.268095
 20
333.105197
 30
0.0
 10
305.268095
 20
332.972905
 30
0.0
 10
308.136151
 20
332.972905
 30
0.0
 10
308.136151
 20
313.237164
 30
0.0
 10
305.268095
 20
313.237164
 30
0.0
 10
305.268095
 20
313.104872
 30
0.0
 10
305.135803
 20
313.104872
 30
0.0
 10
305.135803
 20
293.105065
 30
0.0
 10
305.268095
 20
293.105065
 30
0.0
 10
305.268095
 20
292.972773
 30
0.0
 10
308.136151
 20
292.972773
 30
0.0
 10
308.136151
 20
273.237033
 30
0.0
 10
305.268095
 20
273.237033
 30
0.0
 10
305.268095
 20
273.104741
 30
0.0
 10
305.135803
 20
273.104741
 30
0.0
 10
305.135803
 20
253.104935
 30
0.0
 10
305.268095
 20
253.104935
 30
0.0
 10
305.268095
 20
252.972643
 30
0.0
 10
308.136151
 20
252.972643
 30
0.0
 10
308.136151
 20
233.237418
 30
0.0
 10
305.268095
 20
233.237418
 30
0.0
 10
305.268095
 20
233.105126
 30
0.0
 10
305.135803
 20
233.105126
 30
0.0
 10
305.135803
 20
213.105320
 30
0.0
 10
305.268095
 20
213.105320
 30
0.0
 10
305.268095
 20
212.973028
 30
0.0
 10
308.136151
 20
212.973028
 30
0.0
 10
308.136151
 20
193.237287
 30
0.0
 10
305.268095
 20
193.237287
 30
0.0
 10
305.268095
 20
193.104995
 30
0.0
 10
305.135803
 20
193.104995
 30
0.0
 10
305.135803
 20
173.104673
 30
0.0
 10
305.268095
 20
173.104673
 30
0.0
 10
305.268095
 20
172.972381
 30
0.0
 10
308.136151
 20
172.972381
 30
0.0
 10
308.136151
 20
153.237156
 30
0.0
 10
305.268095
 20
153.237156
 30
0.0
 10
305.268095
 20
153.104864
 30
0.0
 10
305.135803
 20
153.104864
 30
0.0
 10
305.135803
 20
133.105058
 30
0.0
 10
305.268095
 20
133.105058
 30
0.0
 10
305.268095
 20
132.972766
 30
0.0
 10
308.136151
 20
132.972766
 30
0.0
 10
308.136151
 20
113.247359
 30
0.0
 10
305.268095
 20
113.247359
 30
0.0
 10
305.268095
 20
113.115068
 30
0.0
 10
305.135803
 20
113.115068
 30
0.0
 10
305.135803
 20
96.237550
 30
0.0
 10
288.268620
 20
96.237550
 30
0.0
 10
288.268620
 20
96.105259
 30
0.0
 10
288.136329
 20
96.105259
 30
0.0
 10
288.136329
 20
93.237218
 30
0.0
 10
268.401116
 20
93.237218
 30
0.0
 10
268.401116
 20
96.105259
 30
0.0
 10
268.268825
 20
96.105259
 30
0.0
 10
268.268825
 20
96.237550
 30
0.0
 10
248.267981
 20
96.237550
 30
0.0
 10
248.267981
 20
96.105259
 30
0.0
 10
248.135690
 20
96.105259
 30
0.0
 10
248.135690
 20
93.237218
 30
0.0
 10
228.399948
 20
93.237218
 30
0.0
 10
228.399948
 20
96.105259
 30
0.0
 10
228.267656
 20
96.105259
 30
0.0
 10
228.267656
 20
96.237550
 30
0.0
 10
208.267850
 20
96.237550
 30
0.0
 10
208.267850
 20
96.105259
 30
0.0
 10
208.135558
 20
96.105259
 30
0.0
 10
208.135558
 20
93.237218
 30
0.0
 10
188.400333
 20
93.237218
 30
0.0
 10
188.400333
 20
96.105259
 30
0.0
 10
188.268041
 20
96.105259
 30
0.0
 10
188.268041
 20
96.237550
 30
0.0
 10
168.268235
 20
96.237550
 30
0.0
 10
168.268235
 20
96.105259
 30
0.0
 10
168.135943
 20
96.105259
 30
0.0
 10
168.135943
 20
93.237218
 30
0.0
 10
148.400202
 20
93.237218
 30
0.0
 10
148.400202
 20
96.105259
 30
0.0
 10
148.267910
 20
96.105259
 30
0.0
 10
148.267910
 20
96.237550
 30
0.0
 10
128.268104
 20
96.237550
 30
0.0
 10
128.268104
 20
96.105259
 30
0.0
 10
128.135812
 20
96.105259
 30
0.0
 10
128.135812
 20
93.237218
 30
0.0
 10
108.400071
 20
93.237218
 30
0.0
 10
108.400071
 20
96.105259
 30
0.0
 10
108.267779
 20
96.105259
 30
0.0
 10
108.267779
 20
96.237550
 30
0.0
 10
91.400080
 20
96.237550
 30
0.0
 10
91.400080
 20
116.114883
 30
0.0
 10
91.267789
 20
116.114883
 30
0.0
 10
91.267789
 20
116.247175
 30
0.0
 10
88.400265
 20
116.247175
 30
0.0
 10
88.400265
 20
132.972766
 30
0.0
 10
91.267789
 20
132.972766
 30
0.0
 10
91.267789
 20
133.105058
 30
0.0
 10
91.400080
 20
133.105058
 30
0.0
 10
91.400080
 20
153.104864
 30
0.0
 10
91.267789
 20
153.104864
 30
0.0
 10
91.267789
 20
153.237156
 30
0.0
 10
88.400265
 20
153.237156
 30
0.0
 10
88.400265
 20
172.972381
 30
0.0
 10
91.267789
 20
172.972381
 30
0.0
 10
91.267789
 20
173.104673
 30
0.0
 10
91.400080
 20
173.104673
 30
0.0
 10
91.400080
 20
193.104995
 30
0.0
 10
91.267789
 20
193.104995
 30
0.0
 10
91.267789
 20
193.237287
 30
0.0
 10
88.400265
 20
193.237287
 30
0.0
 10
88.400265
 20
212.973028
 30
0.0
 10
91.267789
 20
212.973028
 30
0.0
 10
91.267789
 20
213.105320
 30
0.0
 10
91.400080
 20
213.105320
 30
0.0
 10
91.400080
 20
233.105126
 30
0.0
 10
91.267789
 20
233.105126
 30
0.0
 10
91.267789
 20
233.237418
 30
0.0
 10
88.400265
 20
233.237418
 30
0.0
 10
88.400265
 20
252.972643
 30
0.0
 10
91.267789
 20
252.972643
 30
0.0
 10
91.267789
 20
253.104935
 30
0.0
 10
91.400080
 20
253.104935
 30
0.0
 10
91.400080
 20
273.104741
 30
0.0
 10
91.267789
 20
273.104741
 30
0.0
 10
91.267789
 20
273.237033
 30
0.0
 10
88.400265
 20
273.237033
 30
0.0
 10
88.400265
 20
292.972773
 30
0.0
 10
91.267789
 20
292.972773
 30
0.0
 10
91.267789
 20
293.105065
 30
0.0
 10
91.400080
 20
293.105065
 30
0.0
 10
91.400080
 20
313.104872
 30
0.0
 10
91.267789
 20
313.104872
 30
0.0
 10
91.267789
 20
313.237164
 30
0.0
 10
88.400265
 20
313.237164
 30
0.0
 10
88.400265
 20
332.972905
 30
0.0
 10
91.267789
 20
332.972905
 30
0.0
 10
91.267789
 20
333.105197
 30
0.0
 10
91.400080
 20
333.105197
 30
0.0
 10
91.400080
 20
353.105003
 30
0.0
 10
91.267789
 20
353.105003
 30
0.0
 10
91.267789
 20
353.237295
 30
0.0
 10
88.400265
 20
353.237295
 30
0.0
 10
88.400265
 20
372.962702
 30
0.0
 10
91.267789
 20
372.962702
 30
0.0
 10
91.267789
 20
373.094993
 30
0.0
 10
91.400080
 20
373.094993
 30
0.0
 10
91.400080
 20
389.972511
 30
0.0
 10
108.267779
 20
389.972511
 30
0.0
 10
108.267779
 20
390.104802
 30
0.0
 10
108.400071
 20
390.104802
 30
0.0
  0
ENDSEC
  0
SECTION
  2
OBJECTS
  0
DICTIONARY
  5
C
330
0
100
AcDbDictionary
  3
ACAD_GROUP
350
D
  3
ACAD_MLINESTYLE
350
17
  0
DICTIONARY
  5
D
330
C
100
AcDbDictionary
  0
DICTIONARY
  5
1A
330
C
100
AcDbDictionary
  0
DICTIONARY
  5
17
330
C
100
AcDbDictionary
  3
STANDARD
350
18
  0
DICTIONARY
  5
19
330
C
100
AcDbDictionary
  0
ENDSEC
  0
EOF
