999
FreeCAD v0.19 24366 (Git)
  0
SECTION
  2
HEADER
  9
$ACADVER
  1
AC1014
  9
$ACADMAINTVER
 70
     9
  9
$DWGCODEPAGE
  3
ANSI_1252
  9
$TEXTSTYLE
  7
STANDARD
  9
$DIMSTYLE
  2
STANDARD
  9
$DIMTXSTY
  7
STANDARD
  9
$CMLSTYLE
  2
STANDARD
  9
$PEXTMAX
 10
50
 20
50
 30
50
  9
$PEXTMIN
 10
0
 20
0
 30
0
  9
$HANDSEED
  5
FFFF
  0
ENDSEC
  0
SECTION
  2
CLASSES
  0
CLASS
  1
ACDBDICTIONARYWDFLT
  2
AcDbDictionaryWithDefault
  3
ObjectDBX Classes
 90
        0
280
     0
281
     0
  0
CLASS
  1
XRECORD
  2
AcDbXrecord
  3
ObjectDBX Classes
 90
        0
280
     0
281
     0
  0
CLASS
  1
LWPOLYLINE
  2
AcDbPolyline
  3
ObjectDBX Classes
 90
        0
280
     0
281
     1
  0
ENDSEC
  0
SECTION
  2
TABLES
  0
TABLE
  2
VPORT
  5
20
330
0
100
AcDbSymbolTable
 70
     1
  0
VPORT
  5
21
330
20
100
AcDbSymbolTableRecord
100
AcDbViewportTableRecord
  2
*ACTIVE
 70
     0
  0
ENDTAB
  0
TABLE
  2
LTYPE
  5
22
330
0
100
AcDbSymbolTable
 70
     1
  0
LTYPE
  5
23
330
21
100
AcDbSymbolTableRecord
100
AcDbLinetypeTableRecord
  2
BYBLOCK
 70
     0
  3

 72
    65
 73
     0
 40
0.0
  0
LTYPE
  5
24
330
21
100
AcDbSymbolTableRecord
100
AcDbLinetypeTableRecord
  2
BYLAYER
 70
     0
  3

 72
    65
 73
     0
 40
0.0
  0
LTYPE
  5
25
330
21
100
AcDbSymbolTableRecord
100
AcDbLinetypeTableRecord
  2
CONTINUOUS
 70
     0
  3
Solid line
 72
    65
 73
     0
 40
0.0
  0
ENDTAB
  0
TABLE
  2
LAYER
  5
AA9
330
0
100
AcDbSymbolTable
 70
6
  0
LAYER
  5
AAA
330
AA9
100
AcDbSymbolTableRecord
100
AcDbLayerTableRecord
  2
0
 70
   0
 62
   7
  6
CONTINUOUS
  0
LAYER
  5
AAB
330
AA9
100
AcDbSymbolTableRecord
100
AcDbLayerTableRecord
  2
none
 70
    0
 62
    7
  6
CONTINUOUS
  0
LAYER
  5
AAC
330
AA9
100
AcDbSymbolTableRecord
100
AcDbLayerTableRecord
  2
Sketch
 70
    0
 62
    7
  6
CONTINUOUS
  0
LAYER
  5
AAD
330
AA9
100
AcDbSymbolTableRecord
100
AcDbLayerTableRecord
  2
Sketch001
 70
    0
 62
    7
  6
CONTINUOUS
  0
LAYER
  5
AAE
330
AA9
100
AcDbSymbolTableRecord
100
AcDbLayerTableRecord
  2
Sketch002
 70
    0
 62
    7
  6
CONTINUOUS
  0
LAYER
  5
AAF
330
AA9
100
AcDbSymbolTableRecord
100
AcDbLayerTableRecord
  2
Sketch003
 70
    0
 62
    7
  6
CONTINUOUS
  0
ENDTAB
  0
TABLE
  2
STYLE
  5
70
330
0
100
AcDbSymbolTable
 70
     2
  0
STYLE
  5
71
330
70
100
AcDbSymbolTableRecord
100
AcDbTextStyleTableRecord
  2
STANDARD
 70
     0
 40
0.0
 41
1.0
 50
0.0
 71
     0
 42
2.5
  3
arial.ttf
  4

  0
STYLE
  5
72
330
70
100
AcDbSymbolTableRecord
100
AcDbTextStyleTableRecord
  2
ANNOTATIVE
 70
     0
 40
0.0
 41
1.0
 50
0.0
 71
     0
 42
2.5
  3
arial.ttf
  4

  0
ENDTAB
  0
TABLE
  2
VIEW
  5
73
330
0
100
AcDbSymbolTable
 70
     0
  0
ENDTAB
  0
TABLE
  2
UCS
  5
74
330
0
100
AcDbSymbolTable
 70
     0
  0
ENDTAB
  0
TABLE
  2
APPID
  5
75
330
0
100
AcDbSymbolTable
 70
     2
  0
APPID
  5
76
330
75
100
AcDbSymbolTableRecord
100
AcDbRegAppTableRecord
  2
ACAD
 70
     0
  0
APPID
  5
77
330
75
100
AcDbSymbolTableRecord
100
AcDbRegAppTableRecord
  2
ACADANNOTATIVE
 70
     0
  0
ENDTAB
  0
TABLE
  2
DIMSTYLE
  5
78
330
0
100
AcDbSymbolTable
 70
     2
  0
DIMSTYLE
105
79
330
78
100
AcDbSymbolTableRecord
100
AcDbDimStyleTableRecord
  2
STANDARD
 70
     0
  3

  4

  5

  6

  7

 40
0.0
 41
2.5
 42
0.625
 43
3.75
 44
1.25
 45
0.0
 46
0.0
 47
0.0
 48
0.0
140
2.5
141
2.5
142
0.0
143
0.03937007874016
144
1.0
145
0.0
146
1.0
147
0.625
 71
     0
 72
     0
 73
     0
 74
     0
 75
     0
 76
     0
 77
     1
 78
     8
170
     0
171
     3
172
     1
173
     0
174
     0
175
     0
176
     0
177
     0
178
     0
270
     2
271
     2
272
     2
273
     2
274
     3
340
71
275
     0
280
     0
281
     0
282
     0
283
     0
284
     8
285
     0
286
     0
287
     3
288
     0
  0
ENDTAB
  0
TABLE
  2
BLOCK_RECORD
  5
A01
330
0
100
AcDbSymbolTable
  70
5
  0
BLOCK_RECORD
  5
A02
330
A01
100
AcDbSymbolTableRecord
100
AcDbBlockTableRecord
  2
*MODEL_SPACE
  0
BLOCK_RECORD
  5
A03
330
A01
100
AcDbSymbolTableRecord
100
AcDbBlockTableRecord
  2
*PAPER_SPACE
  0
ENDTAB
  0
ENDSEC
  0
SECTION
  2
BLOCKS
  0
BLOCK
  5
A04
330
A02
100
AcDbEntity
  8
0
100
AcDbBlockBegin
  2
*MODEL_SPACE
 70
   0
 10
0
 20
0
 30
0
  3
*MODEL_SPACE
  1
 
  0
ENDBLK
  5
A05
330
A02
100
AcDbEntity
  8
0
100
AcDbBlockEnd
  0
BLOCK
  5
A06
330
A03
100
AcDbEntity
 67
1
  8
0
100
AcDbBlockBegin
  2
*PAPER_SPACE
 70
   0
 10
0
 20
0
 30
0
  3
*PAPER_SPACE
  1
 
  0
ENDBLK
  5
A07
330
A03
100
AcDbEntity
 67
    1
  8
0
100
AcDbBlockEnd
  0
ENDSEC
  0
SECTION
  2
ENTITIES
  0
LINE
  5
A08
330
A02
100
AcDbEntity
  8
Sketch
100
AcDbLine
 10
0
 20
0
 30
0
 11
220
 21
0
 31
0
  0
LINE
  5
A09
330
A02
100
AcDbEntity
  8
Sketch
100
AcDbLine
 10
220
 20
0
 30
0
 11
220
 21
300
 31
0
  0
LINE
  5
A0A
330
A02
100
AcDbEntity
  8
Sketch
100
AcDbLine
 10
220
 20
300
 30
0
 11
0
 21
300
 31
0
  0
LINE
  5
A0B
330
A02
100
AcDbEntity
  8
Sketch
100
AcDbLine
 10
0
 20
300
 30
0
 11
0
 21
0
 31
0
  0
LINE
  5
A0C
330
A02
100
AcDbEntity
  8
Sketch
100
AcDbLine
 10
45.5
 20
244
 30
0
 11
174.5
 21
244
 31
0
  0
LINE
  5
A0D
330
A02
100
AcDbEntity
  8
Sketch
100
AcDbLine
 10
174.5
 20
244
 30
0
 11
174.5
 21
15
 31
0
  0
LINE
  5
A0E
330
A02
100
AcDbEntity
  8
Sketch
100
AcDbLine
 10
174.5
 20
15
 30
0
 11
45.5
 21
15
 31
0
  0
LINE
  5
A0F
330
A02
100
AcDbEntity
  8
Sketch
100
AcDbLine
 10
45.5
 20
15
 30
0
 11
45.5
 21
244
 31
0
  0
LINE
  5
A10
330
A02
100
AcDbEntity
  8
Sketch001
100
AcDbLine
 10
41.5
 20
12
 30
0
 11
184.5
 21
12
 31
0
  0
LINE
  5
A11
330
A02
100
AcDbEntity
  8
Sketch001
100
AcDbLine
 10
184.5
 20
12
 30
0
 11
184.5
 21
249
 31
0
  0
LINE
  5
A12
330
A02
100
AcDbEntity
  8
Sketch001
100
AcDbLine
 10
184.5
 20
249
 30
0
 11
41.5
 21
249
 31
0
  0
LINE
  5
A13
330
A02
100
AcDbEntity
  8
Sketch001
100
AcDbLine
 10
41.5
 20
249
 30
0
 11
41.5
 21
12
 31
0
  0
LINE
  5
A14
330
A02
100
AcDbEntity
  8
Sketch001
100
AcDbLine
 10
45.5
 20
15
 30
0
 11
174.5
 21
15
 31
0
  0
LINE
  5
A15
330
A02
100
AcDbEntity
  8
Sketch001
100
AcDbLine
 10
174.5
 20
15
 30
0
 11
174.5
 21
244
 31
0
  0
LINE
  5
A16
330
A02
100
AcDbEntity
  8
Sketch001
100
AcDbLine
 10
174.5
 20
244
 30
0
 11
45.5
 21
244
 31
0
  0
LINE
  5
A17
330
A02
100
AcDbEntity
  8
Sketch001
100
AcDbLine
 10
45.5
 20
244
 30
0
 11
45.5
 21
15
 31
0
  0
CIRCLE
  5
A18
330
A02
100
AcDbEntity
  8
Sketch002
100
AcDbCircle
 10
22.5
 20
185.5
 40
7.9
  0
CIRCLE
  5
A19
330
A02
100
AcDbEntity
  8
Sketch002
100
AcDbCircle
 10
22.5
 20
160
 40
7.9
  0
CIRCLE
  5
A1A
330
A02
100
AcDbEntity
  8
Sketch002
100
AcDbCircle
 10
13.75
 20
151.5
 40
1
  0
CIRCLE
  5
A1B
330
A02
100
AcDbEntity
  8
Sketch002
100
AcDbCircle
 10
31.25
 20
151.5
 40
1
  0
CIRCLE
  5
A1C
330
A02
100
AcDbEntity
  8
Sketch002
100
AcDbCircle
 10
13.75
 20
194
 40
1
  0
CIRCLE
  5
A1D
330
A02
100
AcDbEntity
  8
Sketch002
100
AcDbCircle
 10
31.25
 20
194
 40
1
  0
LINE
  5
A1E
330
A02
100
AcDbEntity
  8
Sketch002
100
AcDbLine
 10
13.35
 20
177.75
 30
3
 11
16.95
 21
177.75
 31
3
  0
LINE
  5
A1F
330
A02
100
AcDbEntity
  8
Sketch002
100
AcDbLine
 10
16.95
 20
177.75
 30
3
 11
16.95
 21
167.75
 31
3
  0
LINE
  5
A20
330
A02
100
AcDbEntity
  8
Sketch002
100
AcDbLine
 10
16.95
 20
167.75
 30
3
 11
13.35
 21
167.75
 31
3
  0
LINE
  5
A21
330
A02
100
AcDbEntity
  8
Sketch002
100
AcDbLine
 10
13.35
 20
167.75
 30
3
 11
13.35
 21
177.75
 31
3
  0
CIRCLE
  5
A22
330
A02
100
AcDbEntity
  8
Sketch002
100
AcDbCircle
 10
200
 20
185.5
 40
7.9
  0
CIRCLE
  5
A23
330
A02
100
AcDbEntity
  8
Sketch002
100
AcDbCircle
 10
200
 20
160
 40
7.9
  0
CIRCLE
  5
A24
330
A02
100
AcDbEntity
  8
Sketch002
100
AcDbCircle
 10
191.25
 20
151.5
 40
1
  0
CIRCLE
  5
A25
330
A02
100
AcDbEntity
  8
Sketch002
100
AcDbCircle
 10
208.75
 20
151.5
 40
1
  0
CIRCLE
  5
A26
330
A02
100
AcDbEntity
  8
Sketch002
100
AcDbCircle
 10
191.25
 20
194
 40
1
  0
CIRCLE
  5
A27
330
A02
100
AcDbEntity
  8
Sketch002
100
AcDbCircle
 10
208.75
 20
194
 40
1
  0
LINE
  5
A28
330
A02
100
AcDbEntity
  8
Sketch002
100
AcDbLine
 10
205.15
 20
177.75
 30
3
 11
208.75
 21
177.75
 31
3
  0
LINE
  5
A29
330
A02
100
AcDbEntity
  8
Sketch002
100
AcDbLine
 10
208.75
 20
177.75
 30
3
 11
208.75
 21
167.75
 31
3
  0
LINE
  5
A2A
330
A02
100
AcDbEntity
  8
Sketch002
100
AcDbLine
 10
208.75
 20
167.75
 30
3
 11
205.15
 21
167.75
 31
3
  0
LINE
  5
A2B
330
A02
100
AcDbEntity
  8
Sketch002
100
AcDbLine
 10
205.15
 20
167.75
 30
3
 11
205.15
 21
177.75
 31
3
  0
LINE
  5
A2C
330
A02
100
AcDbEntity
  8
Sketch002
100
AcDbLine
 10
20
 20
3
 30
3
 11
0
 21
3
 31
3
  0
LINE
  5
A2D
330
A02
100
AcDbEntity
  8
Sketch002
100
AcDbLine
 10
0
 20
3
 30
3
 11
0
 21
0
 31
3
  0
LINE
  5
A2E
330
A02
100
AcDbEntity
  8
Sketch002
100
AcDbLine
 10
0
 20
0
 30
3
 11
20
 21
0
 31
3
  0
LINE
  5
A2F
330
A02
100
AcDbEntity
  8
Sketch002
100
AcDbLine
 10
20
 20
0
 30
3
 11
20
 21
3
 31
3
  0
CIRCLE
  5
A30
330
A02
100
AcDbEntity
  8
Sketch002
100
AcDbCircle
 10
107.5
 20
274.5
 40
3.6
  0
CIRCLE
  5
A31
330
A02
100
AcDbEntity
  8
Sketch002
100
AcDbCircle
 10
107.5
 20
264
 40
1
  0
CIRCLE
  5
A32
330
A02
100
AcDbEntity
  8
Sketch002
100
AcDbCircle
 10
120
 20
264
 40
1
  0
CIRCLE
  5
A33
330
A02
100
AcDbEntity
  8
Sketch002
100
AcDbCircle
 10
107.5
 20
285
 40
1
  0
CIRCLE
  5
A34
330
A02
100
AcDbEntity
  8
Sketch002
100
AcDbCircle
 10
120
 20
285
 40
1
  0
LINE
  5
A35
330
A02
100
AcDbEntity
  8
Sketch002
100
AcDbLine
 10
60
 20
3
 30
3
 11
40
 21
3
 31
3
  0
LINE
  5
A36
330
A02
100
AcDbEntity
  8
Sketch002
100
AcDbLine
 10
40
 20
3
 30
3
 11
40
 21
0
 31
3
  0
LINE
  5
A37
330
A02
100
AcDbEntity
  8
Sketch002
100
AcDbLine
 10
40
 20
0
 30
3
 11
60
 21
0
 31
3
  0
LINE
  5
A38
330
A02
100
AcDbEntity
  8
Sketch002
100
AcDbLine
 10
60
 20
0
 30
3
 11
60
 21
3
 31
3
  0
LINE
  5
A39
330
A02
100
AcDbEntity
  8
Sketch002
100
AcDbLine
 10
100
 20
3
 30
3
 11
80
 21
3
 31
3
  0
LINE
  5
A3A
330
A02
100
AcDbEntity
  8
Sketch002
100
AcDbLine
 10
80
 20
3
 30
3
 11
80
 21
0
 31
3
  0
LINE
  5
A3B
330
A02
100
AcDbEntity
  8
Sketch002
100
AcDbLine
 10
80
 20
0
 30
3
 11
100
 21
0
 31
3
  0
LINE
  5
A3C
330
A02
100
AcDbEntity
  8
Sketch002
100
AcDbLine
 10
100
 20
0
 30
3
 11
100
 21
3
 31
3
  0
LINE
  5
A3D
330
A02
100
AcDbEntity
  8
Sketch002
100
AcDbLine
 10
140
 20
3
 30
3
 11
120
 21
3
 31
3
  0
LINE
  5
A3E
330
A02
100
AcDbEntity
  8
Sketch002
100
AcDbLine
 10
120
 20
3
 30
3
 11
120
 21
0
 31
3
  0
LINE
  5
A3F
330
A02
100
AcDbEntity
  8
Sketch002
100
AcDbLine
 10
120
 20
0
 30
3
 11
140
 21
0
 31
3
  0
LINE
  5
A40
330
A02
100
AcDbEntity
  8
Sketch002
100
AcDbLine
 10
140
 20
0
 30
3
 11
140
 21
3
 31
3
  0
LINE
  5
A41
330
A02
100
AcDbEntity
  8
Sketch002
100
AcDbLine
 10
180
 20
3
 30
3
 11
160
 21
3
 31
3
  0
LINE
  5
A42
330
A02
100
AcDbEntity
  8
Sketch002
100
AcDbLine
 10
160
 20
3
 30
3
 11
160
 21
0
 31
3
  0
LINE
  5
A43
330
A02
100
AcDbEntity
  8
Sketch002
100
AcDbLine
 10
160
 20
0
 30
3
 11
180
 21
0
 31
3
  0
LINE
  5
A44
330
A02
100
AcDbEntity
  8
Sketch002
100
AcDbLine
 10
180
 20
0
 30
3
 11
180
 21
3
 31
3
  0
LINE
  5
A45
330
A02
100
AcDbEntity
  8
Sketch002
100
AcDbLine
 10
220
 20
3
 30
3
 11
200
 21
3
 31
3
  0
LINE
  5
A46
330
A02
100
AcDbEntity
  8
Sketch002
100
AcDbLine
 10
200
 20
3
 30
3
 11
200
 21
0
 31
3
  0
LINE
  5
A47
330
A02
100
AcDbEntity
  8
Sketch002
100
AcDbLine
 10
200
 20
0
 30
3
 11
220
 21
0
 31
3
  0
LINE
  5
A48
330
A02
100
AcDbEntity
  8
Sketch002
100
AcDbLine
 10
220
 20
0
 30
3
 11
220
 21
3
 31
3
  0
LINE
  5
A49
330
A02
100
AcDbEntity
  8
Sketch002
100
AcDbLine
 10
20
 20
300
 30
3
 11
0
 21
300
 31
3
  0
LINE
  5
A4A
330
A02
100
AcDbEntity
  8
Sketch002
100
AcDbLine
 10
0
 20
300
 30
3
 11
0
 21
297
 31
3
  0
LINE
  5
A4B
330
A02
100
AcDbEntity
  8
Sketch002
100
AcDbLine
 10
0
 20
297
 30
3
 11
20
 21
297
 31
3
  0
LINE
  5
A4C
330
A02
100
AcDbEntity
  8
Sketch002
100
AcDbLine
 10
20
 20
297
 30
3
 11
20
 21
300
 31
3
  0
LINE
  5
A4D
330
A02
100
AcDbEntity
  8
Sketch002
100
AcDbLine
 10
60
 20
300
 30
3
 11
40
 21
300
 31
3
  0
LINE
  5
A4E
330
A02
100
AcDbEntity
  8
Sketch002
100
AcDbLine
 10
40
 20
300
 30
3
 11
40
 21
297
 31
3
  0
LINE
  5
A4F
330
A02
100
AcDbEntity
  8
Sketch002
100
AcDbLine
 10
40
 20
297
 30
3
 11
60
 21
297
 31
3
  0
LINE
  5
A50
330
A02
100
AcDbEntity
  8
Sketch002
100
AcDbLine
 10
60
 20
297
 30
3
 11
60
 21
300
 31
3
  0
LINE
  5
A51
330
A02
100
AcDbEntity
  8
Sketch002
100
AcDbLine
 10
100
 20
300
 30
3
 11
80
 21
300
 31
3
  0
LINE
  5
A52
330
A02
100
AcDbEntity
  8
Sketch002
100
AcDbLine
 10
80
 20
300
 30
3
 11
80
 21
297
 31
3
  0
LINE
  5
A53
330
A02
100
AcDbEntity
  8
Sketch002
100
AcDbLine
 10
80
 20
297
 30
3
 11
100
 21
297
 31
3
  0
LINE
  5
A54
330
A02
100
AcDbEntity
  8
Sketch002
100
AcDbLine
 10
100
 20
297
 30
3
 11
100
 21
300
 31
3
  0
LINE
  5
A55
330
A02
100
AcDbEntity
  8
Sketch002
100
AcDbLine
 10
140
 20
300
 30
3
 11
120
 21
300
 31
3
  0
LINE
  5
A56
330
A02
100
AcDbEntity
  8
Sketch002
100
AcDbLine
 10
120
 20
300
 30
3
 11
120
 21
297
 31
3
  0
LINE
  5
A57
330
A02
100
AcDbEntity
  8
Sketch002
100
AcDbLine
 10
120
 20
297
 30
3
 11
140
 21
297
 31
3
  0
LINE
  5
A58
330
A02
100
AcDbEntity
  8
Sketch002
100
AcDbLine
 10
140
 20
297
 30
3
 11
140
 21
300
 31
3
  0
LINE
  5
A59
330
A02
100
AcDbEntity
  8
Sketch002
100
AcDbLine
 10
180
 20
300
 30
3
 11
160
 21
300
 31
3
  0
LINE
  5
A5A
330
A02
100
AcDbEntity
  8
Sketch002
100
AcDbLine
 10
160
 20
300
 30
3
 11
160
 21
297
 31
3
  0
LINE
  5
A5B
330
A02
100
AcDbEntity
  8
Sketch002
100
AcDbLine
 10
160
 20
297
 30
3
 11
180
 21
297
 31
3
  0
LINE
  5
A5C
330
A02
100
AcDbEntity
  8
Sketch002
100
AcDbLine
 10
180
 20
297
 30
3
 11
180
 21
300
 31
3
  0
LINE
  5
A5D
330
A02
100
AcDbEntity
  8
Sketch002
100
AcDbLine
 10
220
 20
300
 30
3
 11
200
 21
300
 31
3
  0
LINE
  5
A5E
330
A02
100
AcDbEntity
  8
Sketch002
100
AcDbLine
 10
200
 20
300
 30
3
 11
200
 21
297
 31
3
  0
LINE
  5
A5F
330
A02
100
AcDbEntity
  8
Sketch002
100
AcDbLine
 10
200
 20
297
 30
3
 11
220
 21
297
 31
3
  0
LINE
  5
A60
330
A02
100
AcDbEntity
  8
Sketch002
100
AcDbLine
 10
220
 20
297
 30
3
 11
220
 21
300
 31
3
  0
LINE
  5
A61
330
A02
100
AcDbEntity
  8
Sketch002
100
AcDbLine
 10
0
 20
20.01
 30
3
 11
3
 21
20.01
 31
3
  0
LINE
  5
A62
330
A02
100
AcDbEntity
  8
Sketch002
100
AcDbLine
 10
3
 20
20.01
 30
3
 11
3
 21
3.01
 31
3
  0
LINE
  5
A63
330
A02
100
AcDbEntity
  8
Sketch002
100
AcDbLine
 10
3
 20
3.01
 30
3
 11
0
 21
3.01
 31
3
  0
LINE
  5
A64
330
A02
100
AcDbEntity
  8
Sketch002
100
AcDbLine
 10
0
 20
3.01
 30
3
 11
0
 21
20.01
 31
3
  0
LINE
  5
A65
330
A02
100
AcDbEntity
  8
Sketch002
100
AcDbLine
 10
0
 20
296.99
 30
3
 11
3
 21
296.99
 31
3
  0
LINE
  5
A66
330
A02
100
AcDbEntity
  8
Sketch002
100
AcDbLine
 10
3
 20
296.99
 30
3
 11
3
 21
276.99
 31
3
  0
LINE
  5
A67
330
A02
100
AcDbEntity
  8
Sketch002
100
AcDbLine
 10
3
 20
276.99
 30
3
 11
0
 21
276.99
 31
3
  0
LINE
  5
A68
330
A02
100
AcDbEntity
  8
Sketch002
100
AcDbLine
 10
0
 20
276.99
 30
3
 11
0
 21
296.99
 31
3
  0
LINE
  5
A69
330
A02
100
AcDbEntity
  8
Sketch002
100
AcDbLine
 10
0
 20
60
 30
3
 11
3
 21
60
 31
3
  0
LINE
  5
A6A
330
A02
100
AcDbEntity
  8
Sketch002
100
AcDbLine
 10
3
 20
60
 30
3
 11
3
 21
40
 31
3
  0
LINE
  5
A6B
330
A02
100
AcDbEntity
  8
Sketch002
100
AcDbLine
 10
3
 20
40
 30
3
 11
0
 21
40
 31
3
  0
LINE
  5
A6C
330
A02
100
AcDbEntity
  8
Sketch002
100
AcDbLine
 10
0
 20
40
 30
3
 11
0
 21
60
 31
3
  0
LINE
  5
A6D
330
A02
100
AcDbEntity
  8
Sketch002
100
AcDbLine
 10
2.66454e-15
 20
100
 30
3
 11
3
 21
100
 31
3
  0
LINE
  5
A6E
330
A02
100
AcDbEntity
  8
Sketch002
100
AcDbLine
 10
3
 20
100
 30
3
 11
3
 21
80
 31
3
  0
LINE
  5
A6F
330
A02
100
AcDbEntity
  8
Sketch002
100
AcDbLine
 10
3
 20
80
 30
3
 11
2.66454e-15
 21
80
 31
3
  0
LINE
  5
A70
330
A02
100
AcDbEntity
  8
Sketch002
100
AcDbLine
 10
2.66454e-15
 20
80
 30
3
 11
2.66454e-15
 21
100
 31
3
  0
LINE
  5
A71
330
A02
100
AcDbEntity
  8
Sketch002
100
AcDbLine
 10
4.88498e-15
 20
140
 30
3
 11
3
 21
140
 31
3
  0
LINE
  5
A72
330
A02
100
AcDbEntity
  8
Sketch002
100
AcDbLine
 10
3
 20
140
 30
3
 11
3
 21
120
 31
3
  0
LINE
  5
A73
330
A02
100
AcDbEntity
  8
Sketch002
100
AcDbLine
 10
3
 20
120
 30
3
 11
4.88498e-15
 21
120
 31
3
  0
LINE
  5
A74
330
A02
100
AcDbEntity
  8
Sketch002
100
AcDbLine
 10
4.88498e-15
 20
120
 30
3
 11
4.88498e-15
 21
140
 31
3
  0
LINE
  5
A75
330
A02
100
AcDbEntity
  8
Sketch002
100
AcDbLine
 10
7.54952e-15
 20
180
 30
3
 11
3
 21
180
 31
3
  0
LINE
  5
A76
330
A02
100
AcDbEntity
  8
Sketch002
100
AcDbLine
 10
3
 20
180
 30
3
 11
3
 21
160
 31
3
  0
LINE
  5
A77
330
A02
100
AcDbEntity
  8
Sketch002
100
AcDbLine
 10
3
 20
160
 30
3
 11
7.54952e-15
 21
160
 31
3
  0
LINE
  5
A78
330
A02
100
AcDbEntity
  8
Sketch002
100
AcDbLine
 10
7.54952e-15
 20
160
 30
3
 11
7.54952e-15
 21
180
 31
3
  0
LINE
  5
A79
330
A02
100
AcDbEntity
  8
Sketch002
100
AcDbLine
 10
9.76996e-15
 20
220
 30
3
 11
3
 21
220
 31
3
  0
LINE
  5
A7A
330
A02
100
AcDbEntity
  8
Sketch002
100
AcDbLine
 10
3
 20
220
 30
3
 11
3
 21
200
 31
3
  0
LINE
  5
A7B
330
A02
100
AcDbEntity
  8
Sketch002
100
AcDbLine
 10
3
 20
200
 30
3
 11
9.76996e-15
 21
200
 31
3
  0
LINE
  5
A7C
330
A02
100
AcDbEntity
  8
Sketch002
100
AcDbLine
 10
9.76996e-15
 20
200
 30
3
 11
9.76996e-15
 21
220
 31
3
  0
LINE
  5
A7D
330
A02
100
AcDbEntity
  8
Sketch002
100
AcDbLine
 10
1.24345e-14
 20
260
 30
3
 11
3
 21
260
 31
3
  0
LINE
  5
A7E
330
A02
100
AcDbEntity
  8
Sketch002
100
AcDbLine
 10
3
 20
260
 30
3
 11
3
 21
240
 31
3
  0
LINE
  5
A7F
330
A02
100
AcDbEntity
  8
Sketch002
100
AcDbLine
 10
3
 20
240
 30
3
 11
1.24345e-14
 21
240
 31
3
  0
LINE
  5
A80
330
A02
100
AcDbEntity
  8
Sketch002
100
AcDbLine
 10
1.24345e-14
 20
240
 30
3
 11
1.24345e-14
 21
260
 31
3
  0
LINE
  5
A81
330
A02
100
AcDbEntity
  8
Sketch002
100
AcDbLine
 10
217
 20
60
 30
3
 11
220
 21
60
 31
3
  0
LINE
  5
A82
330
A02
100
AcDbEntity
  8
Sketch002
100
AcDbLine
 10
220
 20
60
 30
3
 11
220
 21
40
 31
3
  0
LINE
  5
A83
330
A02
100
AcDbEntity
  8
Sketch002
100
AcDbLine
 10
220
 20
40
 30
3
 11
217
 21
40
 31
3
  0
LINE
  5
A84
330
A02
100
AcDbEntity
  8
Sketch002
100
AcDbLine
 10
217
 20
40
 30
3
 11
217
 21
60
 31
3
  0
LINE
  5
A85
330
A02
100
AcDbEntity
  8
Sketch002
100
AcDbLine
 10
217
 20
100
 30
3
 11
220
 21
100
 31
3
  0
LINE
  5
A86
330
A02
100
AcDbEntity
  8
Sketch002
100
AcDbLine
 10
220
 20
100
 30
3
 11
220
 21
80
 31
3
  0
LINE
  5
A87
330
A02
100
AcDbEntity
  8
Sketch002
100
AcDbLine
 10
220
 20
80
 30
3
 11
217
 21
80
 31
3
  0
LINE
  5
A88
330
A02
100
AcDbEntity
  8
Sketch002
100
AcDbLine
 10
217
 20
80
 30
3
 11
217
 21
100
 31
3
  0
LINE
  5
A89
330
A02
100
AcDbEntity
  8
Sketch002
100
AcDbLine
 10
217
 20
140
 30
3
 11
220
 21
140
 31
3
  0
LINE
  5
A8A
330
A02
100
AcDbEntity
  8
Sketch002
100
AcDbLine
 10
220
 20
140
 30
3
 11
220
 21
120
 31
3
  0
LINE
  5
A8B
330
A02
100
AcDbEntity
  8
Sketch002
100
AcDbLine
 10
220
 20
120
 30
3
 11
217
 21
120
 31
3
  0
LINE
  5
A8C
330
A02
100
AcDbEntity
  8
Sketch002
100
AcDbLine
 10
217
 20
120
 30
3
 11
217
 21
140
 31
3
  0
LINE
  5
A8D
330
A02
100
AcDbEntity
  8
Sketch002
100
AcDbLine
 10
217
 20
180
 30
3
 11
220
 21
180
 31
3
  0
LINE
  5
A8E
330
A02
100
AcDbEntity
  8
Sketch002
100
AcDbLine
 10
220
 20
180
 30
3
 11
220
 21
160
 31
3
  0
LINE
  5
A8F
330
A02
100
AcDbEntity
  8
Sketch002
100
AcDbLine
 10
220
 20
160
 30
3
 11
217
 21
160
 31
3
  0
LINE
  5
A90
330
A02
100
AcDbEntity
  8
Sketch002
100
AcDbLine
 10
217
 20
160
 30
3
 11
217
 21
180
 31
3
  0
LINE
  5
A91
330
A02
100
AcDbEntity
  8
Sketch002
100
AcDbLine
 10
217
 20
220
 30
3
 11
220
 21
220
 31
3
  0
LINE
  5
A92
330
A02
100
AcDbEntity
  8
Sketch002
100
AcDbLine
 10
220
 20
220
 30
3
 11
220
 21
200
 31
3
  0
LINE
  5
A93
330
A02
100
AcDbEntity
  8
Sketch002
100
AcDbLine
 10
220
 20
200
 30
3
 11
217
 21
200
 31
3
  0
LINE
  5
A94
330
A02
100
AcDbEntity
  8
Sketch002
100
AcDbLine
 10
217
 20
200
 30
3
 11
217
 21
220
 31
3
  0
LINE
  5
A95
330
A02
100
AcDbEntity
  8
Sketch002
100
AcDbLine
 10
217
 20
260
 30
3
 11
220
 21
260
 31
3
  0
LINE
  5
A96
330
A02
100
AcDbEntity
  8
Sketch002
100
AcDbLine
 10
220
 20
260
 30
3
 11
220
 21
240
 31
3
  0
LINE
  5
A97
330
A02
100
AcDbEntity
  8
Sketch002
100
AcDbLine
 10
220
 20
240
 30
3
 11
217
 21
240
 31
3
  0
LINE
  5
A98
330
A02
100
AcDbEntity
  8
Sketch002
100
AcDbLine
 10
217
 20
240
 30
3
 11
217
 21
260
 31
3
  0
LINE
  5
A99
330
A02
100
AcDbEntity
  8
Sketch002
100
AcDbLine
 10
217
 20
296.99
 30
3
 11
220
 21
296.99
 31
3
  0
LINE
  5
A9A
330
A02
100
AcDbEntity
  8
Sketch002
100
AcDbLine
 10
220
 20
296.99
 30
3
 11
220
 21
279.99
 31
3
  0
LINE
  5
A9B
330
A02
100
AcDbEntity
  8
Sketch002
100
AcDbLine
 10
220
 20
279.99
 30
3
 11
217
 21
279.99
 31
3
  0
LINE
  5
A9C
330
A02
100
AcDbEntity
  8
Sketch002
100
AcDbLine
 10
217
 20
279.99
 30
3
 11
217
 21
296.99
 31
3
  0
LINE
  5
A9D
330
A02
100
AcDbEntity
  8
Sketch002
100
AcDbLine
 10
217
 20
20.01
 30
3
 11
220
 21
20.01
 31
3
  0
LINE
  5
A9E
330
A02
100
AcDbEntity
  8
Sketch002
100
AcDbLine
 10
220
 20
20.01
 30
3
 11
220
 21
3.01
 31
3
  0
LINE
  5
A9F
330
A02
100
AcDbEntity
  8
Sketch002
100
AcDbLine
 10
220
 20
3.01
 30
3
 11
217
 21
3.01
 31
3
  0
LINE
  5
AA0
330
A02
100
AcDbEntity
  8
Sketch002
100
AcDbLine
 10
217
 20
3.01
 30
3
 11
217
 21
20.01
 31
3
  0
CIRCLE
  5
AA1
330
A02
100
AcDbEntity
  8
Sketch003
100
AcDbCircle
 10
38.5
 20
17
 40
1
  0
CIRCLE
  5
AA2
330
A02
100
AcDbEntity
  8
Sketch003
100
AcDbCircle
 10
46
 20
9.5
 40
1
  0
CIRCLE
  5
AA3
330
A02
100
AcDbEntity
  8
Sketch003
100
AcDbCircle
 10
180
 20
251.5
 40
1
  0
CIRCLE
  5
AA4
330
A02
100
AcDbEntity
  8
Sketch003
100
AcDbCircle
 10
187.5
 20
244
 40
1
  0
CIRCLE
  5
AA5
330
A02
100
AcDbEntity
  8
Sketch003
100
AcDbCircle
 10
180
 20
9.5
 40
1
  0
CIRCLE
  5
AA6
330
A02
100
AcDbEntity
  8
Sketch003
100
AcDbCircle
 10
187.5
 20
17
 40
1
  0
CIRCLE
  5
AA7
330
A02
100
AcDbEntity
  8
Sketch003
100
AcDbCircle
 10
38.5
 20
244
 40
1
  0
CIRCLE
  5
AA8
330
A02
100
AcDbEntity
  8
Sketch003
100
AcDbCircle
 10
46
 20
251.5
 40
1
  0
ENDSEC
  0
SECTION
  2
OBJECTS
  0
DICTIONARY
  5
F000
330
0
100
AcDbDictionary
  3
ACAD_GROUP
350
F001
  0
DICTIONARY
  5
F001
330
F000
100
AcDbDictionary
  0
ENDSEC
  0
EOF