999
FreeCAD v0.19 24366 (Git)
  0
SECTION
  2
HEADER
  9
$ACADVER
  1
AC1014
  9
$ACADMAINTVER
 70
     9
  9
$DWGCODEPAGE
  3
ANSI_1252
  9
$TEXTSTYLE
  7
STANDARD
  9
$DIMSTYLE
  2
STANDARD
  9
$DIMTXSTY
  7
STANDARD
  9
$CMLSTYLE
  2
STANDARD
  9
$PEXTMAX
 10
50
 20
50
 30
50
  9
$PEXTMIN
 10
0
 20
0
 30
0
  9
$HANDSEED
  5
FFFF
  0
ENDSEC
  0
SECTION
  2
CLASSES
  0
CLASS
  1
ACDBDICTIONARYWDFLT
  2
AcDbDictionaryWithDefault
  3
ObjectDBX Classes
 90
        0
280
     0
281
     0
  0
CLASS
  1
XRECORD
  2
AcDbXrecord
  3
ObjectDBX Classes
 90
        0
280
     0
281
     0
  0
CLASS
  1
LWPOLYLINE
  2
AcDbPolyline
  3
ObjectDBX Classes
 90
        0
280
     0
281
     1
  0
ENDSEC
  0
SECTION
  2
TABLES
  0
TABLE
  2
VPORT
  5
20
330
0
100
AcDbSymbolTable
 70
     1
  0
VPORT
  5
21
330
20
100
AcDbSymbolTableRecord
100
AcDbViewportTableRecord
  2
*ACTIVE
 70
     0
  0
ENDTAB
  0
TABLE
  2
LTYPE
  5
22
330
0
100
AcDbSymbolTable
 70
     1
  0
LTYPE
  5
23
330
21
100
AcDbSymbolTableRecord
100
AcDbLinetypeTableRecord
  2
BYBLOCK
 70
     0
  3

 72
    65
 73
     0
 40
0.0
  0
LTYPE
  5
24
330
21
100
AcDbSymbolTableRecord
100
AcDbLinetypeTableRecord
  2
BYLAYER
 70
     0
  3

 72
    65
 73
     0
 40
0.0
  0
LTYPE
  5
25
330
21
100
AcDbSymbolTableRecord
100
AcDbLinetypeTableRecord
  2
CONTINUOUS
 70
     0
  3
Solid line
 72
    65
 73
     0
 40
0.0
  0
ENDTAB
  0
TABLE
  2
LAYER
  5
A9E
330
0
100
AcDbSymbolTable
 70
2
  0
LAYER
  5
A9F
330
A9E
100
AcDbSymbolTableRecord
100
AcDbLayerTableRecord
  2
0
 70
   0
 62
   7
  6
CONTINUOUS
  0
LAYER
  5
AA0
330
A9E
100
AcDbSymbolTableRecord
100
AcDbLayerTableRecord
  2
View
 70
    0
 62
    7
  6
CONTINUOUS
  0
ENDTAB
  0
TABLE
  2
STYLE
  5
70
330
0
100
AcDbSymbolTable
 70
     2
  0
STYLE
  5
71
330
70
100
AcDbSymbolTableRecord
100
AcDbTextStyleTableRecord
  2
STANDARD
 70
     0
 40
0.0
 41
1.0
 50
0.0
 71
     0
 42
2.5
  3
arial.ttf
  4

  0
STYLE
  5
72
330
70
100
AcDbSymbolTableRecord
100
AcDbTextStyleTableRecord
  2
ANNOTATIVE
 70
     0
 40
0.0
 41
1.0
 50
0.0
 71
     0
 42
2.5
  3
arial.ttf
  4

  0
ENDTAB
  0
TABLE
  2
VIEW
  5
73
330
0
100
AcDbSymbolTable
 70
     0
  0
ENDTAB
  0
TABLE
  2
UCS
  5
74
330
0
100
AcDbSymbolTable
 70
     0
  0
ENDTAB
  0
TABLE
  2
APPID
  5
75
330
0
100
AcDbSymbolTable
 70
     2
  0
APPID
  5
76
330
75
100
AcDbSymbolTableRecord
100
AcDbRegAppTableRecord
  2
ACAD
 70
     0
  0
APPID
  5
77
330
75
100
AcDbSymbolTableRecord
100
AcDbRegAppTableRecord
  2
ACADANNOTATIVE
 70
     0
  0
ENDTAB
  0
TABLE
  2
DIMSTYLE
  5
78
330
0
100
AcDbSymbolTable
 70
     2
  0
DIMSTYLE
105
79
330
78
100
AcDbSymbolTableRecord
100
AcDbDimStyleTableRecord
  2
STANDARD
 70
     0
  3

  4

  5

  6

  7

 40
0.0
 41
2.5
 42
0.625
 43
3.75
 44
1.25
 45
0.0
 46
0.0
 47
0.0
 48
0.0
140
2.5
141
2.5
142
0.0
143
0.03937007874016
144
1.0
145
0.0
146
1.0
147
0.625
 71
     0
 72
     0
 73
     0
 74
     0
 75
     0
 76
     0
 77
     1
 78
     8
170
     0
171
     3
172
     1
173
     0
174
     0
175
     0
176
     0
177
     0
178
     0
270
     2
271
     2
272
     2
273
     2
274
     3
340
71
275
     0
280
     0
281
     0
282
     0
283
     0
284
     8
285
     0
286
     0
287
     3
288
     0
  0
ENDTAB
  0
TABLE
  2
BLOCK_RECORD
  5
A01
330
0
100
AcDbSymbolTable
  70
5
  0
BLOCK_RECORD
  5
A02
330
A01
100
AcDbSymbolTableRecord
100
AcDbBlockTableRecord
  2
*MODEL_SPACE
  0
BLOCK_RECORD
  5
A03
330
A01
100
AcDbSymbolTableRecord
100
AcDbBlockTableRecord
  2
*PAPER_SPACE
  0
ENDTAB
  0
ENDSEC
  0
SECTION
  2
BLOCKS
  0
BLOCK
  5
A04
330
A02
100
AcDbEntity
  8
0
100
AcDbBlockBegin
  2
*MODEL_SPACE
 70
   0
 10
0
 20
0
 30
0
  3
*MODEL_SPACE
  1
 
  0
ENDBLK
  5
A05
330
A02
100
AcDbEntity
  8
0
100
AcDbBlockEnd
  0
BLOCK
  5
A06
330
A03
100
AcDbEntity
 67
1
  8
0
100
AcDbBlockBegin
  2
*PAPER_SPACE
 70
   0
 10
0
 20
0
 30
0
  3
*PAPER_SPACE
  1
 
  0
ENDBLK
  5
A07
330
A03
100
AcDbEntity
 67
    1
  8
0
100
AcDbBlockEnd
  0
ENDSEC
  0
SECTION
  2
ENTITIES
  0
LINE
  5
A08
330
A02
100
AcDbEntity
  8
View
100
AcDbLine
 10
330.5
 20
147
 30
0
 11
350.5
 21
147
 31
0
  0
LINE
  5
A09
330
A02
100
AcDbEntity
  8
View
100
AcDbLine
 10
350.5
 20
147
 30
0
 11
350.5
 21
150
 31
0
  0
LINE
  5
A0A
330
A02
100
AcDbEntity
  8
View
100
AcDbLine
 10
330.5
 20
150
 30
0
 11
330.5
 21
147
 31
0
  0
LINE
  5
A0B
330
A02
100
AcDbEntity
  8
View
100
AcDbLine
 10
310.5
 20
150
 30
0
 11
330.5
 21
150
 31
0
  0
LINE
  5
A0C
330
A02
100
AcDbEntity
  8
View
100
AcDbLine
 10
310.5
 20
150.01
 30
0
 11
310.5
 21
150
 31
0
  0
LINE
  5
A0D
330
A02
100
AcDbEntity
  8
View
100
AcDbLine
 10
313.5
 20
150.01
 30
0
 11
310.5
 21
150.01
 31
0
  0
LINE
  5
A0E
330
A02
100
AcDbEntity
  8
View
100
AcDbLine
 10
313.5
 20
167.01
 30
0
 11
313.5
 21
150.01
 31
0
  0
LINE
  5
A0F
330
A02
100
AcDbEntity
  8
View
100
AcDbLine
 10
310.5
 20
167.01
 30
0
 11
313.5
 21
167.01
 31
0
  0
LINE
  5
A10
330
A02
100
AcDbEntity
  8
View
100
AcDbLine
 10
310.5
 20
187
 30
0
 11
310.5
 21
167.01
 31
0
  0
LINE
  5
A11
330
A02
100
AcDbEntity
  8
View
100
AcDbLine
 10
313.5
 20
187
 30
0
 11
310.5
 21
187
 31
0
  0
LINE
  5
A12
330
A02
100
AcDbEntity
  8
View
100
AcDbLine
 10
313.5
 20
207
 30
0
 11
313.5
 21
187
 31
0
  0
LINE
  5
A13
330
A02
100
AcDbEntity
  8
View
100
AcDbLine
 10
310.5
 20
207
 30
0
 11
313.5
 21
207
 31
0
  0
LINE
  5
A14
330
A02
100
AcDbEntity
  8
View
100
AcDbLine
 10
310.5
 20
227
 30
0
 11
310.5
 21
207
 31
0
  0
LINE
  5
A15
330
A02
100
AcDbEntity
  8
View
100
AcDbLine
 10
313.5
 20
227
 30
0
 11
310.5
 21
227
 31
0
  0
LINE
  5
A16
330
A02
100
AcDbEntity
  8
View
100
AcDbLine
 10
313.5
 20
247
 30
0
 11
313.5
 21
227
 31
0
  0
LINE
  5
A17
330
A02
100
AcDbEntity
  8
View
100
AcDbLine
 10
310.5
 20
247
 30
0
 11
313.5
 21
247
 31
0
  0
LINE
  5
A18
330
A02
100
AcDbEntity
  8
View
100
AcDbLine
 10
310.5
 20
267
 30
0
 11
310.5
 21
247
 31
0
  0
LINE
  5
A19
330
A02
100
AcDbEntity
  8
View
100
AcDbLine
 10
313.5
 20
267
 30
0
 11
310.5
 21
267
 31
0
  0
LINE
  5
A1A
330
A02
100
AcDbEntity
  8
View
100
AcDbLine
 10
313.5
 20
287
 30
0
 11
313.5
 21
267
 31
0
  0
LINE
  5
A1B
330
A02
100
AcDbEntity
  8
View
100
AcDbLine
 10
310.5
 20
287
 30
0
 11
313.5
 21
287
 31
0
  0
LINE
  5
A1C
330
A02
100
AcDbEntity
  8
View
100
AcDbLine
 10
310.5
 20
307
 30
0
 11
310.5
 21
287
 31
0
  0
LINE
  5
A1D
330
A02
100
AcDbEntity
  8
View
100
AcDbLine
 10
313.5
 20
307
 30
0
 11
310.5
 21
307
 31
0
  0
LINE
  5
A1E
330
A02
100
AcDbEntity
  8
View
100
AcDbLine
 10
313.5
 20
327
 30
0
 11
313.5
 21
307
 31
0
  0
LINE
  5
A1F
330
A02
100
AcDbEntity
  8
View
100
AcDbLine
 10
310.5
 20
327
 30
0
 11
313.5
 21
327
 31
0
  0
LINE
  5
A20
330
A02
100
AcDbEntity
  8
View
100
AcDbLine
 10
310.5
 20
347
 30
0
 11
310.5
 21
327
 31
0
  0
LINE
  5
A21
330
A02
100
AcDbEntity
  8
View
100
AcDbLine
 10
313.5
 20
347
 30
0
 11
310.5
 21
347
 31
0
  0
LINE
  5
A22
330
A02
100
AcDbEntity
  8
View
100
AcDbLine
 10
313.5
 20
367
 30
0
 11
313.5
 21
347
 31
0
  0
LINE
  5
A23
330
A02
100
AcDbEntity
  8
View
100
AcDbLine
 10
310.5
 20
367
 30
0
 11
313.5
 21
367
 31
0
  0
LINE
  5
A24
330
A02
100
AcDbEntity
  8
View
100
AcDbLine
 10
310.5
 20
387
 30
0
 11
310.5
 21
367
 31
0
  0
LINE
  5
A25
330
A02
100
AcDbEntity
  8
View
100
AcDbLine
 10
313.5
 20
387
 30
0
 11
310.5
 21
387
 31
0
  0
LINE
  5
A26
330
A02
100
AcDbEntity
  8
View
100
AcDbLine
 10
313.5
 20
407
 30
0
 11
313.5
 21
387
 31
0
  0
LINE
  5
A27
330
A02
100
AcDbEntity
  8
View
100
AcDbLine
 10
310.5
 20
407
 30
0
 11
313.5
 21
407
 31
0
  0
LINE
  5
A28
330
A02
100
AcDbEntity
  8
View
100
AcDbLine
 10
310.5
 20
426.99
 30
0
 11
310.5
 21
407
 31
0
  0
LINE
  5
A29
330
A02
100
AcDbEntity
  8
View
100
AcDbLine
 10
313.5
 20
426.99
 30
0
 11
310.5
 21
426.99
 31
0
  0
LINE
  5
A2A
330
A02
100
AcDbEntity
  8
View
100
AcDbLine
 10
313.5
 20
443.99
 30
0
 11
313.5
 21
426.99
 31
0
  0
LINE
  5
A2B
330
A02
100
AcDbEntity
  8
View
100
AcDbLine
 10
310.5
 20
443.99
 30
0
 11
313.5
 21
443.99
 31
0
  0
LINE
  5
A2C
330
A02
100
AcDbEntity
  8
View
100
AcDbLine
 10
310.5
 20
444
 30
0
 11
310.5
 21
443.99
 31
0
  0
LINE
  5
A2D
330
A02
100
AcDbEntity
  8
View
100
AcDbLine
 10
330.5
 20
444
 30
0
 11
310.5
 21
444
 31
0
  0
LINE
  5
A2E
330
A02
100
AcDbEntity
  8
View
100
AcDbLine
 10
330.5
 20
447
 30
0
 11
330.5
 21
444
 31
0
  0
LINE
  5
A2F
330
A02
100
AcDbEntity
  8
View
100
AcDbLine
 10
350.5
 20
447
 30
0
 11
330.5
 21
447
 31
0
  0
LINE
  5
A30
330
A02
100
AcDbEntity
  8
View
100
AcDbLine
 10
350.5
 20
444
 30
0
 11
350.5
 21
447
 31
0
  0
LINE
  5
A31
330
A02
100
AcDbEntity
  8
View
100
AcDbLine
 10
370.5
 20
444
 30
0
 11
350.5
 21
444
 31
0
  0
LINE
  5
A32
330
A02
100
AcDbEntity
  8
View
100
AcDbLine
 10
370.5
 20
447
 30
0
 11
370.5
 21
444
 31
0
  0
LINE
  5
A33
330
A02
100
AcDbEntity
  8
View
100
AcDbLine
 10
390.5
 20
447
 30
0
 11
370.5
 21
447
 31
0
  0
LINE
  5
A34
330
A02
100
AcDbEntity
  8
View
100
AcDbLine
 10
390.5
 20
444
 30
0
 11
390.5
 21
447
 31
0
  0
LINE
  5
A35
330
A02
100
AcDbEntity
  8
View
100
AcDbLine
 10
410.5
 20
444
 30
0
 11
390.5
 21
444
 31
0
  0
LINE
  5
A36
330
A02
100
AcDbEntity
  8
View
100
AcDbLine
 10
410.5
 20
447
 30
0
 11
410.5
 21
444
 31
0
  0
LINE
  5
A37
330
A02
100
AcDbEntity
  8
View
100
AcDbLine
 10
430.5
 20
447
 30
0
 11
410.5
 21
447
 31
0
  0
LINE
  5
A38
330
A02
100
AcDbEntity
  8
View
100
AcDbLine
 10
430.5
 20
444
 30
0
 11
430.5
 21
447
 31
0
  0
LINE
  5
A39
330
A02
100
AcDbEntity
  8
View
100
AcDbLine
 10
450.5
 20
444
 30
0
 11
430.5
 21
444
 31
0
  0
LINE
  5
A3A
330
A02
100
AcDbEntity
  8
View
100
AcDbLine
 10
450.5
 20
447
 30
0
 11
450.5
 21
444
 31
0
  0
LINE
  5
A3B
330
A02
100
AcDbEntity
  8
View
100
AcDbLine
 10
470.5
 20
447
 30
0
 11
450.5
 21
447
 31
0
  0
LINE
  5
A3C
330
A02
100
AcDbEntity
  8
View
100
AcDbLine
 10
470.5
 20
444
 30
0
 11
470.5
 21
447
 31
0
  0
LINE
  5
A3D
330
A02
100
AcDbEntity
  8
View
100
AcDbLine
 10
490.5
 20
444
 30
0
 11
470.5
 21
444
 31
0
  0
LINE
  5
A3E
330
A02
100
AcDbEntity
  8
View
100
AcDbLine
 10
490.5
 20
447
 30
0
 11
490.5
 21
444
 31
0
  0
LINE
  5
A3F
330
A02
100
AcDbEntity
  8
View
100
AcDbLine
 10
510.5
 20
447
 30
0
 11
490.5
 21
447
 31
0
  0
LINE
  5
A40
330
A02
100
AcDbEntity
  8
View
100
AcDbLine
 10
510.5
 20
444
 30
0
 11
510.5
 21
447
 31
0
  0
LINE
  5
A41
330
A02
100
AcDbEntity
  8
View
100
AcDbLine
 10
530.5
 20
444
 30
0
 11
510.5
 21
444
 31
0
  0
LINE
  5
A42
330
A02
100
AcDbEntity
  8
View
100
AcDbLine
 10
530.5
 20
443.99
 30
0
 11
530.5
 21
444
 31
0
  0
LINE
  5
A43
330
A02
100
AcDbEntity
  8
View
100
AcDbLine
 10
527.5
 20
443.99
 30
0
 11
530.5
 21
443.99
 31
0
  0
LINE
  5
A44
330
A02
100
AcDbEntity
  8
View
100
AcDbLine
 10
527.5
 20
426.99
 30
0
 11
527.5
 21
443.99
 31
0
  0
LINE
  5
A45
330
A02
100
AcDbEntity
  8
View
100
AcDbLine
 10
530.5
 20
426.99
 30
0
 11
527.5
 21
426.99
 31
0
  0
LINE
  5
A46
330
A02
100
AcDbEntity
  8
View
100
AcDbLine
 10
530.5
 20
407
 30
0
 11
530.5
 21
426.99
 31
0
  0
LINE
  5
A47
330
A02
100
AcDbEntity
  8
View
100
AcDbLine
 10
527.5
 20
407
 30
0
 11
530.5
 21
407
 31
0
  0
LINE
  5
A48
330
A02
100
AcDbEntity
  8
View
100
AcDbLine
 10
527.5
 20
387
 30
0
 11
527.5
 21
407
 31
0
  0
LINE
  5
A49
330
A02
100
AcDbEntity
  8
View
100
AcDbLine
 10
530.5
 20
387
 30
0
 11
527.5
 21
387
 31
0
  0
LINE
  5
A4A
330
A02
100
AcDbEntity
  8
View
100
AcDbLine
 10
530.5
 20
367
 30
0
 11
530.5
 21
387
 31
0
  0
LINE
  5
A4B
330
A02
100
AcDbEntity
  8
View
100
AcDbLine
 10
527.5
 20
367
 30
0
 11
530.5
 21
367
 31
0
  0
LINE
  5
A4C
330
A02
100
AcDbEntity
  8
View
100
AcDbLine
 10
527.5
 20
347
 30
0
 11
527.5
 21
367
 31
0
  0
LINE
  5
A4D
330
A02
100
AcDbEntity
  8
View
100
AcDbLine
 10
530.5
 20
347
 30
0
 11
527.5
 21
347
 31
0
  0
LINE
  5
A4E
330
A02
100
AcDbEntity
  8
View
100
AcDbLine
 10
530.5
 20
327
 30
0
 11
530.5
 21
347
 31
0
  0
LINE
  5
A4F
330
A02
100
AcDbEntity
  8
View
100
AcDbLine
 10
527.5
 20
327
 30
0
 11
530.5
 21
327
 31
0
  0
LINE
  5
A50
330
A02
100
AcDbEntity
  8
View
100
AcDbLine
 10
527.5
 20
307
 30
0
 11
527.5
 21
327
 31
0
  0
LINE
  5
A51
330
A02
100
AcDbEntity
  8
View
100
AcDbLine
 10
530.5
 20
307
 30
0
 11
527.5
 21
307
 31
0
  0
LINE
  5
A52
330
A02
100
AcDbEntity
  8
View
100
AcDbLine
 10
530.5
 20
287
 30
0
 11
530.5
 21
307
 31
0
  0
LINE
  5
A53
330
A02
100
AcDbEntity
  8
View
100
AcDbLine
 10
527.5
 20
287
 30
0
 11
530.5
 21
287
 31
0
  0
LINE
  5
A54
330
A02
100
AcDbEntity
  8
View
100
AcDbLine
 10
527.5
 20
267
 30
0
 11
527.5
 21
287
 31
0
  0
LINE
  5
A55
330
A02
100
AcDbEntity
  8
View
100
AcDbLine
 10
530.5
 20
267
 30
0
 11
527.5
 21
267
 31
0
  0
LINE
  5
A56
330
A02
100
AcDbEntity
  8
View
100
AcDbLine
 10
530.5
 20
247
 30
0
 11
530.5
 21
267
 31
0
  0
LINE
  5
A57
330
A02
100
AcDbEntity
  8
View
100
AcDbLine
 10
527.5
 20
247
 30
0
 11
530.5
 21
247
 31
0
  0
LINE
  5
A58
330
A02
100
AcDbEntity
  8
View
100
AcDbLine
 10
527.5
 20
227
 30
0
 11
527.5
 21
247
 31
0
  0
LINE
  5
A59
330
A02
100
AcDbEntity
  8
View
100
AcDbLine
 10
530.5
 20
227
 30
0
 11
527.5
 21
227
 31
0
  0
LINE
  5
A5A
330
A02
100
AcDbEntity
  8
View
100
AcDbLine
 10
530.5
 20
207
 30
0
 11
530.5
 21
227
 31
0
  0
LINE
  5
A5B
330
A02
100
AcDbEntity
  8
View
100
AcDbLine
 10
527.5
 20
207
 30
0
 11
530.5
 21
207
 31
0
  0
LINE
  5
A5C
330
A02
100
AcDbEntity
  8
View
100
AcDbLine
 10
527.5
 20
187
 30
0
 11
527.5
 21
207
 31
0
  0
LINE
  5
A5D
330
A02
100
AcDbEntity
  8
View
100
AcDbLine
 10
530.5
 20
187
 30
0
 11
527.5
 21
187
 31
0
  0
LINE
  5
A5E
330
A02
100
AcDbEntity
  8
View
100
AcDbLine
 10
530.5
 20
167.01
 30
0
 11
530.5
 21
187
 31
0
  0
LINE
  5
A5F
330
A02
100
AcDbEntity
  8
View
100
AcDbLine
 10
527.5
 20
167.01
 30
0
 11
530.5
 21
167.01
 31
0
  0
LINE
  5
A60
330
A02
100
AcDbEntity
  8
View
100
AcDbLine
 10
527.5
 20
150.01
 30
0
 11
527.5
 21
167.01
 31
0
  0
LINE
  5
A61
330
A02
100
AcDbEntity
  8
View
100
AcDbLine
 10
530.5
 20
150.01
 30
0
 11
527.5
 21
150.01
 31
0
  0
LINE
  5
A62
330
A02
100
AcDbEntity
  8
View
100
AcDbLine
 10
530.5
 20
150
 30
0
 11
530.5
 21
150.01
 31
0
  0
LINE
  5
A63
330
A02
100
AcDbEntity
  8
View
100
AcDbLine
 10
510.5
 20
150
 30
0
 11
530.5
 21
150
 31
0
  0
LINE
  5
A64
330
A02
100
AcDbEntity
  8
View
100
AcDbLine
 10
510.5
 20
147
 30
0
 11
510.5
 21
150
 31
0
  0
LINE
  5
A65
330
A02
100
AcDbEntity
  8
View
100
AcDbLine
 10
490.5
 20
147
 30
0
 11
510.5
 21
147
 31
0
  0
LINE
  5
A66
330
A02
100
AcDbEntity
  8
View
100
AcDbLine
 10
490.5
 20
150
 30
0
 11
490.5
 21
147
 31
0
  0
LINE
  5
A67
330
A02
100
AcDbEntity
  8
View
100
AcDbLine
 10
470.5
 20
150
 30
0
 11
490.5
 21
150
 31
0
  0
LINE
  5
A68
330
A02
100
AcDbEntity
  8
View
100
AcDbLine
 10
470.5
 20
147
 30
0
 11
470.5
 21
150
 31
0
  0
LINE
  5
A69
330
A02
100
AcDbEntity
  8
View
100
AcDbLine
 10
450.5
 20
147
 30
0
 11
470.5
 21
147
 31
0
  0
LINE
  5
A6A
330
A02
100
AcDbEntity
  8
View
100
AcDbLine
 10
450.5
 20
150
 30
0
 11
450.5
 21
147
 31
0
  0
LINE
  5
A6B
330
A02
100
AcDbEntity
  8
View
100
AcDbLine
 10
430.5
 20
150
 30
0
 11
450.5
 21
150
 31
0
  0
LINE
  5
A6C
330
A02
100
AcDbEntity
  8
View
100
AcDbLine
 10
430.5
 20
147
 30
0
 11
430.5
 21
150
 31
0
  0
LINE
  5
A6D
330
A02
100
AcDbEntity
  8
View
100
AcDbLine
 10
410.5
 20
147
 30
0
 11
430.5
 21
147
 31
0
  0
LINE
  5
A6E
330
A02
100
AcDbEntity
  8
View
100
AcDbLine
 10
410.5
 20
150
 30
0
 11
410.5
 21
147
 31
0
  0
LINE
  5
A6F
330
A02
100
AcDbEntity
  8
View
100
AcDbLine
 10
390.5
 20
150
 30
0
 11
410.5
 21
150
 31
0
  0
LINE
  5
A70
330
A02
100
AcDbEntity
  8
View
100
AcDbLine
 10
390.5
 20
147
 30
0
 11
390.5
 21
150
 31
0
  0
LINE
  5
A71
330
A02
100
AcDbEntity
  8
View
100
AcDbLine
 10
370.5
 20
147
 30
0
 11
390.5
 21
147
 31
0
  0
LINE
  5
A72
330
A02
100
AcDbEntity
  8
View
100
AcDbLine
 10
370.5
 20
150
 30
0
 11
370.5
 21
147
 31
0
  0
LINE
  5
A73
330
A02
100
AcDbEntity
  8
View
100
AcDbLine
 10
350.5
 20
150
 30
0
 11
370.5
 21
150
 31
0
  0
CIRCLE
  5
A74
330
A02
100
AcDbEntity
  8
View
100
AcDbCircle
 10
325.5
 20
166
 40
3
  0
CIRCLE
  5
A75
330
A02
100
AcDbEntity
  8
View
100
AcDbCircle
 10
325.5
 20
202
 40
3
  0
CIRCLE
  5
A76
330
A02
100
AcDbEntity
  8
View
100
AcDbCircle
 10
364
 20
225
 40
1.5
  0
CIRCLE
  5
A77
330
A02
100
AcDbEntity
  8
View
100
AcDbCircle
 10
415.5
 20
166
 40
3
  0
CIRCLE
  5
A78
330
A02
100
AcDbEntity
  8
View
100
AcDbCircle
 10
415.5
 20
202
 40
3
  0
CIRCLE
  5
A79
330
A02
100
AcDbEntity
  8
View
100
AcDbCircle
 10
410.5
 20
226.5
 40
1.5
  0
LINE
  5
A7A
330
A02
100
AcDbEntity
  8
View
100
AcDbLine
 10
322.5
 20
237.5
 30
0
 11
322.5
 21
332.5
 31
0
  0
LINE
  5
A7B
330
A02
100
AcDbEntity
  8
View
100
AcDbLine
 10
355
 20
237.5
 30
0
 11
322.5
 21
237.5
 31
0
  0
LINE
  5
A7C
330
A02
100
AcDbEntity
  8
View
100
AcDbLine
 10
355
 20
332.5
 30
0
 11
355
 21
237.5
 31
0
  0
LINE
  5
A7D
330
A02
100
AcDbEntity
  8
View
100
AcDbLine
 10
322.5
 20
332.5
 30
0
 11
355
 21
332.5
 31
0
  0
CIRCLE
  5
A7E
330
A02
100
AcDbEntity
  8
View
100
AcDbCircle
 10
411.5
 20
299
 40
1.5
  0
CIRCLE
  5
A7F
330
A02
100
AcDbEntity
  8
View
100
AcDbCircle
 10
425.5
 20
166
 40
3
  0
CIRCLE
  5
A80
330
A02
100
AcDbEntity
  8
View
100
AcDbCircle
 10
425.5
 20
202
 40
3
  0
CIRCLE
  5
A81
330
A02
100
AcDbEntity
  8
View
100
AcDbCircle
 10
515.5
 20
166
 40
3
  0
CIRCLE
  5
A82
330
A02
100
AcDbEntity
  8
View
100
AcDbCircle
 10
515.5
 20
202
 40
3
  0
LINE
  5
A83
330
A02
100
AcDbEntity
  8
View
100
AcDbLine
 10
496.5
 20
237.5
 30
0
 11
496.5
 21
332.5
 31
0
  0
LINE
  5
A84
330
A02
100
AcDbEntity
  8
View
100
AcDbLine
 10
518.5
 20
237.5
 30
0
 11
496.5
 21
237.5
 31
0
  0
LINE
  5
A85
330
A02
100
AcDbEntity
  8
View
100
AcDbLine
 10
518.5
 20
332.5
 30
0
 11
518.5
 21
237.5
 31
0
  0
LINE
  5
A86
330
A02
100
AcDbEntity
  8
View
100
AcDbLine
 10
496.5
 20
332.5
 30
0
 11
518.5
 21
332.5
 31
0
  0
CIRCLE
  5
A87
330
A02
100
AcDbEntity
  8
View
100
AcDbCircle
 10
364
 20
308
 40
1.5
  0
CIRCLE
  5
A88
330
A02
100
AcDbEntity
  8
View
100
AcDbCircle
 10
369.5
 20
344.5
 40
1.35
  0
CIRCLE
  5
A89
330
A02
100
AcDbEntity
  8
View
100
AcDbCircle
 10
369.5
 20
393.5
 40
1.35
  0
LINE
  5
A8A
330
A02
100
AcDbEntity
  8
View
100
AcDbLine
 10
408.5
 20
409
 30
0
 11
408.5
 21
434
 31
0
  0
LINE
  5
A8B
330
A02
100
AcDbEntity
  8
View
100
AcDbLine
 10
432.5
 20
409
 30
0
 11
408.5
 21
409
 31
0
  0
LINE
  5
A8C
330
A02
100
AcDbEntity
  8
View
100
AcDbLine
 10
432.5
 20
434
 30
0
 11
432.5
 21
409
 31
0
  0
LINE
  5
A8D
330
A02
100
AcDbEntity
  8
View
100
AcDbLine
 10
408.5
 20
434
 30
0
 11
432.5
 21
434
 31
0
  0
CIRCLE
  5
A8E
330
A02
100
AcDbEntity
  8
View
100
AcDbCircle
 10
427.5
 20
344.5
 40
1.35
  0
CIRCLE
  5
A8F
330
A02
100
AcDbEntity
  8
View
100
AcDbCircle
 10
463.5
 20
341.5
 40
1.5
  0
CIRCLE
  5
A90
330
A02
100
AcDbEntity
  8
View
100
AcDbCircle
 10
505.5
 20
341.5
 40
1.5
  0
CIRCLE
  5
A91
330
A02
100
AcDbEntity
  8
View
100
AcDbCircle
 10
427.5
 20
393.5
 40
1.35
  0
CIRCLE
  5
A92
330
A02
100
AcDbEntity
  8
View
100
AcDbCircle
 10
463.5
 20
374.5
 40
1.5
  0
CIRCLE
  5
A93
330
A02
100
AcDbEntity
  8
View
100
AcDbCircle
 10
468.3
 20
406
 40
1
  0
CIRCLE
  5
A94
330
A02
100
AcDbEntity
  8
View
100
AcDbCircle
 10
505.5
 20
374.5
 40
1.5
  0
CIRCLE
  5
A95
330
A02
100
AcDbEntity
  8
View
100
AcDbCircle
 10
489.3
 20
416
 40
1.5
  0
CIRCLE
  5
A96
330
A02
100
AcDbEntity
  8
View
100
AcDbCircle
 10
489.3
 20
426.5
 40
1.5
  0
CIRCLE
  5
A97
330
A02
100
AcDbEntity
  8
View
100
AcDbCircle
 10
483.3
 20
437
 40
1
  0
CIRCLE
  5
A98
330
A02
100
AcDbEntity
  8
View
100
AcDbCircle
 10
516.7
 20
416
 40
1.5
  0
LINE
  5
A99
330
A02
100
AcDbEntity
  8
View
100
AcDbLine
 10
497.5
 20
418
 30
0
 11
497.5
 21
439
 31
0
  0
LINE
  5
A9A
330
A02
100
AcDbEntity
  8
View
100
AcDbLine
 10
508.5
 20
418
 30
0
 11
497.5
 21
418
 31
0
  0
LINE
  5
A9B
330
A02
100
AcDbEntity
  8
View
100
AcDbLine
 10
508.5
 20
439
 30
0
 11
508.5
 21
418
 31
0
  0
LINE
  5
A9C
330
A02
100
AcDbEntity
  8
View
100
AcDbLine
 10
497.5
 20
439
 30
0
 11
508.5
 21
439
 31
0
  0
CIRCLE
  5
A9D
330
A02
100
AcDbEntity
  8
View
100
AcDbCircle
 10
516.7
 20
426.5
 40
1.5
  0
ENDSEC
  0
SECTION
  2
OBJECTS
  0
DICTIONARY
  5
F000
330
0
100
AcDbDictionary
  3
ACAD_GROUP
350
F001
  0
DICTIONARY
  5
F001
330
F000
100
AcDbDictionary
  0
ENDSEC
  0
EOF