999
FreeCAD v0.19 24366 (Git)
  0
SECTION
  2
HEADER
  9
$ACADVER
  1
AC1014
  9
$ACADMAINTVER
 70
     9
  9
$DWGCODEPAGE
  3
ANSI_1252
  9
$TEXTSTYLE
  7
STANDARD
  9
$DIMSTYLE
  2
STANDARD
  9
$DIMTXSTY
  7
STANDARD
  9
$CMLSTYLE
  2
STANDARD
  9
$PEXTMAX
 10
50
 20
50
 30
50
  9
$PEXTMIN
 10
0
 20
0
 30
0
  9
$HANDSEED
  5
FFFF
  0
ENDSEC
  0
SECTION
  2
CLASSES
  0
CLASS
  1
ACDBDICTIONARYWDFLT
  2
AcDbDictionaryWithDefault
  3
ObjectDBX Classes
 90
        0
280
     0
281
     0
  0
CLASS
  1
XRECORD
  2
AcDbXrecord
  3
ObjectDBX Classes
 90
        0
280
     0
281
     0
  0
CLASS
  1
LWPOLYLINE
  2
AcDbPolyline
  3
ObjectDBX Classes
 90
        0
280
     0
281
     1
  0
ENDSEC
  0
SECTION
  2
TABLES
  0
TABLE
  2
VPORT
  5
20
330
0
100
AcDbSymbolTable
 70
     1
  0
VPORT
  5
21
330
20
100
AcDbSymbolTableRecord
100
AcDbViewportTableRecord
  2
*ACTIVE
 70
     0
  0
ENDTAB
  0
TABLE
  2
LTYPE
  5
22
330
0
100
AcDbSymbolTable
 70
     1
  0
LTYPE
  5
23
330
21
100
AcDbSymbolTableRecord
100
AcDbLinetypeTableRecord
  2
BYBLOCK
 70
     0
  3

 72
    65
 73
     0
 40
0.0
  0
LTYPE
  5
24
330
21
100
AcDbSymbolTableRecord
100
AcDbLinetypeTableRecord
  2
BYLAYER
 70
     0
  3

 72
    65
 73
     0
 40
0.0
  0
LTYPE
  5
25
330
21
100
AcDbSymbolTableRecord
100
AcDbLinetypeTableRecord
  2
CONTINUOUS
 70
     0
  3
Solid line
 72
    65
 73
     0
 40
0.0
  0
ENDTAB
  0
TABLE
  2
LAYER
  5
ABE
330
0
100
AcDbSymbolTable
 70
2
  0
LAYER
  5
ABF
330
ABE
100
AcDbSymbolTableRecord
100
AcDbLayerTableRecord
  2
0
 70
   0
 62
   7
  6
CONTINUOUS
  0
LAYER
  5
AC0
330
ABE
100
AcDbSymbolTableRecord
100
AcDbLayerTableRecord
  2
View
 70
    0
 62
    7
  6
CONTINUOUS
  0
ENDTAB
  0
TABLE
  2
STYLE
  5
70
330
0
100
AcDbSymbolTable
 70
     2
  0
STYLE
  5
71
330
70
100
AcDbSymbolTableRecord
100
AcDbTextStyleTableRecord
  2
STANDARD
 70
     0
 40
0.0
 41
1.0
 50
0.0
 71
     0
 42
2.5
  3
arial.ttf
  4

  0
STYLE
  5
72
330
70
100
AcDbSymbolTableRecord
100
AcDbTextStyleTableRecord
  2
ANNOTATIVE
 70
     0
 40
0.0
 41
1.0
 50
0.0
 71
     0
 42
2.5
  3
arial.ttf
  4

  0
ENDTAB
  0
TABLE
  2
VIEW
  5
73
330
0
100
AcDbSymbolTable
 70
     0
  0
ENDTAB
  0
TABLE
  2
UCS
  5
74
330
0
100
AcDbSymbolTable
 70
     0
  0
ENDTAB
  0
TABLE
  2
APPID
  5
75
330
0
100
AcDbSymbolTable
 70
     2
  0
APPID
  5
76
330
75
100
AcDbSymbolTableRecord
100
AcDbRegAppTableRecord
  2
ACAD
 70
     0
  0
APPID
  5
77
330
75
100
AcDbSymbolTableRecord
100
AcDbRegAppTableRecord
  2
ACADANNOTATIVE
 70
     0
  0
ENDTAB
  0
TABLE
  2
DIMSTYLE
  5
78
330
0
100
AcDbSymbolTable
 70
     2
  0
DIMSTYLE
105
79
330
78
100
AcDbSymbolTableRecord
100
AcDbDimStyleTableRecord
  2
STANDARD
 70
     0
  3

  4

  5

  6

  7

 40
0.0
 41
2.5
 42
0.625
 43
3.75
 44
1.25
 45
0.0
 46
0.0
 47
0.0
 48
0.0
140
2.5
141
2.5
142
0.0
143
0.03937007874016
144
1.0
145
0.0
146
1.0
147
0.625
 71
     0
 72
     0
 73
     0
 74
     0
 75
     0
 76
     0
 77
     1
 78
     8
170
     0
171
     3
172
     1
173
     0
174
     0
175
     0
176
     0
177
     0
178
     0
270
     2
271
     2
272
     2
273
     2
274
     3
340
71
275
     0
280
     0
281
     0
282
     0
283
     0
284
     8
285
     0
286
     0
287
     3
288
     0
  0
ENDTAB
  0
TABLE
  2
BLOCK_RECORD
  5
A01
330
0
100
AcDbSymbolTable
  70
5
  0
BLOCK_RECORD
  5
A02
330
A01
100
AcDbSymbolTableRecord
100
AcDbBlockTableRecord
  2
*MODEL_SPACE
  0
BLOCK_RECORD
  5
A03
330
A01
100
AcDbSymbolTableRecord
100
AcDbBlockTableRecord
  2
*PAPER_SPACE
  0
ENDTAB
  0
ENDSEC
  0
SECTION
  2
BLOCKS
  0
BLOCK
  5
A04
330
A02
100
AcDbEntity
  8
0
100
AcDbBlockBegin
  2
*MODEL_SPACE
 70
   0
 10
0
 20
0
 30
0
  3
*MODEL_SPACE
  1
 
  0
ENDBLK
  5
A05
330
A02
100
AcDbEntity
  8
0
100
AcDbBlockEnd
  0
BLOCK
  5
A06
330
A03
100
AcDbEntity
 67
1
  8
0
100
AcDbBlockBegin
  2
*PAPER_SPACE
 70
   0
 10
0
 20
0
 30
0
  3
*PAPER_SPACE
  1
 
  0
ENDBLK
  5
A07
330
A03
100
AcDbEntity
 67
    1
  8
0
100
AcDbBlockEnd
  0
ENDSEC
  0
SECTION
  2
ENTITIES
  0
LINE
  5
A08
330
A02
100
AcDbEntity
  8
View
100
AcDbLine
 10
112.352
 20
378.822
 30
0
 11
132.352
 21
378.822
 31
0
  0
LINE
  5
A09
330
A02
100
AcDbEntity
  8
View
100
AcDbLine
 10
112.352
 20
378.822
 30
0
 11
112.352
 21
375.822
 31
0
  0
LINE
  5
A0A
330
A02
100
AcDbEntity
  8
View
100
AcDbLine
 10
112.352
 20
375.822
 30
0
 11
92.3521
 21
375.822
 31
0
  0
LINE
  5
A0B
330
A02
100
AcDbEntity
  8
View
100
AcDbLine
 10
132.352
 20
375.822
 30
0
 11
132.352
 21
378.822
 31
0
  0
LINE
  5
A0C
330
A02
100
AcDbEntity
  8
View
100
AcDbLine
 10
92.3521
 20
375.812
 30
0
 11
92.3521
 21
375.822
 31
0
  0
LINE
  5
A0D
330
A02
100
AcDbEntity
  8
View
100
AcDbLine
 10
152.352
 20
375.822
 30
0
 11
132.352
 21
375.822
 31
0
  0
LINE
  5
A0E
330
A02
100
AcDbEntity
  8
View
100
AcDbLine
 10
95.3521
 20
375.812
 30
0
 11
92.3521
 21
375.812
 31
0
  0
LINE
  5
A0F
330
A02
100
AcDbEntity
  8
View
100
AcDbLine
 10
152.352
 20
378.822
 30
0
 11
152.352
 21
375.822
 31
0
  0
LINE
  5
A10
330
A02
100
AcDbEntity
  8
View
100
AcDbLine
 10
95.3521
 20
358.812
 30
0
 11
95.3521
 21
375.812
 31
0
  0
LINE
  5
A11
330
A02
100
AcDbEntity
  8
View
100
AcDbLine
 10
152.352
 20
378.822
 30
0
 11
172.352
 21
378.822
 31
0
  0
LINE
  5
A12
330
A02
100
AcDbEntity
  8
View
100
AcDbLine
 10
92.3521
 20
358.812
 30
0
 11
95.3521
 21
358.812
 31
0
  0
LINE
  5
A13
330
A02
100
AcDbEntity
  8
View
100
AcDbLine
 10
172.352
 20
375.822
 30
0
 11
172.352
 21
378.822
 31
0
  0
LINE
  5
A14
330
A02
100
AcDbEntity
  8
View
100
AcDbLine
 10
92.3521
 20
338.822
 30
0
 11
92.3521
 21
358.812
 31
0
  0
LINE
  5
A15
330
A02
100
AcDbEntity
  8
View
100
AcDbLine
 10
192.352
 20
375.822
 30
0
 11
172.352
 21
375.822
 31
0
  0
LINE
  5
A16
330
A02
100
AcDbEntity
  8
View
100
AcDbLine
 10
95.3521
 20
338.822
 30
0
 11
92.3521
 21
338.822
 31
0
  0
LINE
  5
A17
330
A02
100
AcDbEntity
  8
View
100
AcDbLine
 10
192.352
 20
378.822
 30
0
 11
192.352
 21
375.822
 31
0
  0
LINE
  5
A18
330
A02
100
AcDbEntity
  8
View
100
AcDbLine
 10
95.3521
 20
318.822
 30
0
 11
95.3521
 21
338.822
 31
0
  0
LINE
  5
A19
330
A02
100
AcDbEntity
  8
View
100
AcDbLine
 10
192.352
 20
378.822
 30
0
 11
212.352
 21
378.822
 31
0
  0
LINE
  5
A1A
330
A02
100
AcDbEntity
  8
View
100
AcDbLine
 10
92.3521
 20
318.822
 30
0
 11
95.3521
 21
318.822
 31
0
  0
LINE
  5
A1B
330
A02
100
AcDbEntity
  8
View
100
AcDbLine
 10
212.352
 20
375.822
 30
0
 11
212.352
 21
378.822
 31
0
  0
LINE
  5
A1C
330
A02
100
AcDbEntity
  8
View
100
AcDbLine
 10
92.3521
 20
298.822
 30
0
 11
92.3521
 21
318.822
 31
0
  0
LINE
  5
A1D
330
A02
100
AcDbEntity
  8
View
100
AcDbLine
 10
232.352
 20
375.822
 30
0
 11
212.352
 21
375.822
 31
0
  0
LINE
  5
A1E
330
A02
100
AcDbEntity
  8
View
100
AcDbLine
 10
95.3521
 20
298.822
 30
0
 11
92.3521
 21
298.822
 31
0
  0
LINE
  5
A1F
330
A02
100
AcDbEntity
  8
View
100
AcDbLine
 10
232.352
 20
378.822
 30
0
 11
232.352
 21
375.822
 31
0
  0
LINE
  5
A20
330
A02
100
AcDbEntity
  8
View
100
AcDbLine
 10
95.3521
 20
278.822
 30
0
 11
95.3521
 21
298.822
 31
0
  0
LINE
  5
A21
330
A02
100
AcDbEntity
  8
View
100
AcDbLine
 10
232.352
 20
378.822
 30
0
 11
252.352
 21
378.822
 31
0
  0
LINE
  5
A22
330
A02
100
AcDbEntity
  8
View
100
AcDbLine
 10
92.3521
 20
278.822
 30
0
 11
95.3521
 21
278.822
 31
0
  0
LINE
  5
A23
330
A02
100
AcDbEntity
  8
View
100
AcDbLine
 10
252.352
 20
375.822
 30
0
 11
252.352
 21
378.822
 31
0
  0
LINE
  5
A24
330
A02
100
AcDbEntity
  8
View
100
AcDbLine
 10
92.3521
 20
258.822
 30
0
 11
92.3521
 21
278.822
 31
0
  0
LINE
  5
A25
330
A02
100
AcDbEntity
  8
View
100
AcDbLine
 10
272.352
 20
375.822
 30
0
 11
252.352
 21
375.822
 31
0
  0
LINE
  5
A26
330
A02
100
AcDbEntity
  8
View
100
AcDbLine
 10
95.3521
 20
258.822
 30
0
 11
92.3521
 21
258.822
 31
0
  0
LINE
  5
A27
330
A02
100
AcDbEntity
  8
View
100
AcDbLine
 10
272.352
 20
378.822
 30
0
 11
272.352
 21
375.822
 31
0
  0
LINE
  5
A28
330
A02
100
AcDbEntity
  8
View
100
AcDbLine
 10
95.3521
 20
238.822
 30
0
 11
95.3521
 21
258.822
 31
0
  0
LINE
  5
A29
330
A02
100
AcDbEntity
  8
View
100
AcDbLine
 10
272.352
 20
378.822
 30
0
 11
292.352
 21
378.822
 31
0
  0
LINE
  5
A2A
330
A02
100
AcDbEntity
  8
View
100
AcDbLine
 10
92.3521
 20
238.822
 30
0
 11
95.3521
 21
238.822
 31
0
  0
LINE
  5
A2B
330
A02
100
AcDbEntity
  8
View
100
AcDbLine
 10
292.352
 20
375.822
 30
0
 11
292.352
 21
378.822
 31
0
  0
LINE
  5
A2C
330
A02
100
AcDbEntity
  8
View
100
AcDbLine
 10
92.3521
 20
218.822
 30
0
 11
92.3521
 21
238.822
 31
0
  0
LINE
  5
A2D
330
A02
100
AcDbEntity
  8
View
100
AcDbLine
 10
312.352
 20
375.822
 30
0
 11
292.352
 21
375.822
 31
0
  0
LINE
  5
A2E
330
A02
100
AcDbEntity
  8
View
100
AcDbLine
 10
95.3521
 20
218.822
 30
0
 11
92.3521
 21
218.822
 31
0
  0
LINE
  5
A2F
330
A02
100
AcDbEntity
  8
View
100
AcDbLine
 10
312.352
 20
375.822
 30
0
 11
312.352
 21
375.812
 31
0
  0
LINE
  5
A30
330
A02
100
AcDbEntity
  8
View
100
AcDbLine
 10
95.3521
 20
198.822
 30
0
 11
95.3521
 21
218.822
 31
0
  0
LINE
  5
A31
330
A02
100
AcDbEntity
  8
View
100
AcDbLine
 10
312.352
 20
375.812
 30
0
 11
309.352
 21
375.812
 31
0
  0
LINE
  5
A32
330
A02
100
AcDbEntity
  8
View
100
AcDbLine
 10
92.3521
 20
198.822
 30
0
 11
95.3521
 21
198.822
 31
0
  0
LINE
  5
A33
330
A02
100
AcDbEntity
  8
View
100
AcDbLine
 10
309.352
 20
375.812
 30
0
 11
309.352
 21
358.812
 31
0
  0
LINE
  5
A34
330
A02
100
AcDbEntity
  8
View
100
AcDbLine
 10
92.3521
 20
178.822
 30
0
 11
92.3521
 21
198.822
 31
0
  0
LINE
  5
A35
330
A02
100
AcDbEntity
  8
View
100
AcDbLine
 10
309.352
 20
358.812
 30
0
 11
312.352
 21
358.812
 31
0
  0
LINE
  5
A36
330
A02
100
AcDbEntity
  8
View
100
AcDbLine
 10
95.3521
 20
178.822
 30
0
 11
92.3521
 21
178.822
 31
0
  0
LINE
  5
A37
330
A02
100
AcDbEntity
  8
View
100
AcDbLine
 10
312.352
 20
358.812
 30
0
 11
312.352
 21
338.822
 31
0
  0
LINE
  5
A38
330
A02
100
AcDbEntity
  8
View
100
AcDbLine
 10
95.3521
 20
158.822
 30
0
 11
95.3521
 21
178.822
 31
0
  0
LINE
  5
A39
330
A02
100
AcDbEntity
  8
View
100
AcDbLine
 10
312.352
 20
338.822
 30
0
 11
309.352
 21
338.822
 31
0
  0
LINE
  5
A3A
330
A02
100
AcDbEntity
  8
View
100
AcDbLine
 10
92.3521
 20
158.822
 30
0
 11
95.3521
 21
158.822
 31
0
  0
LINE
  5
A3B
330
A02
100
AcDbEntity
  8
View
100
AcDbLine
 10
309.352
 20
338.822
 30
0
 11
309.352
 21
318.822
 31
0
  0
LINE
  5
A3C
330
A02
100
AcDbEntity
  8
View
100
AcDbLine
 10
92.3521
 20
138.822
 30
0
 11
92.3521
 21
158.822
 31
0
  0
LINE
  5
A3D
330
A02
100
AcDbEntity
  8
View
100
AcDbLine
 10
309.352
 20
318.822
 30
0
 11
312.352
 21
318.822
 31
0
  0
LINE
  5
A3E
330
A02
100
AcDbEntity
  8
View
100
AcDbLine
 10
95.3521
 20
138.822
 30
0
 11
92.3521
 21
138.822
 31
0
  0
LINE
  5
A3F
330
A02
100
AcDbEntity
  8
View
100
AcDbLine
 10
312.352
 20
318.822
 30
0
 11
312.352
 21
298.822
 31
0
  0
LINE
  5
A40
330
A02
100
AcDbEntity
  8
View
100
AcDbLine
 10
95.3521
 20
118.822
 30
0
 11
95.3521
 21
138.822
 31
0
  0
LINE
  5
A41
330
A02
100
AcDbEntity
  8
View
100
AcDbLine
 10
312.352
 20
298.822
 30
0
 11
309.352
 21
298.822
 31
0
  0
LINE
  5
A42
330
A02
100
AcDbEntity
  8
View
100
AcDbLine
 10
92.3521
 20
118.822
 30
0
 11
95.3521
 21
118.822
 31
0
  0
LINE
  5
A43
330
A02
100
AcDbEntity
  8
View
100
AcDbLine
 10
309.352
 20
298.822
 30
0
 11
309.352
 21
278.822
 31
0
  0
LINE
  5
A44
330
A02
100
AcDbEntity
  8
View
100
AcDbLine
 10
92.3521
 20
101.832
 30
0
 11
92.3521
 21
118.822
 31
0
  0
LINE
  5
A45
330
A02
100
AcDbEntity
  8
View
100
AcDbLine
 10
309.352
 20
278.822
 30
0
 11
312.352
 21
278.822
 31
0
  0
LINE
  5
A46
330
A02
100
AcDbEntity
  8
View
100
AcDbLine
 10
95.3521
 20
101.832
 30
0
 11
92.3521
 21
101.832
 31
0
  0
LINE
  5
A47
330
A02
100
AcDbEntity
  8
View
100
AcDbLine
 10
312.352
 20
278.822
 30
0
 11
312.352
 21
258.822
 31
0
  0
LINE
  5
A48
330
A02
100
AcDbEntity
  8
View
100
AcDbLine
 10
95.3521
 20
81.832
 30
0
 11
95.3521
 21
101.832
 31
0
  0
LINE
  5
A49
330
A02
100
AcDbEntity
  8
View
100
AcDbLine
 10
312.352
 20
258.822
 30
0
 11
309.352
 21
258.822
 31
0
  0
LINE
  5
A4A
330
A02
100
AcDbEntity
  8
View
100
AcDbLine
 10
92.3521
 20
81.832
 30
0
 11
95.3521
 21
81.832
 31
0
  0
LINE
  5
A4B
330
A02
100
AcDbEntity
  8
View
100
AcDbLine
 10
309.352
 20
258.822
 30
0
 11
309.352
 21
238.822
 31
0
  0
LINE
  5
A4C
330
A02
100
AcDbEntity
  8
View
100
AcDbLine
 10
92.3521
 20
81.822
 30
0
 11
92.3521
 21
81.832
 31
0
  0
LINE
  5
A4D
330
A02
100
AcDbEntity
  8
View
100
AcDbLine
 10
309.352
 20
238.822
 30
0
 11
312.352
 21
238.822
 31
0
  0
LINE
  5
A4E
330
A02
100
AcDbEntity
  8
View
100
AcDbLine
 10
92.3521
 20
81.822
 30
0
 11
112.352
 21
81.822
 31
0
  0
LINE
  5
A4F
330
A02
100
AcDbEntity
  8
View
100
AcDbLine
 10
312.352
 20
238.822
 30
0
 11
312.352
 21
218.822
 31
0
  0
LINE
  5
A50
330
A02
100
AcDbEntity
  8
View
100
AcDbLine
 10
112.352
 20
81.822
 30
0
 11
112.352
 21
78.822
 31
0
  0
LINE
  5
A51
330
A02
100
AcDbEntity
  8
View
100
AcDbLine
 10
312.352
 20
218.822
 30
0
 11
309.352
 21
218.822
 31
0
  0
LINE
  5
A52
330
A02
100
AcDbEntity
  8
View
100
AcDbLine
 10
132.352
 20
78.822
 30
0
 11
112.352
 21
78.822
 31
0
  0
LINE
  5
A53
330
A02
100
AcDbEntity
  8
View
100
AcDbLine
 10
309.352
 20
218.822
 30
0
 11
309.352
 21
198.822
 31
0
  0
LINE
  5
A54
330
A02
100
AcDbEntity
  8
View
100
AcDbLine
 10
132.352
 20
78.822
 30
0
 11
132.352
 21
81.822
 31
0
  0
LINE
  5
A55
330
A02
100
AcDbEntity
  8
View
100
AcDbLine
 10
309.352
 20
198.822
 30
0
 11
312.352
 21
198.822
 31
0
  0
LINE
  5
A56
330
A02
100
AcDbEntity
  8
View
100
AcDbLine
 10
132.352
 20
81.822
 30
0
 11
152.352
 21
81.822
 31
0
  0
LINE
  5
A57
330
A02
100
AcDbEntity
  8
View
100
AcDbLine
 10
312.352
 20
198.822
 30
0
 11
312.352
 21
178.822
 31
0
  0
LINE
  5
A58
330
A02
100
AcDbEntity
  8
View
100
AcDbLine
 10
152.352
 20
81.822
 30
0
 11
152.352
 21
78.822
 31
0
  0
LINE
  5
A59
330
A02
100
AcDbEntity
  8
View
100
AcDbLine
 10
312.352
 20
178.822
 30
0
 11
309.352
 21
178.822
 31
0
  0
LINE
  5
A5A
330
A02
100
AcDbEntity
  8
View
100
AcDbLine
 10
172.352
 20
78.822
 30
0
 11
152.352
 21
78.822
 31
0
  0
LINE
  5
A5B
330
A02
100
AcDbEntity
  8
View
100
AcDbLine
 10
309.352
 20
178.822
 30
0
 11
309.352
 21
158.822
 31
0
  0
LINE
  5
A5C
330
A02
100
AcDbEntity
  8
View
100
AcDbLine
 10
172.352
 20
78.822
 30
0
 11
172.352
 21
81.822
 31
0
  0
LINE
  5
A5D
330
A02
100
AcDbEntity
  8
View
100
AcDbLine
 10
309.352
 20
158.822
 30
0
 11
312.352
 21
158.822
 31
0
  0
LINE
  5
A5E
330
A02
100
AcDbEntity
  8
View
100
AcDbLine
 10
172.352
 20
81.822
 30
0
 11
192.352
 21
81.822
 31
0
  0
LINE
  5
A5F
330
A02
100
AcDbEntity
  8
View
100
AcDbLine
 10
312.352
 20
158.822
 30
0
 11
312.352
 21
138.822
 31
0
  0
LINE
  5
A60
330
A02
100
AcDbEntity
  8
View
100
AcDbLine
 10
192.352
 20
81.822
 30
0
 11
192.352
 21
78.822
 31
0
  0
LINE
  5
A61
330
A02
100
AcDbEntity
  8
View
100
AcDbLine
 10
312.352
 20
138.822
 30
0
 11
309.352
 21
138.822
 31
0
  0
LINE
  5
A62
330
A02
100
AcDbEntity
  8
View
100
AcDbLine
 10
212.352
 20
78.822
 30
0
 11
192.352
 21
78.822
 31
0
  0
LINE
  5
A63
330
A02
100
AcDbEntity
  8
View
100
AcDbLine
 10
309.352
 20
138.822
 30
0
 11
309.352
 21
118.822
 31
0
  0
LINE
  5
A64
330
A02
100
AcDbEntity
  8
View
100
AcDbLine
 10
212.352
 20
78.822
 30
0
 11
212.352
 21
81.822
 31
0
  0
LINE
  5
A65
330
A02
100
AcDbEntity
  8
View
100
AcDbLine
 10
309.352
 20
118.822
 30
0
 11
312.352
 21
118.822
 31
0
  0
LINE
  5
A66
330
A02
100
AcDbEntity
  8
View
100
AcDbLine
 10
212.352
 20
81.822
 30
0
 11
232.352
 21
81.822
 31
0
  0
LINE
  5
A67
330
A02
100
AcDbEntity
  8
View
100
AcDbLine
 10
312.352
 20
118.822
 30
0
 11
312.352
 21
98.832
 31
0
  0
LINE
  5
A68
330
A02
100
AcDbEntity
  8
View
100
AcDbLine
 10
232.352
 20
81.822
 30
0
 11
232.352
 21
78.822
 31
0
  0
LINE
  5
A69
330
A02
100
AcDbEntity
  8
View
100
AcDbLine
 10
312.352
 20
98.832
 30
0
 11
309.352
 21
98.832
 31
0
  0
LINE
  5
A6A
330
A02
100
AcDbEntity
  8
View
100
AcDbLine
 10
252.352
 20
78.822
 30
0
 11
232.352
 21
78.822
 31
0
  0
LINE
  5
A6B
330
A02
100
AcDbEntity
  8
View
100
AcDbLine
 10
309.352
 20
98.832
 30
0
 11
309.352
 21
81.832
 31
0
  0
LINE
  5
A6C
330
A02
100
AcDbEntity
  8
View
100
AcDbLine
 10
252.352
 20
78.822
 30
0
 11
252.352
 21
81.822
 31
0
  0
LINE
  5
A6D
330
A02
100
AcDbEntity
  8
View
100
AcDbLine
 10
309.352
 20
81.832
 30
0
 11
312.352
 21
81.832
 31
0
  0
LINE
  5
A6E
330
A02
100
AcDbEntity
  8
View
100
AcDbLine
 10
252.352
 20
81.822
 30
0
 11
272.352
 21
81.822
 31
0
  0
LINE
  5
A6F
330
A02
100
AcDbEntity
  8
View
100
AcDbLine
 10
312.352
 20
81.832
 30
0
 11
312.352
 21
81.822
 31
0
  0
LINE
  5
A70
330
A02
100
AcDbEntity
  8
View
100
AcDbLine
 10
272.352
 20
81.822
 30
0
 11
272.352
 21
78.822
 31
0
  0
LINE
  5
A71
330
A02
100
AcDbEntity
  8
View
100
AcDbLine
 10
292.352
 20
81.822
 30
0
 11
312.352
 21
81.822
 31
0
  0
LINE
  5
A72
330
A02
100
AcDbEntity
  8
View
100
AcDbLine
 10
292.352
 20
78.822
 30
0
 11
272.352
 21
78.822
 31
0
  0
LINE
  5
A73
330
A02
100
AcDbEntity
  8
View
100
AcDbLine
 10
292.352
 20
78.822
 30
0
 11
292.352
 21
81.822
 31
0
  0
CIRCLE
  5
A74
330
A02
100
AcDbEntity
  8
View
100
AcDbCircle
 10
130.852
 20
361.822
 40
1
  0
CIRCLE
  5
A75
330
A02
100
AcDbEntity
  8
View
100
AcDbCircle
 10
138.352
 20
369.322
 40
1
  0
SPLINE
  5
A76
330
A02
100
AcDbEntity
  8
View
100
AcDbSpline
210
0
220
0
230
1
 70
8
 71
3
 72
17
 73
13
 74
0
 40
0
 40
0
 40
0
 40
0
 40
0.232203
 40
0.232203
 40
0.232203
 40
0.530794
 40
0.530794
 40
0.530794
 40
0.765397
 40
0.765397
 40
0.765397
 40
1
 40
1
 40
1
 40
1
 10
105.427
 20
247.852
 30
0
 10
104.836
 20
247.85
 30
0
 10
104.24
 20
247.978
 30
0
 10
103.723
 20
248.265
 30
0
 10
103.053
 20
248.632
 30
0
 10
102.549
 20
249.247
 30
0
 10
102.222
 20
249.931
 30
0
 10
101.962
 20
250.469
 30
0
 10
101.797
 20
251.049
 30
0
 10
101.693
 20
251.638
 30
0
 10
101.589
 20
252.228
 30
0
 10
101.547
 20
252.827
 30
0
 10
101.547
 20
253.427
 30
0
  0
SPLINE
  5
A77
330
A02
100
AcDbEntity
  8
View
100
AcDbSpline
210
0
220
0
230
1
 70
8
 71
3
 72
17
 73
13
 74
0
 40
0
 40
0
 40
0
 40
0
 40
0.2362
 40
0.2362
 40
0.2362
 40
0.4724
 40
0.4724
 40
0.4724
 40
0.773804
 40
0.773804
 40
0.773804
 40
1
 40
1
 40
1
 40
1
 10
101.547
 20
253.427
 30
0
 10
101.547
 20
254.029
 30
0
 10
101.591
 20
254.63
 30
0
 10
101.698
 20
255.221
 30
0
 10
101.806
 20
255.811
 30
0
 10
101.976
 20
256.392
 30
0
 10
102.242
 20
256.93
 30
0
 10
102.577
 20
257.615
 30
0
 10
103.091
 20
258.229
 30
0
 10
103.77
 20
258.589
 30
0
 10
104.275
 20
258.862
 30
0
 10
104.853
 20
258.984
 30
0
 10
105.427
 20
258.982
 30
0
  0
SPLINE
  5
A78
330
A02
100
AcDbEntity
  8
View
100
AcDbSpline
210
0
220
0
230
1
 70
8
 71
3
 72
17
 73
13
 74
0
 40
0
 40
0
 40
0
 40
0
 40
0.239965
 40
0.239965
 40
0.239965
 40
0.539941
 40
0.539941
 40
0.539941
 40
0.769971
 40
0.769971
 40
0.769971
 40
1
 40
1
 40
1
 40
1
 10
105.427
 20
258.982
 30
0
 10
106.035
 20
258.984
 30
0
 10
106.649
 20
258.851
 30
0
 10
107.178
 20
258.549
 30
0
 10
107.845
 20
258.176
 30
0
 10
108.343
 20
257.556
 30
0
 10
108.664
 20
256.869
 30
0
 10
108.913
 20
256.341
 30
0
 10
109.072
 20
255.774
 30
0
 10
109.172
 20
255.199
 30
0
 10
109.271
 20
254.622
 30
0
 10
109.312
 20
254.037
 30
0
 10
109.312
 20
253.452
 30
0
  0
SPLINE
  5
A79
330
A02
100
AcDbEntity
  8
View
100
AcDbSpline
210
0
220
0
230
1
 70
8
 71
3
 72
17
 73
13
 74
0
 40
0
 40
0
 40
0
 40
0
 40
0.240678
 40
0.240678
 40
0.240678
 40
0.481356
 40
0.481356
 40
0.481356
 40
0.782446
 40
0.782446
 40
0.782446
 40
1
 40
1
 40
1
 40
1
 10
109.312
 20
253.452
 30
0
 10
109.312
 20
252.836
 30
0
 10
109.266
 20
252.221
 30
0
 10
109.154
 20
251.616
 30
0
 10
109.041
 20
251.011
 30
0
 10
108.863
 20
250.417
 30
0
 10
108.586
 20
249.87
 30
0
 10
108.242
 20
249.186
 30
0
 10
107.718
 20
248.575
 30
0
 10
107.032
 20
248.223
 30
0
 10
106.54
 20
247.966
 30
0
 10
105.982
 20
247.851
 30
0
 10
105.427
 20
247.852
 30
0
  0
SPLINE
  5
A7A
330
A02
100
AcDbEntity
  8
View
100
AcDbSpline
210
0
220
0
230
1
 70
8
 71
3
 72
17
 73
13
 74
0
 40
0
 40
0
 40
0
 40
0
 40
0.215218
 40
0.215218
 40
0.215218
 40
0.450033
 40
0.450033
 40
0.450033
 40
0.701668
 40
0.701668
 40
0.701668
 40
1
 40
1
 40
1
 40
1
 10
116.107
 20
248.002
 30
0
 10
115.506
 20
248.002
 30
0
 10
114.902
 20
248.052
 30
0
 10
114.318
 20
248.2
 30
0
 10
113.683
 20
248.359
 30
0
 10
113.073
 20
248.65
 30
0
 10
112.588
 20
249.096
 30
0
 10
112.065
 20
249.57
 30
0
 10
111.706
 20
250.205
 30
0
 10
111.491
 20
250.875
 30
0
 10
111.234
 20
251.674
 30
0
 10
111.153
 20
252.52
 30
0
 10
111.152
 20
253.357
 30
0
  0
SPLINE
  5
A7B
330
A02
100
AcDbEntity
  8
View
100
AcDbSpline
210
0
220
0
230
1
 70
8
 71
3
 72
17
 73
13
 74
0
 40
0
 40
0
 40
0
 40
0
 40
0.301661
 40
0.301661
 40
0.301661
 40
0.461647
 40
0.461647
 40
0.461647
 40
0.725511
 40
0.725511
 40
0.725511
 40
1
 40
1
 40
1
 40
1
 10
111.152
 20
253.357
 30
0
 10
111.153
 20
254.194
 30
0
 10
111.238
 20
255.038
 30
0
 10
111.494
 20
255.836
 30
0
 10
111.631
 20
256.258
 30
0
 10
111.817
 20
256.665
 30
0
 10
112.065
 20
257.032
 30
0
 10
112.471
 20
257.64
 30
0
 10
113.057
 20
258.121
 30
0
 10
113.726
 20
258.407
 30
0
 10
114.423
 20
258.71
 30
0
 10
115.188
 20
258.822
 30
0
 10
115.942
 20
258.822
 30
0
  0
LINE
  5
A7C
330
A02
100
AcDbEntity
  8
View
100
AcDbLine
 10
118.292
 20
258.822
 30
0
 11
115.942
 21
258.822
 31
0
  0
LINE
  5
A7D
330
A02
100
AcDbEntity
  8
View
100
AcDbLine
 10
118.292
 20
248.002
 30
0
 11
118.292
 21
258.822
 31
0
  0
LINE
  5
A7E
330
A02
100
AcDbEntity
  8
View
100
AcDbLine
 10
116.107
 20
248.002
 30
0
 11
118.292
 21
248.002
 31
0
  0
LINE
  5
A7F
330
A02
100
AcDbEntity
  8
View
100
AcDbLine
 10
120.447
 20
258.822
 30
0
 11
121.062
 21
248.002
 31
0
  0
LINE
  5
A80
330
A02
100
AcDbEntity
  8
View
100
AcDbLine
 10
121.477
 20
258.822
 30
0
 11
120.447
 21
258.822
 31
0
  0
LINE
  5
A81
330
A02
100
AcDbEntity
  8
View
100
AcDbLine
 10
121.882
 20
252.862
 30
0
 11
121.477
 21
258.822
 31
0
  0
SPLINE
  5
A82
330
A02
100
AcDbEntity
  8
View
100
AcDbSpline
210
0
220
0
230
1
 70
8
 71
3
 72
17
 73
13
 74
0
 40
0
 40
0
 40
0
 40
0
 40
0.596648
 40
0.596648
 40
0.596648
 40
0.784103
 40
0.784103
 40
0.784103
 40
0.903432
 40
0.903432
 40
0.903432
 40
1
 40
1
 40
1
 40
1
 10
121.882
 20
252.862
 30
0
 10
121.933
 20
252.082
 30
0
 10
121.961
 20
251.293
 30
0
 10
121.986
 20
250.511
 30
0
 10
121.993
 20
250.264
 30
0
 10
122
 20
250.02
 30
0
 10
122.007
 20
249.776
 30
0
 10
122.011
 20
249.621
 30
0
 10
122.016
 20
249.468
 30
0
 10
122.02
 20
249.317
 30
0
 10
122.024
 20
249.197
 30
0
 10
122.027
 20
249.073
 30
0
 10
122.032
 20
248.972
 30
0
  0
LINE
  5
A83
330
A02
100
AcDbEntity
  8
View
100
AcDbLine
 10
124.037
 20
256.857
 30
0
 11
122.032
 21
248.972
 31
0
  0
LINE
  5
A84
330
A02
100
AcDbEntity
  8
View
100
AcDbLine
 10
125.237
 20
256.857
 30
0
 11
124.037
 21
256.857
 31
0
  0
LINE
  5
A85
330
A02
100
AcDbEntity
  8
View
100
AcDbLine
 10
127.387
 20
248.972
 30
0
 11
125.237
 21
256.857
 31
0
  0
SPLINE
  5
A86
330
A02
100
AcDbEntity
  8
View
100
AcDbSpline
210
0
220
0
230
1
 70
8
 71
3
 72
20
 73
16
 74
0
 40
0
 40
0
 40
0
 40
0
 40
0.0662983
 40
0.0662983
 40
0.0662983
 40
0.154571
 40
0.154571
 40
0.154571
 40
0.306295
 40
0.306295
 40
0.306295
 40
0.48668
 40
0.48668
 40
0.48668
 40
1
 40
1
 40
1
 40
1
 10
127.387
 20
248.972
 30
0
 10
127.388
 20
249.043
 30
0
 10
127.388
 20
249.12
 30
0
 10
127.388
 20
249.203
 30
0
 10
127.388
 20
249.313
 30
0
 10
127.389
 20
249.424
 30
0
 10
127.389
 20
249.538
 30
0
 10
127.389
 20
249.732
 30
0
 10
127.389
 20
249.928
 30
0
 10
127.39
 20
250.125
 30
0
 10
127.392
 20
250.361
 30
0
 10
127.393
 20
250.596
 30
0
 10
127.395
 20
250.831
 30
0
 10
127.402
 20
251.501
 30
0
 10
127.412
 20
252.175
 30
0
 10
127.447
 20
252.837
 30
0
  0
LINE
  5
A87
330
A02
100
AcDbEntity
  8
View
100
AcDbLine
 10
127.802
 20
258.822
 30
0
 11
127.447
 21
252.837
 31
0
  0
LINE
  5
A88
330
A02
100
AcDbEntity
  8
View
100
AcDbLine
 10
128.812
 20
258.822
 30
0
 11
127.802
 21
258.822
 31
0
  0
LINE
  5
A89
330
A02
100
AcDbEntity
  8
View
100
AcDbLine
 10
128.197
 20
248.002
 30
0
 11
128.812
 21
258.822
 31
0
  0
LINE
  5
A8A
330
A02
100
AcDbEntity
  8
View
100
AcDbLine
 10
126.517
 20
248.002
 30
0
 11
128.197
 21
248.002
 31
0
  0
LINE
  5
A8B
330
A02
100
AcDbEntity
  8
View
100
AcDbLine
 10
124.597
 20
255.542
 30
0
 11
126.517
 21
248.002
 31
0
  0
LINE
  5
A8C
330
A02
100
AcDbEntity
  8
View
100
AcDbLine
 10
122.762
 20
248.002
 30
0
 11
124.597
 21
255.542
 31
0
  0
LINE
  5
A8D
330
A02
100
AcDbEntity
  8
View
100
AcDbLine
 10
121.062
 20
248.002
 30
0
 11
122.762
 21
248.002
 31
0
  0
CIRCLE
  5
A8E
330
A02
100
AcDbEntity
  8
View
100
AcDbCircle
 10
272.352
 20
369.322
 40
1
  0
CIRCLE
  5
A8F
330
A02
100
AcDbEntity
  8
View
100
AcDbCircle
 10
279.852
 20
361.822
 40
1
  0
LINE
  5
A90
330
A02
100
AcDbEntity
  8
View
100
AcDbLine
 10
133.852
 20
366.822
 30
0
 11
276.852
 21
366.822
 31
0
  0
LINE
  5
A91
330
A02
100
AcDbEntity
  8
View
100
AcDbLine
 10
133.852
 20
121.822
 30
0
 11
133.852
 21
366.822
 31
0
  0
LINE
  5
A92
330
A02
100
AcDbEntity
  8
View
100
AcDbLine
 10
276.852
 20
366.822
 30
0
 11
276.852
 21
121.822
 31
0
  0
LINE
  5
A93
330
A02
100
AcDbEntity
  8
View
100
AcDbLine
 10
276.852
 20
121.822
 30
0
 11
133.852
 21
121.822
 31
0
  0
CIRCLE
  5
A94
330
A02
100
AcDbEntity
  8
View
100
AcDbCircle
 10
106.102
 20
227.322
 40
1
  0
CIRCLE
  5
A95
330
A02
100
AcDbEntity
  8
View
100
AcDbCircle
 10
123.602
 20
227.322
 40
1
  0
CIRCLE
  5
A96
330
A02
100
AcDbEntity
  8
View
100
AcDbCircle
 10
114.852
 20
218.822
 40
7.9
  0
LINE
  5
A97
330
A02
100
AcDbEntity
  8
View
100
AcDbLine
 10
105.702
 20
211.072
 30
0
 11
105.702
 21
201.072
 31
0
  0
LINE
  5
A98
330
A02
100
AcDbEntity
  8
View
100
AcDbLine
 10
109.302
 20
211.072
 30
0
 11
105.702
 21
211.072
 31
0
  0
LINE
  5
A99
330
A02
100
AcDbEntity
  8
View
100
AcDbLine
 10
105.702
 20
201.072
 30
0
 11
109.302
 21
201.072
 31
0
  0
LINE
  5
A9A
330
A02
100
AcDbEntity
  8
View
100
AcDbLine
 10
109.302
 20
201.072
 30
0
 11
109.302
 21
211.072
 31
0
  0
CIRCLE
  5
A9B
330
A02
100
AcDbEntity
  8
View
100
AcDbCircle
 10
106.102
 20
184.822
 40
1
  0
CIRCLE
  5
A9C
330
A02
100
AcDbEntity
  8
View
100
AcDbCircle
 10
114.852
 20
193.322
 40
7.9
  0
CIRCLE
  5
A9D
330
A02
100
AcDbEntity
  8
View
100
AcDbCircle
 10
123.602
 20
184.822
 40
1
  0
CIRCLE
  5
A9E
330
A02
100
AcDbEntity
  8
View
100
AcDbCircle
 10
130.852
 20
126.822
 40
1
  0
CIRCLE
  5
A9F
330
A02
100
AcDbEntity
  8
View
100
AcDbCircle
 10
138.352
 20
119.322
 40
1
  0
CIRCLE
  5
AA0
330
A02
100
AcDbEntity
  8
View
100
AcDbCircle
 10
199.852
 20
114.822
 40
1
  0
CIRCLE
  5
AA1
330
A02
100
AcDbEntity
  8
View
100
AcDbCircle
 10
199.852
 20
104.322
 40
3.6
  0
CIRCLE
  5
AA2
330
A02
100
AcDbEntity
  8
View
100
AcDbCircle
 10
199.852
 20
93.822
 40
1
  0
CIRCLE
  5
AA3
330
A02
100
AcDbEntity
  8
View
100
AcDbCircle
 10
283.602
 20
227.322
 40
1
  0
CIRCLE
  5
AA4
330
A02
100
AcDbEntity
  8
View
100
AcDbCircle
 10
301.102
 20
227.322
 40
1
  0
CIRCLE
  5
AA5
330
A02
100
AcDbEntity
  8
View
100
AcDbCircle
 10
292.352
 20
218.822
 40
7.9
  0
LINE
  5
AA6
330
A02
100
AcDbEntity
  8
View
100
AcDbLine
 10
283.202
 20
211.072
 30
0
 11
283.202
 21
201.072
 31
0
  0
LINE
  5
AA7
330
A02
100
AcDbEntity
  8
View
100
AcDbLine
 10
286.802
 20
211.072
 30
0
 11
283.202
 21
211.072
 31
0
  0
LINE
  5
AA8
330
A02
100
AcDbEntity
  8
View
100
AcDbLine
 10
283.202
 20
201.072
 30
0
 11
286.802
 21
201.072
 31
0
  0
LINE
  5
AA9
330
A02
100
AcDbEntity
  8
View
100
AcDbLine
 10
286.802
 20
201.072
 30
0
 11
286.802
 21
211.072
 31
0
  0
CIRCLE
  5
AAA
330
A02
100
AcDbEntity
  8
View
100
AcDbCircle
 10
283.602
 20
184.822
 40
1
  0
CIRCLE
  5
AAB
330
A02
100
AcDbEntity
  8
View
100
AcDbCircle
 10
292.352
 20
193.322
 40
7.9
  0
CIRCLE
  5
AAC
330
A02
100
AcDbEntity
  8
View
100
AcDbCircle
 10
301.102
 20
184.822
 40
1
  0
CIRCLE
  5
AAD
330
A02
100
AcDbEntity
  8
View
100
AcDbCircle
 10
212.352
 20
114.822
 40
1
  0
CIRCLE
  5
AAE
330
A02
100
AcDbEntity
  8
View
100
AcDbCircle
 10
212.352
 20
93.822
 40
1
  0
CIRCLE
  5
AAF
330
A02
100
AcDbEntity
  8
View
100
AcDbCircle
 10
272.352
 20
119.322
 40
1
  0
CIRCLE
  5
AB0
330
A02
100
AcDbEntity
  8
View
100
AcDbCircle
 10
279.852
 20
126.822
 40
1
  0
LINE
  5
AB1
330
A02
100
AcDbEntity
  8
View
100
AcDbLine
 10
266.852
 20
126.822
 30
0
 11
137.852
 21
126.822
 31
0
  0
LINE
  5
AB2
330
A02
100
AcDbEntity
  8
View
100
AcDbLine
 10
137.852
 20
126.822
 30
0
 11
137.852
 21
363.822
 31
0
  0
LINE
  5
AB3
330
A02
100
AcDbEntity
  8
View
100
AcDbLine
 10
266.852
 20
363.822
 30
0
 11
266.852
 21
126.822
 31
0
  0
LINE
  5
AB4
330
A02
100
AcDbEntity
  8
View
100
AcDbLine
 10
137.852
 20
363.822
 30
0
 11
266.852
 21
363.822
 31
0
  0
SPLINE
  5
AB5
330
A02
100
AcDbEntity
  8
View
100
AcDbSpline
210
0
220
0
230
1
 70
8
 71
3
 72
17
 73
13
 74
0
 40
0
 40
0
 40
0
 40
0
 40
0.235012
 40
0.235012
 40
0.235012
 40
0.48653
 40
0.48653
 40
0.48653
 40
0.858056
 40
0.858056
 40
0.858056
 40
1
 40
1
 40
1
 40
1
 10
105.427
 20
258.052
 30
0
 10
104.949
 20
258.054
 30
0
 10
104.464
 20
257.951
 30
0
 10
104.06
 20
257.693
 30
0
 10
103.625
 20
257.421
 30
0
 10
103.313
 20
256.989
 30
0
 10
103.109
 20
256.521
 30
0
 10
102.807
 20
255.824
 30
0
 10
102.695
 20
255.059
 30
0
 10
102.644
 20
254.301
 30
0
 10
102.625
 20
254.01
 30
0
 10
102.617
 20
253.719
 30
0
 10
102.617
 20
253.427
 30
0
  0
SPLINE
  5
AB6
330
A02
100
AcDbEntity
  8
View
100
AcDbSpline
210
0
220
0
230
1
 70
8
 71
3
 72
17
 73
13
 74
0
 40
0
 40
0
 40
0
 40
0
 40
0.417742
 40
0.417742
 40
0.417742
 40
0.581813
 40
0.581813
 40
0.581813
 40
0.767545
 40
0.767545
 40
0.767545
 40
1
 40
1
 40
1
 40
1
 10
102.617
 20
253.427
 30
0
 10
102.62
 20
252.569
 30
0
 10
102.676
 20
251.702
 30
0
 10
102.91
 20
250.877
 30
0
 10
103.003
 20
250.554
 30
0
 10
103.127
 20
250.239
 30
0
 10
103.298
 20
249.951
 30
0
 10
103.49
 20
249.626
 30
0
 10
103.749
 20
249.336
 30
0
 10
104.07
 20
249.136
 30
0
 10
104.471
 20
248.882
 30
0
 10
104.953
 20
248.78
 30
0
 10
105.427
 20
248.782
 30
0
  0
SPLINE
  5
AB7
330
A02
100
AcDbEntity
  8
View
100
AcDbSpline
210
0
220
0
230
1
 70
8
 71
3
 72
17
 73
13
 74
0
 40
0
 40
0
 40
0
 40
0
 40
0.229857
 40
0.229857
 40
0.229857
 40
0.48155
 40
0.48155
 40
0.48155
 40
0.85414
 40
0.85414
 40
0.85414
 40
1
 40
1
 40
1
 40
1
 10
105.427
 20
248.782
 30
0
 10
105.898
 20
248.78
 30
0
 10
106.376
 20
248.882
 30
0
 10
106.774
 20
249.133
 30
0
 10
107.214
 20
249.404
 30
0
 10
107.531
 20
249.838
 30
0
 10
107.738
 20
250.309
 30
0
 10
108.046
 20
251.011
 30
0
 10
108.161
 20
251.783
 30
0
 10
108.214
 20
252.548
 30
0
 10
108.233
 20
252.849
 30
0
 10
108.243
 20
253.15
 30
0
 10
108.242
 20
253.452
 30
0
  0
SPLINE
  5
AB8
330
A02
100
AcDbEntity
  8
View
100
AcDbSpline
210
0
220
0
230
1
 70
8
 71
3
 72
17
 73
13
 74
0
 40
0
 40
0
 40
0
 40
0
 40
0.436869
 40
0.436869
 40
0.436869
 40
0.589079
 40
0.589079
 40
0.589079
 40
0.773158
 40
0.773158
 40
0.773158
 40
1
 40
1
 40
1
 40
1
 10
108.242
 20
253.452
 30
0
 10
108.239
 20
254.342
 30
0
 10
108.173
 20
255.243
 30
0
 10
107.902
 20
256.09
 30
0
 10
107.806
 20
256.384
 30
0
 10
107.683
 20
256.669
 30
0
 10
107.519
 20
256.93
 30
0
 10
107.322
 20
257.246
 30
0
 10
107.061
 20
257.523
 30
0
 10
106.742
 20
257.715
 30
0
 10
106.351
 20
257.955
 30
0
 10
105.886
 20
258.054
 30
0
 10
105.427
 20
258.052
 30
0
  0
SPLINE
  5
AB9
330
A02
100
AcDbEntity
  8
View
100
AcDbSpline
210
0
220
0
230
1
 70
8
 71
3
 72
20
 73
16
 74
0
 40
0
 40
0
 40
0
 40
0
 40
0.210924
 40
0.210924
 40
0.210924
 40
0.339635
 40
0.339635
 40
0.339635
 40
0.517433
 40
0.517433
 40
0.517433
 40
0.627279
 40
0.627279
 40
0.627279
 40
1
 40
1
 40
1
 40
1
 10
115.777
 20
257.957
 30
0
 10
115.318
 20
257.957
 30
0
 10
114.855
 20
257.891
 30
0
 10
114.424
 20
257.727
 30
0
 10
114.159
 20
257.627
 30
0
 10
113.914
 20
257.491
 30
0
 10
113.688
 20
257.32
 30
0
 10
113.378
 20
257.084
 30
0
 10
113.12
 20
256.782
 30
0
 10
112.921
 20
256.445
 30
0
 10
112.799
 20
256.236
 30
0
 10
112.696
 20
256.018
 30
0
 10
112.613
 20
255.789
 30
0
 10
112.332
 20
255.015
 30
0
 10
112.249
 20
254.18
 30
0
 10
112.247
 20
253.357
 30
0
  0
SPLINE
  5
ABA
330
A02
100
AcDbEntity
  8
View
100
AcDbSpline
210
0
220
0
230
1
 70
8
 71
3
 72
20
 73
16
 74
0
 40
0
 40
0
 40
0
 40
0
 40
0.380635
 40
0.380635
 40
0.380635
 40
0.480208
 40
0.480208
 40
0.480208
 40
0.635085
 40
0.635085
 40
0.635085
 40
0.771374
 40
0.771374
 40
0.771374
 40
1
 40
1
 40
1
 40
1
 10
112.247
 20
253.357
 30
0
 10
112.25
 20
252.52
 30
0
 10
112.326
 20
251.669
 30
0
 10
112.616
 20
250.882
 30
0
 10
112.692
 20
250.676
 30
0
 10
112.786
 20
250.479
 30
0
 10
112.897
 20
250.291
 30
0
 10
113.069
 20
249.999
 30
0
 10
113.291
 20
249.736
 30
0
 10
113.557
 20
249.527
 30
0
 10
113.793
 20
249.343
 30
0
 10
114.053
 20
249.202
 30
0
 10
114.336
 20
249.104
 30
0
 10
114.806
 20
248.939
 30
0
 10
115.308
 20
248.892
 30
0
 10
115.802
 20
248.892
 30
0
  0
LINE
  5
ABB
330
A02
100
AcDbEntity
  8
View
100
AcDbLine
 10
117.287
 20
248.892
 30
0
 11
115.802
 21
248.892
 31
0
  0
LINE
  5
ABC
330
A02
100
AcDbEntity
  8
View
100
AcDbLine
 10
117.287
 20
257.957
 30
0
 11
117.287
 21
248.892
 31
0
  0
LINE
  5
ABD
330
A02
100
AcDbEntity
  8
View
100
AcDbLine
 10
115.777
 20
257.957
 30
0
 11
117.287
 21
257.957
 31
0
  0
ENDSEC
  0
SECTION
  2
OBJECTS
  0
DICTIONARY
  5
F000
330
0
100
AcDbDictionary
  3
ACAD_GROUP
350
F001
  0
DICTIONARY
  5
F001
330
F000
100
AcDbDictionary
  0
ENDSEC
  0
EOF